<svg xmlns="http://www.w3.org/2000/svg" width="43" height="42.999" viewBox="0 0 43 42.999"><path d="M-36.5-529a21.359,21.359,0,0,1-15.2-6.3A21.36,21.36,0,0,1-58-550.5a21.358,21.358,0,0,1,6.3-15.2A21.36,21.36,0,0,1-36.5-572a21.36,21.36,0,0,1,15.2,6.3A21.358,21.358,0,0,1-15-550.5a21.36,21.36,0,0,1-6.3,15.2A21.359,21.359,0,0,1-36.5-529Zm.248-32.762c-3.1,0-3.51.013-4.745.069a8.5,8.5,0,0,0-2.794.535,5.63,5.63,0,0,0-2.039,1.327,5.632,5.632,0,0,0-1.327,2.039A8.5,8.5,0,0,0-47.693-555c-.056,1.236-.069,1.645-.069,4.744s.013,3.51.069,4.745a8.5,8.5,0,0,0,.535,2.794,5.631,5.631,0,0,0,1.327,2.039,5.632,5.632,0,0,0,2.039,1.327,8.5,8.5,0,0,0,2.794.535c1.235.056,1.644.069,4.745.069s3.509-.013,4.745-.069a8.5,8.5,0,0,0,2.793-.535,5.632,5.632,0,0,0,2.039-1.327,5.631,5.631,0,0,0,1.327-2.039,8.5,8.5,0,0,0,.535-2.794c.057-1.235.069-1.606.069-4.745s-.012-3.509-.069-4.744a8.5,8.5,0,0,0-.535-2.794,5.632,5.632,0,0,0-1.327-2.039,5.63,5.63,0,0,0-2.039-1.327,8.5,8.5,0,0,0-2.793-.535C-32.743-561.749-33.153-561.762-36.252-561.762Zm0,20.945c-3.081,0-3.444-.012-4.651-.067a6.388,6.388,0,0,1-2.138-.4,3.576,3.576,0,0,1-1.324-.862,3.558,3.558,0,0,1-.861-1.323,6.385,6.385,0,0,1-.4-2.138c-.055-1.206-.067-1.569-.067-4.651s.012-3.444.067-4.65a6.386,6.386,0,0,1,.4-2.138,3.57,3.57,0,0,1,.861-1.324,3.569,3.569,0,0,1,1.324-.861,6.387,6.387,0,0,1,2.138-.4c1.207-.055,1.569-.067,4.651-.067s3.443.012,4.651.067a6.387,6.387,0,0,1,2.136.4,3.569,3.569,0,0,1,1.324.861,3.558,3.558,0,0,1,.861,1.324,6.342,6.342,0,0,1,.4,2.138c.055,1.206.067,1.569.067,4.65s-.012,3.445-.067,4.651a6.34,6.34,0,0,1-.4,2.138,3.545,3.545,0,0,1-.861,1.323,3.576,3.576,0,0,1-1.324.862,6.385,6.385,0,0,1-2.136.4C-32.809-540.829-33.172-540.817-36.252-540.817Zm0-15.346a5.917,5.917,0,0,0-5.911,5.91,5.918,5.918,0,0,0,5.911,5.911,5.917,5.917,0,0,0,5.91-5.911A5.916,5.916,0,0,0-36.252-556.163Zm6.143-1.614A1.382,1.382,0,0,0-31.49-556.4a1.382,1.382,0,0,0,1.381,1.381,1.383,1.383,0,0,0,1.382-1.381A1.383,1.383,0,0,0-30.109-557.777Zm-6.143,11.361a3.841,3.841,0,0,1-3.837-3.837,3.841,3.841,0,0,1,3.837-3.836,3.84,3.84,0,0,1,3.836,3.836A3.841,3.841,0,0,1-36.252-546.417Z" transform="translate(58 572)"/></svg>