<svg xmlns="http://www.w3.org/2000/svg" width="11.235" height="98.139" viewBox="0 0 11.235 98.139"><g transform="translate(-1315.18 -605.776)"><path d="M1320.5,679.705v-60l4.212,8.39" transform="translate(-0.5 -13.705)" fill="none" stroke="#000" stroke-width="1"/><path d="M-12.015-3.15a5.287,5.287,0,0,1-.165,1.965c-.165.285-.6.3-1.1.36-.1.015-.135.045-.135.21,0,.15.03.195.135.195.57-.045,1.35-.06,1.965-.06s1.44.015,2.07.06c.1,0,.135-.045.135-.21s-.03-.18-.135-.195c-.54-.06-1.05-.075-1.215-.36-.18-.315-.165-.48-.165-1.965V-8.475a4.263,4.263,0,0,1,.195-1.86c.21-.33.6-.3.975-.3a2.768,2.768,0,0,1,1.8.465,3.437,3.437,0,0,1,.99,1.545c.03.09.06.135.24.1.135-.03.15-.075.15-.18-.09-.75-.2-1.71-.255-2.475-1.65.075-3.24.075-4.77.075-1.545,0-3.075,0-4.725-.075-.06.765-.165,1.725-.27,2.475,0,.1.015.15.165.18s.195-.015.225-.1A3.645,3.645,0,0,1-14.9-10.17a2.764,2.764,0,0,1,1.755-.465c.375,0,.81,0,.96.27.15.3.165.525.165,1.89ZM.4-11.415A5.407,5.407,0,0,0-5.145-5.8,5.419,5.419,0,0,0,.4-.18,5.439,5.439,0,0,0,5.97-5.835,5.377,5.377,0,0,0,.4-11.415Zm0,.51c2.28,0,3.9,2.01,3.9,5.115C4.3-2.715,2.715-.7.4-.7s-3.9-2.01-3.9-5.13C-3.5-8.865-1.89-10.9.4-10.9Zm9.78,5.52a9.685,9.685,0,0,0,1.17.06c3.585,0,4.56-1.455,4.56-3.045,0-1.665-1.02-2.82-3.975-2.82-.975,0-1.9.09-2.475.09-.615,0-1.44-.03-2.07-.075-.105,0-.135.045-.135.225s.03.18.135.2c.555.06,1.08.075,1.245.36.15.33.15.495.15,1.92V-3.15a5.594,5.594,0,0,1-.165,1.965c-.18.315-.57.33-1.11.375-.09.015-.12.03-.12.195s.015.195.12.195c.585-.045,1.38-.06,2.01-.06.6,0,1.38.015,2.025.06.12,0,.15-.045.15-.195s-.03-.18-.15-.195c-.57-.06-1.05-.075-1.215-.375-.15-.27-.15-.48-.15-1.965Zm0-3.105a4.167,4.167,0,0,1,.21-1.875c.195-.285.78-.315,1.23-.315,1.725,0,2.745.81,2.745,2.37,0,1.365-.825,2.475-3.075,2.475a6.156,6.156,0,0,1-1.11-.09Z" transform="translate(1315 688) rotate(90)"/></g></svg>