<svg xmlns="http://www.w3.org/2000/svg" width="31.237" height="293" viewBox="0 0 31.237 293"><g transform="translate(-41.568 -258)"><g transform="translate(-1263 13)"><path d="M-44.549-12.478a3.866,3.866,0,0,1-1.887-.187,8.548,8.548,0,0,0-2.074-.255,6.055,6.055,0,0,0-6.205,6.341A6.015,6.015,0,0,0-48.56-.2,5.263,5.263,0,0,0-43.681-3.23a.2.2,0,0,0-.119-.306c-.2-.1-.272-.068-.34.017a4.531,4.531,0,0,1-4.182,2.346c-2.618,0-4.505-2.363-4.505-5.44,0-3.468,1.853-5.729,4.386-5.729a3.988,3.988,0,0,1,2.278.731,5.314,5.314,0,0,1,1.445,2.04.2.2,0,0,0,.272.119c.136-.034.187-.085.17-.2C-44.378-10.54-44.48-11.594-44.549-12.478Zm3.519,7.548c1.5-.034,3.264-.017,4.93.034a.3.3,0,0,0,.272-.085.385.385,0,0,0,.085-.289,3.177,3.177,0,0,0-3.145-3.009,3.857,3.857,0,0,0-3.723,4.1A3.709,3.709,0,0,0-38.87-.2a3.224,3.224,0,0,0,2.958-1.632c.068-.1.085-.119.085-.17,0-.136-.221-.255-.289-.255a.173.173,0,0,0-.136.085,2.566,2.566,0,0,1-2.312,1.19c-1.122,0-2.516-1.122-2.516-3.281A4.744,4.744,0,0,1-41.029-4.93Zm.1-.612c.306-1.343,1.037-2.244,2.04-2.244,1.054,0,1.513,1.02,1.6,1.921.017.153-.034.272-.17.272A33.722,33.722,0,0,1-40.927-5.542Zm6.817-1.564a.465.465,0,0,1,.561.357,3.9,3.9,0,0,1,.136,1.394v2.431a5,5,0,0,1-.136,1.751c-.153.272-.476.272-.884.323-.1.017-.136.034-.136.187s.034.187.136.187c.561-.017,1.207-.051,1.768-.051.51,0,1.122.034,1.666.051.1,0,.136-.034.136-.187S-30.9-.833-31-.85c-.493-.051-.816-.051-.952-.323a5.66,5.66,0,0,1-.1-1.751V-5.151A1.993,1.993,0,0,1-31.7-6.477a2.035,2.035,0,0,1,1.666-.952,1.413,1.413,0,0,1,1.411.867,2.864,2.864,0,0,1,.187,1.394v2.244a4.151,4.151,0,0,1-.153,1.751c-.136.272-.459.289-.867.323-.1,0-.136.034-.136.187s.017.187.136.187c.578-.017,1.224-.051,1.768-.051.527,0,1.139.034,1.683.051.119,0,.136-.034.136-.187,0-.136-.034-.17-.136-.187-.459-.051-.765-.068-.9-.323a4.834,4.834,0,0,1-.136-1.751V-4.029c0-.425.017-1.258.017-1.87a2.305,2.305,0,0,0-2.4-2.38A3.028,3.028,0,0,0-32.053-6.7c0-.442,0-.935.034-1.394,0-.085-.119-.136-.2-.136a16.3,16.3,0,0,1-2.329.714c-.187.051-.221.085-.221.2.017.255.068.255.255.238Zm10.166-.238-.034,2.363c0,.8-.034,1.564-.034,2.346a2.592,2.592,0,0,0,.527,1.853A2.143,2.143,0,0,0-21.836-.2a2.528,2.528,0,0,0,1.853-.9c.1-.1.068-.153-.034-.289a.183.183,0,0,0-.272-.051,1.6,1.6,0,0,1-1.071.459,1.078,1.078,0,0,1-.9-.442,2.809,2.809,0,0,1-.34-1.717l.034-4.233c.629,0,1.53.017,2.142.051a.185.185,0,0,0,.17-.119l.153-.476c.017-.085,0-.1-.085-.1-.7.017-1.666.034-2.346.034,0-.51.034-1.19.051-1.666,0-.119-.017-.17-.221-.17-.187,0-.221.051-.272.153A3.873,3.873,0,0,1-23.689-8.5,2.532,2.532,0,0,1-25-7.8c-.17.034-.187.085-.187.255,0,.2.034.221.17.221Zm5.338.238a.5.5,0,0,1,.578.374,3.8,3.8,0,0,1,.136,1.377v2.431a4.1,4.1,0,0,1-.17,1.751c-.119.272-.442.272-.9.323-.1.017-.136.034-.136.187s.034.187.136.187c.561-.017,1.292-.051,1.819-.051.51,0,1.19.034,1.751.051.085,0,.119-.034.119-.187s-.034-.187-.119-.187c-.51-.051-.867-.051-1-.323a4.949,4.949,0,0,1-.119-1.751V-4.93a2.221,2.221,0,0,1,.476-1.462c.306-.408.561-.578.816-.578.323,0,.578.323.935.323a1.165,1.165,0,0,0,.867-1.139c0-.289-.425-.493-.935-.493-.918,0-1.632.935-2.159,1.819,0-.646.017-1.139.034-1.632,0-.085-.1-.136-.2-.136a15.409,15.409,0,0,1-2.38.714c-.17.051-.2.068-.2.255.017.2.085.2.238.187Zm11.73,1.292c.017-1.292-.017-2.465-2.329-2.465-1.87,0-3.145,1.207-3.145,1.989,0,.323.153.493.527.493.68,0,1.173-.306,1.173-.765a1.037,1.037,0,0,1,.289-.867A1.353,1.353,0,0,1-9.324-7.82c.731,0,1.071.527,1.071,1.751v.476a.918.918,0,0,1-.391.663,4.167,4.167,0,0,1-1.326.578,4.769,4.769,0,0,0-2.04.918,1.826,1.826,0,0,0-.578,1.479A1.773,1.773,0,0,0-10.565-.2a3.185,3.185,0,0,0,2.4-.952A1.279,1.279,0,0,0-6.91-.289,2.163,2.163,0,0,0-5.618-.7c.1-.068.119-.119.034-.255-.068-.119-.153-.119-.221-.085a.823.823,0,0,1-.459.153c-.408,0-.663-.408-.646-1.462ZM-8.27-2.3A1.521,1.521,0,0,1-9.919-.85a1.265,1.265,0,0,1-1.173-1.343,1.7,1.7,0,0,1,1.36-1.7c.986-.374,1.292-.527,1.479-.782Zm4.488-.663A4.526,4.526,0,0,1-3.936-1.19c-.119.272-.425.272-.884.323-.119.017-.153.068-.153.2,0,.153.034.187.153.187C-4.242-.51-3.562-.527-3-.527c.493,0,1.122.017,1.683.051.1,0,.136-.034.136-.187,0-.136-.017-.187-.136-.2-.493-.051-.816-.068-.969-.323a5.068,5.068,0,0,1-.119-1.768V-9.112c0-1.632.034-2.907.068-4.114,0-.085-.1-.119-.187-.119a25.276,25.276,0,0,1-2.448.714c-.153.034-.187.051-.187.238.017.2.068.221.221.2l.442-.034a.524.524,0,0,1,.6.357,4.937,4.937,0,0,1,.119,1.394ZM9.359-6.086c1.666.85,2.482,1.564,2.482,2.941a2.363,2.363,0,0,1-2.55,2.4c-1.377,0-2.669-1.156-3.366-2.89-.034-.085-.085-.136-.272-.1-.153.034-.17.119-.17.2A22.4,22.4,0,0,0,6.044-.8,9.407,9.407,0,0,0,9.1-.2c2.975,0,4.267-1.632,4.267-3.6,0-1.989-1.173-2.839-3.162-3.774L9.342-7.99c-1.5-.714-1.9-1.462-1.9-2.3a2.012,2.012,0,0,1,2.125-2.108c1.275,0,2.329.969,2.89,2.55.017.085.051.136.2.119.17-.034.2-.085.2-.17-.068-.884-.17-1.87-.187-2.72a4.175,4.175,0,0,1-1.649-.085,4.756,4.756,0,0,0-1.5-.238c-2.21,0-3.6,1.394-3.6,3.026,0,1.717.935,2.55,2.635,3.417ZM20.783.646a7.2,7.2,0,0,1-.153,2.193c-.153.255-.527.272-1.02.323-.085,0-.119.017-.119.2,0,.153.034.187.136.187.612-.034,1.326-.051,1.853-.051.544,0,1.275.017,1.836.051.119,0,.136-.034.136-.2s-.017-.187-.136-.187c-.459-.051-.85-.068-1.02-.323A7.457,7.457,0,0,1,22.177.646l.034-4.964c.017-1.258.051-2.431.136-3.587,0-.119-.034-.17-.17-.17a.4.4,0,0,0-.323.136l-.561.493a.221.221,0,0,1-.323,0,3.509,3.509,0,0,0-2.244-.85,3.831,3.831,0,0,0-3.74,4.1c0,2.312,1.258,3.995,3.536,3.995A2.7,2.7,0,0,0,20.8-1.513ZM20.8-3.2A1.671,1.671,0,0,1,20.494-1.9a1.936,1.936,0,0,1-1.683.918c-1.275,0-2.227-1.19-2.227-3.264,0-2.006.884-3.485,2.244-3.485a1.93,1.93,0,0,1,1.683.952,2.21,2.21,0,0,1,.306,1.462ZM32.257-.9c-.272-.017-.544-.017-.663-.289a4.736,4.736,0,0,1-.119-1.683V-5.151c0-.765,0-1.734.051-2.907a.175.175,0,0,0-.187-.17,20.157,20.157,0,0,1-2.329.459c-.17.034-.187.051-.187.238.017.187.051.221.221.2l.442-.034a.482.482,0,0,1,.527.391,4.8,4.8,0,0,1,.1,1.343V-3.3a1.924,1.924,0,0,1-.357,1.309,1.992,1.992,0,0,1-1.632.952,1.424,1.424,0,0,1-1.377-.85,3.522,3.522,0,0,1-.2-1.53V-5.151c0-.765,0-1.751.051-2.907a.186.186,0,0,0-.187-.17c-.7.17-1.649.357-2.346.459-.187.034-.2.051-.2.238.017.187.068.221.238.2l.408-.034a.51.51,0,0,1,.544.391,4.671,4.671,0,0,1,.1,1.343v1.292c0,.646-.017,1.156-.017,1.785A2.239,2.239,0,0,0,27.548-.2a2.894,2.894,0,0,0,2.567-1.53c0,.459-.017.867-.034,1.36a.2.2,0,0,0,.187.17,18.818,18.818,0,0,1,2.3-.289c.119,0,.153-.034.153-.187s-.034-.187-.153-.2Zm7.259-4.913c.017-1.292-.017-2.465-2.329-2.465-1.87,0-3.145,1.207-3.145,1.989,0,.323.153.493.527.493.68,0,1.173-.306,1.173-.765a1.037,1.037,0,0,1,.289-.867,1.353,1.353,0,0,1,1.037-.391c.731,0,1.071.527,1.071,1.751v.476a.918.918,0,0,1-.391.663,4.167,4.167,0,0,1-1.326.578,4.769,4.769,0,0,0-2.04.918A1.826,1.826,0,0,0,33.8-1.955,1.773,1.773,0,0,0,35.828-.2a3.185,3.185,0,0,0,2.4-.952,1.279,1.279,0,0,0,1.258.867A2.163,2.163,0,0,0,40.775-.7c.1-.068.119-.119.034-.255-.068-.119-.153-.119-.221-.085a.823.823,0,0,1-.459.153c-.408,0-.663-.408-.646-1.462ZM38.123-2.3A1.521,1.521,0,0,1,36.474-.85,1.265,1.265,0,0,1,35.3-2.193a1.7,1.7,0,0,1,1.36-1.7c.986-.374,1.292-.527,1.479-.782Zm4.046-4.811a.5.5,0,0,1,.578.374,3.8,3.8,0,0,1,.136,1.377v2.431a4.1,4.1,0,0,1-.17,1.751c-.119.272-.442.272-.9.323-.1.017-.136.034-.136.187s.034.187.136.187c.561-.017,1.292-.051,1.819-.051.51,0,1.19.034,1.751.051.085,0,.119-.034.119-.187s-.034-.187-.119-.187c-.51-.051-.867-.051-1-.323a4.949,4.949,0,0,1-.119-1.751V-4.93a2.221,2.221,0,0,1,.476-1.462c.306-.408.561-.578.816-.578.323,0,.578.323.935.323a1.165,1.165,0,0,0,.867-1.139c0-.289-.425-.493-.935-.493-.918,0-1.632.935-2.159,1.819,0-.646.017-1.139.034-1.632,0-.085-.1-.136-.2-.136a15.409,15.409,0,0,1-2.38.714c-.17.051-.2.068-.2.255.017.2.085.2.238.187Zm7.6,2.176c1.5-.034,3.264-.017,4.93.034a.3.3,0,0,0,.272-.085.385.385,0,0,0,.085-.289A3.177,3.177,0,0,0,51.91-8.279a3.857,3.857,0,0,0-3.723,4.1A3.709,3.709,0,0,0,51.926-.2a3.224,3.224,0,0,0,2.958-1.632c.068-.1.085-.119.085-.17,0-.136-.221-.255-.289-.255a.173.173,0,0,0-.136.085,2.566,2.566,0,0,1-2.312,1.19c-1.122,0-2.516-1.122-2.516-3.281A4.744,4.744,0,0,1,49.767-4.93Zm.1-.612c.306-1.343,1.037-2.244,2.04-2.244,1.054,0,1.513,1.02,1.6,1.921.017.153-.034.272-.17.272A33.722,33.722,0,0,1,49.869-5.542Z" transform="translate(1315 371) rotate(90)"/></g><g transform="translate(-27.682 -2002.216)"><rect width="31.543" height="31.237" transform="translate(100.487 2451.75) rotate(90)" fill="none"/><g transform="translate(74.609 2457.005)"><path d="M20.9,10.451A10.451,10.451,0,1,0,8.818,20.776v-7.3H6.165V10.451H8.818v-2.3c0-2.619,1.56-4.066,3.948-4.066a16.072,16.072,0,0,1,2.34.2V6.859H13.787a1.511,1.511,0,0,0-1.7,1.632v1.96h2.9l-.463,3.021H12.084v7.3A10.454,10.454,0,0,0,20.9,10.451Z"/></g></g><path d="M1320.5,619.705v60" transform="translate(-1263.5 -361.705)" fill="none" stroke="#000" stroke-width="1"/><path d="M1320.5,619.705v60" transform="translate(-1263.5 -128.705)" fill="none" stroke="#000" stroke-width="1"/></g></svg>