<svg xmlns="http://www.w3.org/2000/svg" width="346.346" height="20.504" viewBox="0 0 346.346 20.504"><path d="M7.568-11.7A59.157,59.157,0,0,1,3.52-4.048a1.223,1.223,0,0,0-.286.726.747.747,0,0,0,.792.792.88.88,0,0,0,.792-.594C6.27-6.072,7.59-8.844,8.866-11.946c1.342-.308,2.684-.682,3.454-.946.594-.2.814-.374.814-.748s-.308-.66-.88-.66a2.992,2.992,0,0,0-1.056.33,13.95,13.95,0,0,1-1.782.682c.176-.44.374-.9.528-1.232a2.439,2.439,0,0,1,.594-.968.671.671,0,0,0,.352-.572c0-.33-.2-.484-.528-.7a4.7,4.7,0,0,0-1.87-.616,1.319,1.319,0,0,0-.814.2c-.088.066-.176.154-.176.242,0,.066.044.088.132.11a4.657,4.657,0,0,1,.9.286.578.578,0,0,1,.418.528,3.109,3.109,0,0,1-.132.77,19.784,19.784,0,0,1-.748,2.31,14.008,14.008,0,0,1-2.882.374,2.821,2.821,0,0,1-1.848-.594.336.336,0,0,0-.264-.132.21.21,0,0,0-.176.176.435.435,0,0,0,.044.22,2.413,2.413,0,0,0,1.1,1.056,3.276,3.276,0,0,0,1.54.308A18.923,18.923,0,0,0,7.568-11.7Zm8.008,1.562c-1.562.352-2.618,1.034-2.618,3.08,0,1.078.2,2.266.286,3.41a9.746,9.746,0,0,0-1.716-.132c-1.892,0-3.344.836-3.344,2.266,0,1.386,1.276,2.31,3.08,2.31a3.562,3.562,0,0,0,2.574-.77,2.549,2.549,0,0,0,.836-2.112,11.772,11.772,0,0,1,2.86,1.8,1.276,1.276,0,0,0,.814.374.7.7,0,0,0,.726-.748,1.061,1.061,0,0,0-.44-.858,14.588,14.588,0,0,0-4-1.87A25.161,25.161,0,0,1,13.882-7.5c0-1.738,1.078-2.046,2.134-2.046a3,3,0,0,1,1.826.946,1.061,1.061,0,0,0,.66.286A.666.666,0,0,0,19.162-9a1.8,1.8,0,0,0-.99-1.3,7.408,7.408,0,0,0-3.784-1.056,5.856,5.856,0,0,0-2.046.374c-.132.044-.22.132-.22.22a.224.224,0,0,0,.2.242,1.578,1.578,0,0,0,.286-.022A7.209,7.209,0,0,1,13.64-10.6a4.351,4.351,0,0,1,1.936.374ZM13.354-2.508a1.9,1.9,0,0,1,.022.33,1.718,1.718,0,0,1-.594,1.342,2.462,2.462,0,0,1-1.738.55C9.526-.286,8.91-.836,8.91-1.5c0-.9,1.078-1.386,2.31-1.386A6.789,6.789,0,0,1,13.354-2.508ZM37.422-15.84a.226.226,0,0,0-.242.22.341.341,0,0,0,.154.22,7.613,7.613,0,0,1,1.848,2.112q.3.594.726.594a.612.612,0,0,0,.616-.66c0-.462-.308-.858-.836-1.32a4.952,4.952,0,0,0-1.914-1.1A1.251,1.251,0,0,0,37.422-15.84Zm1.782-1.5a.22.22,0,0,0-.22.22.265.265,0,0,0,.154.22,6.709,6.709,0,0,1,2.024,2.068c.242.418.418.528.7.528a.625.625,0,0,0,.594-.7c0-.506-.484-1.012-1.012-1.386a5.2,5.2,0,0,0-1.76-.858A2.873,2.873,0,0,0,39.2-17.336Zm3.08,11.308a5.227,5.227,0,0,0-1.76-3.388,8.709,8.709,0,0,0-3.08-2.09.4.4,0,0,0-.2-.044c-.2,0-.33.11-.33.22a.455.455,0,0,0,.22.308,9.439,9.439,0,0,1,2.42,2.31A3.576,3.576,0,0,1,40.3-7.018c0,.242-.088.308-.352.4a19.159,19.159,0,0,1-2.464.616c-.176.044-.242.132-.242.264a.272.272,0,0,0,.308.286c1.012-.066,1.782-.11,2.486-.11a1.236,1.236,0,0,1,.814.242,1.012,1.012,0,0,0,.638.242C41.91-5.082,42.284-5.368,42.284-6.028Zm-10.846-5.7c.308-.682.616-1.32.88-1.914a1.5,1.5,0,0,1,.528-.7c.286-.132.418-.286.418-.506a.918.918,0,0,0-.352-.726,3.578,3.578,0,0,0-2.2-.924,1.918,1.918,0,0,0-.792.176c-.154.088-.286.176-.286.286s.088.154.308.2a3.1,3.1,0,0,1,.968.33c.286.2.33.308.33.506a2.532,2.532,0,0,1-.154.858,24.582,24.582,0,0,1-.99,2.662c-1.056.286-1.892.506-2.662.682a6.737,6.737,0,0,1-1.584.286c-.352,0-.682-.308-1.078-.814-.11-.154-.154-.2-.242-.2-.11,0-.22.286-.22.528a2.463,2.463,0,0,0,.836,1.54,1.477,1.477,0,0,0,.99.528.8.8,0,0,0,.55-.242,2.4,2.4,0,0,1,.638-.33c.638-.264,1.5-.616,2.31-.9-.44.924-.924,1.826-1.5,2.9-1.1,2.024-2.288,4-3.586,5.962a1.359,1.359,0,0,0-.286.814.652.652,0,0,0,.7.616.821.821,0,0,0,.77-.44c1.188-2.024,2.178-3.96,3.322-6.182.66-1.276,1.276-2.662,1.958-4.07a6.287,6.287,0,0,1,1.518-.264,1.009,1.009,0,0,1,.946.374,3,3,0,0,1,.374,1.848,14.612,14.612,0,0,1-.572,3.74,7.591,7.591,0,0,1-1.562,2.992,1.138,1.138,0,0,1-.836.418,1.437,1.437,0,0,1-.638-.154c-.572-.33-1.1-.682-1.738-1.122a.4.4,0,0,0-.242-.11c-.11,0-.22.154-.22.242a.3.3,0,0,0,.11.22c.528.55.924.968,1.276,1.386a1.449,1.449,0,0,1,.33.792c.088.44.308.572.814.572a2.9,2.9,0,0,0,1.958-.99,7.2,7.2,0,0,0,1.716-2.816,14.148,14.148,0,0,0,.858-4.664,4.591,4.591,0,0,0-.638-2.618,2.037,2.037,0,0,0-1.738-.9A6.838,6.838,0,0,0,31.438-11.726Zm23.056-2.486a9.577,9.577,0,0,1,1.166-.044,6.372,6.372,0,0,1,4.092,1.43,5.551,5.551,0,0,1,1.848,4.2A6.215,6.215,0,0,1,59.62-4.07a12.228,12.228,0,0,1-5.984,2.794c-.286.066-.4.132-.4.308a.311.311,0,0,0,.308.264,13.129,13.129,0,0,0,7.326-2.464A6.221,6.221,0,0,0,63.25-8.316a6.281,6.281,0,0,0-2.442-4.994A8.092,8.092,0,0,0,55.7-15a9.4,9.4,0,0,0-7.04,2.882A8,8,0,0,0,46.6-6.93a4.832,4.832,0,0,0,1.012,3.256,2.03,2.03,0,0,0,1.65.88,2.945,2.945,0,0,0,2.222-1.43,22.153,22.153,0,0,0,3.146-5.7A8.788,8.788,0,0,0,55.2-12.5,2.572,2.572,0,0,0,54.494-14.212Zm-.594.066a1.364,1.364,0,0,1,.352,1.012,4.815,4.815,0,0,1-.308,1.738A23.377,23.377,0,0,1,50.8-5.676c-.638.858-1.078,1.254-1.54,1.254a1.234,1.234,0,0,1-1.034-.748,3.8,3.8,0,0,1-.484-2.046,6.858,6.858,0,0,1,1.914-4.752A7.763,7.763,0,0,1,53.9-14.146ZM86.7-8.6c.22,0,.286-.066.286-.22,0-.132-.088-.286-.55-.682-.968-.792-1.166-.88-1.32-.88-.132,0-.286.11-1.21,1.232H77.616V-11.77h6.93c.22,0,.286-.088.286-.22s-.11-.264-.506-.616c-.9-.7-1.078-.814-1.232-.814-.132,0-.286.11-1.1,1.1H77.616v-2.464h8.228c.2,0,.286-.066.286-.2s-.11-.264-.55-.638c-.99-.814-1.166-.924-1.3-.924s-.308.11-1.21,1.21H77.616v-1.738c.572-.242.748-.418.748-.594,0-.264-.242-.44-2.486-.66a25.216,25.216,0,0,1,.11,2.772v.22H69.74a6.977,6.977,0,0,1-1.584-.176l.242.858a7.708,7.708,0,0,1,1.364-.132h6.226v2.464H70.774a7.769,7.769,0,0,1-1.54-.154l.22.858A5.227,5.227,0,0,1,70.8-11.77h5.192v2.618H68.53A8.807,8.807,0,0,1,66.9-9.306l.22.836A6.85,6.85,0,0,1,68.574-8.6h6.314a20.6,20.6,0,0,1-8.206,5.94c-.132.066-.044.374.11.33A19.4,19.4,0,0,0,72.578-4.62V-.792c-.528.088-1.034.154-1.474.2a13.489,13.489,0,0,1-2.046.154c.66,2,.814,2.31,1.078,2.31.242,0,.33-.132.506-.814a40.583,40.583,0,0,0,8.536-2.9c.11-.066.022-.352-.11-.308-1.518.4-3.3.792-4.928,1.1V-5.7a18.129,18.129,0,0,0,2.9-2.9,15.042,15.042,0,0,0,3.212,6.688A13.268,13.268,0,0,0,84.48,1.232a2.4,2.4,0,0,0,.9.352c.22,0,.352-.132.462-.462C86.086.308,86.35.066,87.01-.066c.11-.022.132-.22.022-.242A12.343,12.343,0,0,1,81.07-3.124a11.871,11.871,0,0,1-.924-.9A18.272,18.272,0,0,0,84.04-6.27c.836.11,1.012-.022,1.012-.22,0-.242-.264-.462-1.958-1.54A10.371,10.371,0,0,1,82.1-6.6a18.2,18.2,0,0,1-2.266,2.222A12.705,12.705,0,0,1,77.55-8.6Zm4.268-2.42A9.71,9.71,0,0,1,89.1-11.2l.22.858a12.135,12.135,0,0,1,1.694-.132h4.532A19.117,19.117,0,0,1,88.7-5.192c-.11.066-.022.352.11.308a16.338,16.338,0,0,0,8.58-5.588h3.036a11.953,11.953,0,0,0,3.938,3.982,14.944,14.944,0,0,0,2.75,1.342,2.965,2.965,0,0,0,.88.242c.154,0,.242-.088.33-.4.308-.88.44-1.012,1.034-1.166.11-.022.154-.242.044-.264a17,17,0,0,1-4.73-1.21,9.57,9.57,0,0,1-3.586-2.53h7.678c.22,0,.286-.066.286-.2s-.088-.264-.55-.66c-1.012-.792-1.166-.9-1.32-.9-.132,0-.286.11-1.276,1.21h-8.1l.594-.924c.77-.066.924-.176.924-.418,0-.286-.638-.55-2.222-.946,2.4-.2,4.8-.506,7.172-.924a5.339,5.339,0,0,1,.44.616c.462.814.594.924.99.924a.843.843,0,0,0,.814-.924c0-1.276-1.848-2.552-5.038-3.256-.11-.022-.22.2-.132.242a10.982,10.982,0,0,1,2.552,1.98c-2.86.2-5.764.242-8.6.242A13.256,13.256,0,0,0,97.746-17.2c.66,0,.836-.22.836-.418,0-.22-.374-.418-2.266-1.012a8.339,8.339,0,0,1-.528,1.914,11.241,11.241,0,0,1-1.144,2.31c-1.892,0-3.1-.066-3.982-.154.462,2.244.528,2.31.748,2.31.2,0,.33-.154.506-.66,1.892-.132,3.564-.242,5.1-.4a7.334,7.334,0,0,1-1.1,2.288Zm.44,7.084a15.771,15.771,0,0,0,8.294-3.7c.616.132.88-.022.88-.242,0-.242-.308-.484-1.694-1.386a6.814,6.814,0,0,1-1.232,1.43,19.011,19.011,0,0,1-6.336,3.586C91.19-4.2,91.278-3.916,91.41-3.938Zm-.4,5.808c5.28-.308,9.944-1.694,13.75-4.6.836.11,1.034.022,1.034-.264,0-.2-.22-.44-1.826-1.562a10.655,10.655,0,0,1-2.552,2.31A29.594,29.594,0,0,1,90.97,1.518C90.816,1.54,90.86,1.87,91.014,1.87Zm.352-3.124A19.665,19.665,0,0,0,101.948-5.06c.7.154.924.022.924-.176,0-.264-.2-.44-1.606-1.474a7.854,7.854,0,0,1-1.8,1.65A25.542,25.542,0,0,1,91.3-1.584C91.146-1.54,91.212-1.232,91.366-1.254Zm28.644-1.21h6.908V-2.2c0,.44.22.638.7.638.638,0,.946-.242.946-.748,0-.682-.088-3.1-.088-6.468v-2.244c.462-.308.55-.44.55-.616,0-.154-.066-.286-.4-.55-.682-.594-.814-.682-.946-.682-.154,0-.286.088-.9.836h-4.18a16.19,16.19,0,0,0,1.848-2.4h6.27c.22,0,.308-.066.308-.22,0-.132-.11-.286-.55-.638-.968-.77-1.122-.88-1.276-.88-.132,0-.308.132-1.188,1.188h-3.08a10.64,10.64,0,0,0,1.936-2.046c.748-.044.968-.154.968-.418,0-.22-.814-.572-2.332-1.1a9.136,9.136,0,0,1-.308,1.364,20.452,20.452,0,0,1-.9,2.2h-6.028a8.535,8.535,0,0,1-1.65-.154l.22.814a8.137,8.137,0,0,1,1.43-.11H122.5a11.2,11.2,0,0,1-.572,2.4H120.23a14.1,14.1,0,0,0-1.826-.9c.11,1.54.11,2.926.11,5.456,0,3.586-.088,4.576-.088,5.39,0,.418.22.616.7.616.616,0,.88-.242.88-.7Zm0-6.116h6.908v2.4H120.01Zm6.908-.55H120.01v-2.354h6.908Zm-6.908,3.5h6.908v2.618H120.01Zm1.518-9.658a.922.922,0,0,0,.9-.968c0-.836-.77-1.606-2.728-2.2-.11-.022-.22.11-.154.2a4.992,4.992,0,0,1,1.232,2.2C120.956-15.466,121.154-15.29,121.528-15.29Zm-6.864,1.628a.956.956,0,0,0,.9-1.078c0-1.012-1.1-2.266-3.3-2.97-.088-.022-.22.11-.154.176a7.063,7.063,0,0,1,1.672,2.816C114.048-13.882,114.268-13.662,114.664-13.662Zm.924,5.456c.55-.4.594-.484.594-.616,0-.154-.066-.264-.4-.572-.726-.616-.858-.7-1.012-.7-.132,0-.242.088-.946.858h-1.364a7.264,7.264,0,0,1-1.694-.176l.22.9a5.311,5.311,0,0,1,1.474-.176h1.518v5.764a7.912,7.912,0,0,1-1.848,1.232,8.075,8.075,0,0,1-1.342.506c.792,1.826,1.122,2.288,1.386,2.288s.374-.176.352-.99a15.645,15.645,0,0,0,2.486-3.058,5.753,5.753,0,0,0,2.178,2.9c1.188.792,3.124,1.232,7.26,1.232,1.8,0,3.85-.044,5.676-.176.352-.044.4-.11.462-.594a1.119,1.119,0,0,1,.748-1.012c.088-.044.066-.286-.044-.264a57.515,57.515,0,0,1-7.92.55,16.575,16.575,0,0,1-5.72-.7,3.83,3.83,0,0,1-2.068-1.848ZM142.3-10.1c.044-.858.066-1.5.132-2.42a1.132,1.132,0,0,1,.242-.748.86.86,0,0,0,.286-.616c0-.308-.242-.594-.77-.88a3.689,3.689,0,0,0-1.628-.55,1.758,1.758,0,0,0-.946.33c-.154.11-.308.264-.308.374s.044.132.2.154a2.657,2.657,0,0,1,1.122.264c.176.11.242.286.264.594.022.726.022,2.09.022,3.806-1.342.308-2.508.55-3.608.77a8.326,8.326,0,0,1-1.606.242,1.693,1.693,0,0,1-1.188-.638c-.176-.176-.264-.264-.352-.264s-.22.22-.22.506a2.217,2.217,0,0,0,.726,1.254,2.336,2.336,0,0,0,1.386.792.786.786,0,0,0,.572-.2,3.28,3.28,0,0,1,1.056-.44c.946-.308,2.112-.638,3.256-.946,0,1.188-.022,1.98,0,3.124a9.847,9.847,0,0,0,.176,1.826,2.277,2.277,0,0,0,1.056,1.5c.814.484,1.562.594,3.894.572a23.114,23.114,0,0,0,3.036-.2c.484-.066.792-.286.792-.726a.731.731,0,0,0-.374-.616,2.245,2.245,0,0,0-1.188-.308,7.148,7.148,0,0,0-1.122.2,13.076,13.076,0,0,1-2.728.22,4.216,4.216,0,0,1-1.54-.176,1.07,1.07,0,0,1-.55-.66,6.859,6.859,0,0,1-.132-1.694c0-1.232.022-2.4.044-3.366,2.046-.55,3.762-1.012,5.544-1.408a.9.9,0,0,1,.242-.022c.066,0,.11.022.11.088a.561.561,0,0,1-.132.286A34.115,34.115,0,0,1,144.716-6.4a.54.54,0,0,0-.2.33.307.307,0,0,0,.242.286.8.8,0,0,0,.374-.154,37.209,37.209,0,0,0,4.158-3.19,3.207,3.207,0,0,1,.99-.374c.33-.088.506-.22.506-.44,0-.374-.176-.638-.814-1.188-.792-.682-1.144-.836-1.452-.836a.927.927,0,0,0-.572.308,1.684,1.684,0,0,1-.858.4C145.794-10.934,144.364-10.582,142.3-10.1Zm30.58-3.432a.455.455,0,0,0-.308.2,42.261,42.261,0,0,1-5.236,5.3,39.772,39.772,0,0,1-5.874,4.246,2.189,2.189,0,0,1-1.034.4c-.352,0-.616-.242-1.056-.77-.154-.176-.22-.242-.308-.242-.154,0-.242.22-.242.55a2.679,2.679,0,0,0,.946,1.76c.484.484.9.858,1.408.858a.818.818,0,0,0,.7-.44,2.551,2.551,0,0,1,.55-.506,55.525,55.525,0,0,0,5.742-4.774,31.328,31.328,0,0,0,4.884-5.9.7.7,0,0,0,.154-.4C173.206-13.376,173.008-13.53,172.876-13.53Zm-14.234-.528c-.132,0-.242.088-.242.176a.34.34,0,0,0,.176.264,6.643,6.643,0,0,1,1.584,1.386,9.554,9.554,0,0,1,.924,1.474c.286.572.484.748.946.748a.873.873,0,0,0,.836-.968A2.29,2.29,0,0,0,161.546-13a7.487,7.487,0,0,0-2.442-1.012A2.306,2.306,0,0,0,158.642-14.058Zm27.72,4.62A9.322,9.322,0,0,1,188.65-8.36a9.34,9.34,0,0,1,1.716,1.452c.484.55.726.7,1.1.682.352,0,.7-.33.7-.924,0-.77-.616-1.5-2.156-2.134a13.247,13.247,0,0,0-3.652-.836c0-1.584.044-2.86.088-3.7a1.247,1.247,0,0,1,.2-.77,1.062,1.062,0,0,0,.308-.682c0-.4-.352-.748-.88-1.012a4.174,4.174,0,0,0-1.782-.528,1.557,1.557,0,0,0-.682.22c-.11.066-.22.154-.22.242s.066.154.22.2a3.82,3.82,0,0,1,.836.33.881.881,0,0,1,.44.462,8.107,8.107,0,0,1,.11,1.694c0,2.024,0,4.048-.022,6.182-.022,2.068-.044,3.014-.088,4.2a4.97,4.97,0,0,1-.11,1.034,2.617,2.617,0,0,0-.154.594,3.669,3.669,0,0,0,.484,1.628.763.763,0,0,0,.7.44c.33,0,.616-.22.616-.88,0-1.408-.066-4.048-.066-5.324Zm26.422-7.018a2.435,2.435,0,0,0-.66.11,4.586,4.586,0,0,1-.66.22,30.959,30.959,0,0,1-3.52.616c-.726.066-1.056.11-1.452.11a2.512,2.512,0,0,1-1.892-.66c-.154-.132-.242-.176-.33-.176a.157.157,0,0,0-.154.176,1.893,1.893,0,0,0,.55,1.056,2.117,2.117,0,0,0,1.584.836c.286,0,.836-.044,1.3-.088,1.5-.154,3.52-.374,4.8-.55a10.16,10.16,0,0,0,1.386-.242.551.551,0,0,0,.418-.616C214.148-16.17,213.466-16.456,212.784-16.456ZM203.962.77a1.307,1.307,0,0,0,.418-.11,21.123,21.123,0,0,0,6.688-4.95,23.1,23.1,0,0,0,3.74-5.412,1.383,1.383,0,0,1,.66-.7c.286-.11.462-.242.462-.484,0-.264-.2-.528-.594-.858-.682-.572-.968-.814-1.32-.814a.845.845,0,0,0-.506.242,1.364,1.364,0,0,1-.638.264c-2.178.264-4.95.572-6.776.748a13.53,13.53,0,0,1-1.628.132,2.263,2.263,0,0,1-1.65-.726c-.132-.132-.22-.22-.264-.22-.132,0-.22.176-.22.484a2.079,2.079,0,0,0,.726,1.21,2.311,2.311,0,0,0,1.32.814,1.029,1.029,0,0,0,.616-.2,5.048,5.048,0,0,1,1.364-.352c1.892-.286,4.092-.594,6.512-.814.176-.022.4-.044.484-.044s.132.022.132.088a1.936,1.936,0,0,1-.132.374A21.551,21.551,0,0,1,210.1-5.39,24.711,24.711,0,0,1,203.918.132a.385.385,0,0,0-.22.33C203.7.7,203.83.77,203.962.77Zm26.18-15.334c-.374,0-.924.2-.924.418,0,.11.088.154.22.2a1.722,1.722,0,0,1,1.056.748,3.21,3.21,0,0,1,.154,1.43c.022,2.222.022,4.422,0,6.424a3.03,3.03,0,0,1-.11.836,1.221,1.221,0,0,0-.066.374A1.959,1.959,0,0,0,231-3.058c.4.484.682.682.99.682.22,0,.33-.088.462-.33a1.251,1.251,0,0,1,.44-.462,27.744,27.744,0,0,0,7.788-6.006.526.526,0,0,0,.154-.286.377.377,0,0,0-.286-.308c-.132,0-.22.088-.374.22a33.535,33.535,0,0,1-7.7,4.774.993.993,0,0,1-.374.11c-.044,0-.11-.088-.11-.264.022-2.486.044-4.466.11-6.754a1.137,1.137,0,0,1,.2-.682.788.788,0,0,0,.242-.55c0-.4-.308-.66-.858-.99A4.393,4.393,0,0,0,230.142-14.564Zm-3.322,3.806a5.607,5.607,0,0,1-.242,1.342,15.813,15.813,0,0,1-1.672,3.85,15.828,15.828,0,0,1-3.058,3.7c-.176.154-.22.22-.22.33a.328.328,0,0,0,.264.286.988.988,0,0,0,.4-.154,13.556,13.556,0,0,0,3.828-3.674,15.376,15.376,0,0,0,2.046-4.268,1.6,1.6,0,0,1,.374-.748.72.72,0,0,0,.286-.55c0-.33-.33-.682-.792-.99a3.458,3.458,0,0,0-1.782-.748c-.33,0-.726.132-.726.308,0,.088.066.154.176.2a3.046,3.046,0,0,1,.836.462A.807.807,0,0,1,226.82-10.758Zm27.258,2.992a35.8,35.8,0,0,0,2.816-3.828,1.971,1.971,0,0,1,.924-.814c.44-.176.55-.264.55-.484,0-.264-.176-.506-.77-1.056-.462-.418-.7-.528-1.034-.528a.7.7,0,0,0-.528.242,1.187,1.187,0,0,1-.748.33c-1.606.22-3.432.4-5.148.572-.638.066-1.386.132-1.738.132-.484,0-.88-.286-1.452-.836-.132-.132-.286-.264-.374-.264-.11,0-.22.242-.22.462a2.167,2.167,0,0,0,.594,1.254,2.1,2.1,0,0,0,1.364,1.012,1.106,1.106,0,0,0,.638-.22,2.871,2.871,0,0,1,.9-.286,55.869,55.869,0,0,1,5.742-.836c.132,0,.176,0,.176.044s-.022.088-.088.2a27.563,27.563,0,0,1-4.158,5.588,27.7,27.7,0,0,1-7.128,5.39.382.382,0,0,0-.22.308.281.281,0,0,0,.242.264,1.822,1.822,0,0,0,.594-.154A20.758,20.758,0,0,0,249.3-3.52a22.624,22.624,0,0,0,4.29-3.718,16.022,16.022,0,0,1,5.214,4.884c.352.484.638.682.946.682a.849.849,0,0,0,.9-.924,3.674,3.674,0,0,0-1.364-2.068A16.892,16.892,0,0,0,254.078-7.766Zm20.306-4.73a3.216,3.216,0,0,0,1.144.286,7.873,7.873,0,0,0,1.3-.176c.858-.176,2.068-.4,2.4-.418a.1.1,0,0,1,.11.088.68.68,0,0,1-.044.176,30.565,30.565,0,0,1-4.158,6.446,28.552,28.552,0,0,1-6.82,5.9c-.2.132-.286.22-.286.352a.306.306,0,0,0,.264.286,1.076,1.076,0,0,0,.418-.11,22.953,22.953,0,0,0,7.436-5.522,33.851,33.851,0,0,0,4.444-6.226,1.231,1.231,0,0,1,.7-.638c.286-.132.506-.286.506-.572,0-.352-.33-.66-.836-1.056a2.311,2.311,0,0,0-1.122-.594.718.718,0,0,0-.506.264.96.96,0,0,1-.506.286c-.748.132-1.43.242-2.42.4a8.346,8.346,0,0,1-1.254.132,1.254,1.254,0,0,1-.286-.022c.616-.836.726-.99.946-1.122a.76.76,0,0,0,.44-.638c0-.33-.22-.594-.748-.946a4.076,4.076,0,0,0-1.672-.77c-.4,0-.792.154-.792.264s.132.154.286.242c.572.33.792.616.792.858a3.51,3.51,0,0,1-.506,1.276,26.121,26.121,0,0,1-1.98,2.9A27.973,27.973,0,0,1,268.466-7.7c-.308.286-.506.506-.506.66a.272.272,0,0,0,.286.308.74.74,0,0,0,.418-.154A19.968,19.968,0,0,0,271.832-9.5,27.63,27.63,0,0,0,274.384-12.5Zm21.956,2.64c-.88.066-1.76.11-2.706.154-.242-.154-.506-.33-.66-.418a2.79,2.79,0,0,0-1.21-.4c-.154,0-.4.066-.4.2s.088.2.22.286a3.039,3.039,0,0,1,.616.55,1.332,1.332,0,0,1,.242.726c.066.858.088,1.5.088,2.222a4.268,4.268,0,0,1-.022.594,1.079,1.079,0,0,0-.022.242c0,.484.286,1.166.836,1.166.352,0,.528-.286.528-.682,0-.22-.044-.66-.066-1.056-.022-.748-.066-1.54-.088-2.53,2.134-.242,4.312-.374,6.4-.44a3.249,3.249,0,0,1,.462.022A17.157,17.157,0,0,1,298.386-4.4a17.945,17.945,0,0,1-4.4,4.708c-.154.132-.22.22-.22.352,0,.176.11.264.286.264a1.284,1.284,0,0,0,.418-.132,14.541,14.541,0,0,0,4.818-4.334,22.333,22.333,0,0,0,2.574-4.664c.11-.308.2-.4.374-.484.286-.132.44-.22.44-.484,0-.22-.286-.506-.792-.858-.55-.374-.814-.506-1.012-.506-.11,0-.286.154-.4.264a.669.669,0,0,1-.418.154c-.836.066-1.518.11-2.486.154q.033-.792.066-1.254a.676.676,0,0,1,.242-.55.453.453,0,0,0,.2-.352c0-.286-.286-.528-.726-.77a3.029,3.029,0,0,0-1.276-.352,1.647,1.647,0,0,0-.748.22.235.235,0,0,0-.154.2c0,.088.044.154.176.176a2.846,2.846,0,0,1,.462.154,1.074,1.074,0,0,1,.352.22.8.8,0,0,1,.176.594ZM319.506-4.95c.132-2.046.176-3.256.286-4.752a2.027,2.027,0,0,1,.11-.572,1.119,1.119,0,0,0,.088-.484.58.58,0,0,0-.33-.528,3.484,3.484,0,0,0-.638-.374c1.5-.154,2.992-.308,4.422-.44a5.631,5.631,0,0,0,1.21-.11.516.516,0,0,0,.418-.55.655.655,0,0,0-.33-.55,3.273,3.273,0,0,0-1.584-.418,1.317,1.317,0,0,0-.682.22,4.3,4.3,0,0,1-1.1.374c-.836.132-1.98.33-3.234.462-1.188.132-2.2.2-2.816.2a2.8,2.8,0,0,1-1.958-.638.594.594,0,0,0-.374-.154c-.11,0-.176.088-.176.242a2.227,2.227,0,0,0,.77,1.166,1.561,1.561,0,0,0,1.21.528c.374,0,.946-.044,2.112-.154.2-.022.44-.022.616-.044a1.726,1.726,0,0,1,.506.44,1.291,1.291,0,0,1,.176.77c0,1.166-.044,3.608-.11,5.412-1.782.132-3.19.286-4.6.44a8.316,8.316,0,0,1-1.5.088,2.086,2.086,0,0,1-1.386-.748c-.132-.132-.22-.242-.308-.242-.132,0-.22.176-.22.44a1.422,1.422,0,0,0,.528,1.144c.7.748,1.078.99,1.562.99a.877.877,0,0,0,.506-.176,2.334,2.334,0,0,1,1.078-.33c1.474-.2,2.86-.374,4.334-.484,1.562-.11,3.19-.11,4.29-.11a22.893,22.893,0,0,1,3.476.22,9.691,9.691,0,0,0,1.254.154.62.62,0,0,0,.682-.616.8.8,0,0,0-.374-.638,3.75,3.75,0,0,0-1.716-.682,1.048,1.048,0,0,0-.638.2,2.247,2.247,0,0,1-.7.154c-.418.044-.946.066-1.76.088C321.618-5.016,320.606-4.994,319.506-4.95Zm22.748-4.884a46.876,46.876,0,0,0,5.126-3.08,2.629,2.629,0,0,1,1.232-.484c.418-.066.638-.2.638-.506,0-.418-.352-.792-.858-1.232-.572-.506-.946-.726-1.276-.726a1.036,1.036,0,0,0-.572.242,2.436,2.436,0,0,1-1.012.2c-2.794.242-5.61.484-8.4.748a18.8,18.8,0,0,1-2.222.132,1.77,1.77,0,0,1-1.43-.748c-.11-.132-.22-.242-.352-.242-.088,0-.154.242-.154.506a1.891,1.891,0,0,0,.572,1.188,2.474,2.474,0,0,0,1.5,1.012,1.062,1.062,0,0,0,.66-.242,6.762,6.762,0,0,1,1.782-.44c1.386-.242,2.97-.462,4.488-.616,1.738-.2,3.74-.33,4.378-.374.176,0,.264.022.264.088a.284.284,0,0,1-.11.242,25.884,25.884,0,0,1-4.136,3.476,3.375,3.375,0,0,1,.11-.66,1.408,1.408,0,0,0,.11-.374c0-.286-.132-.462-.462-.594a4.644,4.644,0,0,0-1.716-.286,1.476,1.476,0,0,0-.77.176c-.2.132-.352.308-.352.418,0,.132.088.132.22.132a1.813,1.813,0,0,1,1.034.286,1.346,1.346,0,0,1,.176.858,14.575,14.575,0,0,1-1.1,5.192,12.963,12.963,0,0,1-4.2,5.478c-.22.176-.308.286-.308.418a.26.26,0,0,0,.242.242,1.522,1.522,0,0,0,.66-.242,11.672,11.672,0,0,0,4.84-5.258A15.43,15.43,0,0,0,342.254-9.834Z" transform="translate(-2.904 18.634)"/></svg>