<svg xmlns="http://www.w3.org/2000/svg" width="910" height="306" viewBox="0 0 910 306"><g transform="translate(-308 -967)"><rect width="910" height="306" transform="translate(308 967)" fill="#fff"/><rect width="732" height="270" transform="translate(399 1003)" fill="#f5fcf4"/><path d="M17.528,7.488A2.892,2.892,0,0,0,19.672,4.7c0-1.808-1.52-3.088-3.68-3.088-2.192,0-3.648,1.392-3.648,3.152a3.243,3.243,0,0,0,2.08,3.12c-1.632.8-2.368,1.632-2.368,3.04,0,2.064,1.536,3.328,3.952,3.328,2.384,0,3.936-1.36,3.936-3.392C19.944,9.28,19.288,8.32,17.528,7.488ZM15.9,6.7c-1.264-.592-1.664-1.12-1.664-1.952a1.606,1.606,0,0,1,1.76-1.664,1.664,1.664,0,0,1,1.792,1.7,2.191,2.191,0,0,1-1.44,2.128ZM16.1,8.72c1.472.7,1.936,1.248,1.936,2.208a1.813,1.813,0,0,1-2.048,1.856A1.886,1.886,0,0,1,13.96,10.8c0-1.024.544-1.68,1.68-2.3ZM26.36,4.88c0-2.352.032-3.136.032-3.232,0-.16-.016-.176-.176-.176-.112,0-.416.032-1.376.032H23.464c-.96,0-1.264-.032-1.376-.032-.16,0-.176.016-.176.176,0,.1.032.944.032,3.84V8.976c0,4.016-.032,4.832-.032,4.928,0,.16.016.176.176.176h1.184c.144,0,.16-.016.16-.176V12.64H24.9v.7c0,.16.016.176.16.176h1.152c.16,0,.176-.016.176-.176,0-.1-.032-.816-.032-4.8Zm-2.928,6.3V7.728H24.9v3.456ZM24.9,2.96V6.272H23.432V2.96Zm8.72,3.968c1.52,0,2.048.032,2.144.032.176,0,.192-.016.192-.192v-1.1c0-.16-.016-.176-.192-.176-.1,0-.624.032-2.144.032h-1.7V3.872H33c1.456,0,1.936.032,2.032.032.16,0,.176-.016.176-.176V2.608c0-.176-.016-.192-.176-.192-.1,0-.576.032-2.032.032H31.928a3.716,3.716,0,0,1,.08-1.2.89.89,0,0,0,.1-.336c0-.08-.1-.144-.256-.16C31.256.688,30.824.656,30.2.64a13.4,13.4,0,0,1,.112,1.808H29.56c-1.424,0-1.92-.032-2.016-.032-.176,0-.192.016-.192.192v1.12c0,.16.016.176.192.176.1,0,.592-.032,2.016-.032h.752V5.52H29.16c-1.52,0-2.048-.032-2.144-.032-.176,0-.192.016-.192.176v1.1c0,.176.016.192.192.192.1,0,.624-.032,2.144-.032ZM32.376,9.936V13.12c0,.368-.144.5-.528.5-.528,0-1.008-.016-1.568-.064a3.565,3.565,0,0,1,.48,1.168c.112.48.128.48.608.48a3.692,3.692,0,0,0,2.08-.352,1.488,1.488,0,0,0,.56-1.36c0-.544-.016-1.232-.016-1.968V9.936c1.088.016,1.52.032,1.6.032.176,0,.192-.016.192-.176V8.672c0-.16-.016-.176-.192-.176-.08,0-.512.032-1.6.032a2.029,2.029,0,0,1,.08-.816.539.539,0,0,0,.08-.272c0-.08-.1-.144-.272-.176-.432-.064-1.008-.112-1.616-.144a11.882,11.882,0,0,1,.112,1.408H29.224c-1.52,0-2.032-.032-2.128-.032-.176,0-.192.016-.192.176v1.12c0,.16.016.176.192.176.1,0,.608-.032,2.128-.032Zm-4.32,1.008c-.192.112-.192.16-.08.288A13.4,13.4,0,0,1,29.384,13.2c.048.08.08.112.128.112s.1-.032.192-.1l.976-.672c.16-.112.176-.16.08-.3a12.8,12.8,0,0,0-1.472-1.84c-.128-.112-.176-.112-.336-.016Z" transform="translate(308 967)" fill="#333"/><path d="M12.408,12.288a3.057,3.057,0,0,0,3.216,1.968c2.624,0,4.16-1.9,4.16-6.784,0-4.112-1.552-5.856-3.968-5.856-2.24,0-3.68,1.632-3.68,4.272,0,2.416,1.392,3.936,3.248,3.936a2.626,2.626,0,0,0,2.5-1.456c-.08,3.2-.864,4.352-2.224,4.352-.672,0-1.056-.352-1.28-1.168Zm5.376-5.536a2.116,2.116,0,0,1-1.936,1.536c-1.024,0-1.68-.9-1.68-2.448,0-1.664.544-2.688,1.728-2.688C17.208,3.152,17.768,4.368,17.784,6.752ZM26.36,4.88c0-2.352.032-3.136.032-3.232,0-.16-.016-.176-.176-.176-.112,0-.416.032-1.376.032H23.464c-.96,0-1.264-.032-1.376-.032-.16,0-.176.016-.176.176,0,.1.032.944.032,3.84V8.976c0,4.016-.032,4.832-.032,4.928,0,.16.016.176.176.176h1.184c.144,0,.16-.016.16-.176V12.64H24.9v.7c0,.16.016.176.16.176h1.152c.16,0,.176-.016.176-.176,0-.1-.032-.816-.032-4.8Zm-2.928,6.3V7.728H24.9v3.456ZM24.9,2.96V6.272H23.432V2.96Zm8.72,3.968c1.52,0,2.048.032,2.144.032.176,0,.192-.016.192-.192v-1.1c0-.16-.016-.176-.192-.176-.1,0-.624.032-2.144.032h-1.7V3.872H33c1.456,0,1.936.032,2.032.032.16,0,.176-.016.176-.176V2.608c0-.176-.016-.192-.176-.192-.1,0-.576.032-2.032.032H31.928a3.716,3.716,0,0,1,.08-1.2.89.89,0,0,0,.1-.336c0-.08-.1-.144-.256-.16C31.256.688,30.824.656,30.2.64a13.4,13.4,0,0,1,.112,1.808H29.56c-1.424,0-1.92-.032-2.016-.032-.176,0-.192.016-.192.192v1.12c0,.16.016.176.192.176.1,0,.592-.032,2.016-.032h.752V5.52H29.16c-1.52,0-2.048-.032-2.144-.032-.176,0-.192.016-.192.176v1.1c0,.176.016.192.192.192.1,0,.624-.032,2.144-.032ZM32.376,9.936V13.12c0,.368-.144.5-.528.5-.528,0-1.008-.016-1.568-.064a3.565,3.565,0,0,1,.48,1.168c.112.48.128.48.608.48a3.692,3.692,0,0,0,2.08-.352,1.488,1.488,0,0,0,.56-1.36c0-.544-.016-1.232-.016-1.968V9.936c1.088.016,1.52.032,1.6.032.176,0,.192-.016.192-.176V8.672c0-.16-.016-.176-.192-.176-.08,0-.512.032-1.6.032a2.029,2.029,0,0,1,.08-.816.539.539,0,0,0,.08-.272c0-.08-.1-.144-.272-.176-.432-.064-1.008-.112-1.616-.144a11.882,11.882,0,0,1,.112,1.408H29.224c-1.52,0-2.032-.032-2.128-.032-.176,0-.192.016-.192.176v1.12c0,.16.016.176.192.176.1,0,.608-.032,2.128-.032Zm-4.32,1.008c-.192.112-.192.16-.08.288A13.4,13.4,0,0,1,29.384,13.2c.048.08.08.112.128.112s.1-.032.192-.1l.976-.672c.16-.112.176-.16.08-.3a12.8,12.8,0,0,0-1.472-1.84c-.128-.112-.176-.112-.336-.016Z" transform="translate(364 967)" fill="#333"/><path d="M12.576,1.744H10.944A9.018,9.018,0,0,1,8.1,3.184l.32,1.68a8.973,8.973,0,0,0,2.256-1.088v8.7h-2.4v1.552h6.592V12.48H12.576Zm8.016-.128c-2.464,0-3.856,1.776-3.856,6.3s1.312,6.336,3.824,6.336c2.5,0,3.872-1.84,3.872-6.368C24.432,3.376,23.056,1.616,20.592,1.616Zm0,1.584c1.28,0,1.776,1.1,1.776,4.7,0,3.584-.512,4.768-1.808,4.768C19.3,12.672,18.8,11.5,18.8,7.9,18.8,4.288,19.344,3.2,20.592,3.2ZM30.944,4.88c0-2.352.032-3.136.032-3.232,0-.16-.016-.176-.176-.176-.112,0-.416.032-1.376.032H28.048c-.96,0-1.264-.032-1.376-.032-.16,0-.176.016-.176.176,0,.1.032.944.032,3.84V8.976c0,4.016-.032,4.832-.032,4.928,0,.16.016.176.176.176h1.184c.144,0,.16-.016.16-.176V12.64h1.472v.7c0,.16.016.176.16.176H30.8c.16,0,.176-.016.176-.176,0-.1-.032-.816-.032-4.8Zm-2.928,6.3V7.728h1.472v3.456ZM29.488,2.96V6.272H28.016V2.96Zm8.72,3.968c1.52,0,2.048.032,2.144.032.176,0,.192-.016.192-.192v-1.1c0-.16-.016-.176-.192-.176-.1,0-.624.032-2.144.032h-1.7V3.872h1.072c1.456,0,1.936.032,2.032.032.16,0,.176-.016.176-.176V2.608c0-.176-.016-.192-.176-.192-.1,0-.576.032-2.032.032H36.512a3.716,3.716,0,0,1,.08-1.2.89.89,0,0,0,.1-.336c0-.08-.1-.144-.256-.16C35.84.688,35.408.656,34.784.64A13.4,13.4,0,0,1,34.9,2.448h-.752c-1.424,0-1.92-.032-2.016-.032-.176,0-.192.016-.192.192v1.12c0,.16.016.176.192.176.1,0,.592-.032,2.016-.032H34.9V5.52H33.744c-1.52,0-2.048-.032-2.144-.032-.176,0-.192.016-.192.176v1.1c0,.176.016.192.192.192.1,0,.624-.032,2.144-.032ZM36.96,9.936V13.12c0,.368-.144.5-.528.5-.528,0-1.008-.016-1.568-.064a3.565,3.565,0,0,1,.48,1.168c.112.48.128.48.608.48a3.692,3.692,0,0,0,2.08-.352,1.488,1.488,0,0,0,.56-1.36c0-.544-.016-1.232-.016-1.968V9.936c1.088.016,1.52.032,1.6.032.176,0,.192-.016.192-.176V8.672c0-.16-.016-.176-.192-.176-.08,0-.512.032-1.6.032a2.029,2.029,0,0,1,.08-.816.539.539,0,0,0,.08-.272c0-.08-.1-.144-.272-.176-.432-.064-1.008-.112-1.616-.144a11.882,11.882,0,0,1,.112,1.408H33.808c-1.52,0-2.032-.032-2.128-.032-.176,0-.192.016-.192.176v1.12c0,.16.016.176.192.176.1,0,.608-.032,2.128-.032Zm-4.32,1.008c-.192.112-.192.16-.08.288A13.4,13.4,0,0,1,33.968,13.2c.048.08.08.112.128.112s.1-.032.192-.1l.976-.672c.16-.112.176-.16.08-.3a12.8,12.8,0,0,0-1.472-1.84c-.128-.112-.176-.112-.336-.016Z" transform="translate(420 967)" fill="#333"/><path d="M12.576,1.744H10.944A9.018,9.018,0,0,1,8.1,3.184l.32,1.68a8.973,8.973,0,0,0,2.256-1.088v8.7h-2.4v1.552h6.592V12.48H12.576Zm9.168,0H20.112a9.018,9.018,0,0,1-2.848,1.44l.32,1.68A8.973,8.973,0,0,0,19.84,3.776v8.7h-2.4v1.552h6.592V12.48H21.744Zm9.2,3.136c0-2.352.032-3.136.032-3.232,0-.16-.016-.176-.176-.176-.112,0-.416.032-1.376.032H28.048c-.96,0-1.264-.032-1.376-.032-.16,0-.176.016-.176.176,0,.1.032.944.032,3.84V8.976c0,4.016-.032,4.832-.032,4.928,0,.16.016.176.176.176h1.184c.144,0,.16-.016.16-.176V12.64h1.472v.7c0,.16.016.176.16.176H30.8c.16,0,.176-.016.176-.176,0-.1-.032-.816-.032-4.8Zm-2.928,6.3V7.728h1.472v3.456ZM29.488,2.96V6.272H28.016V2.96Zm8.72,3.968c1.52,0,2.048.032,2.144.032.176,0,.192-.016.192-.192v-1.1c0-.16-.016-.176-.192-.176-.1,0-.624.032-2.144.032h-1.7V3.872h1.072c1.456,0,1.936.032,2.032.032.16,0,.176-.016.176-.176V2.608c0-.176-.016-.192-.176-.192-.1,0-.576.032-2.032.032H36.512a3.716,3.716,0,0,1,.08-1.2.89.89,0,0,0,.1-.336c0-.08-.1-.144-.256-.16C35.84.688,35.408.656,34.784.64A13.4,13.4,0,0,1,34.9,2.448h-.752c-1.424,0-1.92-.032-2.016-.032-.176,0-.192.016-.192.192v1.12c0,.16.016.176.192.176.1,0,.592-.032,2.016-.032H34.9V5.52H33.744c-1.52,0-2.048-.032-2.144-.032-.176,0-.192.016-.192.176v1.1c0,.176.016.192.192.192.1,0,.624-.032,2.144-.032ZM36.96,9.936V13.12c0,.368-.144.5-.528.5-.528,0-1.008-.016-1.568-.064a3.565,3.565,0,0,1,.48,1.168c.112.48.128.48.608.48a3.692,3.692,0,0,0,2.08-.352,1.488,1.488,0,0,0,.56-1.36c0-.544-.016-1.232-.016-1.968V9.936c1.088.016,1.52.032,1.6.032.176,0,.192-.016.192-.176V8.672c0-.16-.016-.176-.192-.176-.08,0-.512.032-1.6.032a2.029,2.029,0,0,1,.08-.816.539.539,0,0,0,.08-.272c0-.08-.1-.144-.272-.176-.432-.064-1.008-.112-1.616-.144a11.882,11.882,0,0,1,.112,1.408H33.808c-1.52,0-2.032-.032-2.128-.032-.176,0-.192.016-.192.176v1.12c0,.16.016.176.192.176.1,0,.608-.032,2.128-.032Zm-4.32,1.008c-.192.112-.192.16-.08.288A13.4,13.4,0,0,1,33.968,13.2c.048.08.08.112.128.112s.1-.032.192-.1l.976-.672c.16-.112.176-.16.08-.3a12.8,12.8,0,0,0-1.472-1.84c-.128-.112-.176-.112-.336-.016Z" transform="translate(493 967)" fill="#333"/><path d="M12.576,1.744H10.944A9.018,9.018,0,0,1,8.1,3.184l.32,1.68a8.973,8.973,0,0,0,2.256-1.088v8.7h-2.4v1.552h6.592V12.48H12.576Zm6.272,3.664c.1-1.456.72-2.208,1.728-2.208a1.524,1.524,0,0,1,1.6,1.7c0,1.008-.352,1.648-1.952,3.184a15.451,15.451,0,0,0-3.488,4.528v1.424H24.3v-1.6H18.816A11.939,11.939,0,0,1,21.792,9.04c1.872-1.744,2.464-2.768,2.464-4.128,0-2.112-1.456-3.3-3.648-3.3a3.576,3.576,0,0,0-3.76,3.376Zm12.1-.528c0-2.352.032-3.136.032-3.232,0-.16-.016-.176-.176-.176-.112,0-.416.032-1.376.032H28.048c-.96,0-1.264-.032-1.376-.032-.16,0-.176.016-.176.176,0,.1.032.944.032,3.84V8.976c0,4.016-.032,4.832-.032,4.928,0,.16.016.176.176.176h1.184c.144,0,.16-.016.16-.176V12.64h1.472v.7c0,.16.016.176.16.176H30.8c.16,0,.176-.016.176-.176,0-.1-.032-.816-.032-4.8Zm-2.928,6.3V7.728h1.472v3.456ZM29.488,2.96V6.272H28.016V2.96Zm8.72,3.968c1.52,0,2.048.032,2.144.032.176,0,.192-.016.192-.192v-1.1c0-.16-.016-.176-.192-.176-.1,0-.624.032-2.144.032h-1.7V3.872h1.072c1.456,0,1.936.032,2.032.032.16,0,.176-.016.176-.176V2.608c0-.176-.016-.192-.176-.192-.1,0-.576.032-2.032.032H36.512a3.716,3.716,0,0,1,.08-1.2.89.89,0,0,0,.1-.336c0-.08-.1-.144-.256-.16C35.84.688,35.408.656,34.784.64A13.4,13.4,0,0,1,34.9,2.448h-.752c-1.424,0-1.92-.032-2.016-.032-.176,0-.192.016-.192.192v1.12c0,.16.016.176.192.176.1,0,.592-.032,2.016-.032H34.9V5.52H33.744c-1.52,0-2.048-.032-2.144-.032-.176,0-.192.016-.192.176v1.1c0,.176.016.192.192.192.1,0,.624-.032,2.144-.032ZM36.96,9.936V13.12c0,.368-.144.5-.528.5-.528,0-1.008-.016-1.568-.064a3.565,3.565,0,0,1,.48,1.168c.112.48.128.48.608.48a3.692,3.692,0,0,0,2.08-.352,1.488,1.488,0,0,0,.56-1.36c0-.544-.016-1.232-.016-1.968V9.936c1.088.016,1.52.032,1.6.032.176,0,.192-.016.192-.176V8.672c0-.16-.016-.176-.192-.176-.08,0-.512.032-1.6.032a2.029,2.029,0,0,1,.08-.816.539.539,0,0,0,.08-.272c0-.08-.1-.144-.272-.176-.432-.064-1.008-.112-1.616-.144a11.882,11.882,0,0,1,.112,1.408H33.808c-1.52,0-2.032-.032-2.128-.032-.176,0-.192.016-.192.176v1.12c0,.16.016.176.192.176.1,0,.608-.032,2.128-.032Zm-4.32,1.008c-.192.112-.192.16-.08.288A13.4,13.4,0,0,1,33.968,13.2c.048.08.08.112.128.112s.1-.032.192-.1l.976-.672c.16-.112.176-.16.08-.3a12.8,12.8,0,0,0-1.472-1.84c-.128-.112-.176-.112-.336-.016Z" transform="translate(554 967)" fill="#333"/><path d="M12.576,1.744H10.944A9.018,9.018,0,0,1,8.1,3.184l.32,1.68a8.973,8.973,0,0,0,2.256-1.088v8.7h-2.4v1.552h6.592V12.48H12.576Zm6.176,3.1a1.692,1.692,0,0,1,1.7-1.68,1.549,1.549,0,0,1,1.68,1.712c0,1.232-.64,1.92-2.24,1.92H19.04V8.432h.928c1.712,0,2.368.816,2.368,2.208A1.822,1.822,0,0,1,20.464,12.7c-1.056,0-1.632-.5-1.9-1.728l-1.968.576c.544,1.888,1.872,2.7,3.888,2.7a3.58,3.58,0,0,0,3.9-3.632,2.971,2.971,0,0,0-2.576-3.072V7.44a2.654,2.654,0,0,0,2.336-2.752c0-1.776-1.44-3.072-3.664-3.072a3.519,3.519,0,0,0-3.7,2.64Zm12.192.032c0-2.352.032-3.136.032-3.232,0-.16-.016-.176-.176-.176-.112,0-.416.032-1.376.032H28.048c-.96,0-1.264-.032-1.376-.032-.16,0-.176.016-.176.176,0,.1.032.944.032,3.84V8.976c0,4.016-.032,4.832-.032,4.928,0,.16.016.176.176.176h1.184c.144,0,.16-.016.16-.176V12.64h1.472v.7c0,.16.016.176.16.176H30.8c.16,0,.176-.016.176-.176,0-.1-.032-.816-.032-4.8Zm-2.928,6.3V7.728h1.472v3.456ZM29.488,2.96V6.272H28.016V2.96Zm8.72,3.968c1.52,0,2.048.032,2.144.032.176,0,.192-.016.192-.192v-1.1c0-.16-.016-.176-.192-.176-.1,0-.624.032-2.144.032h-1.7V3.872h1.072c1.456,0,1.936.032,2.032.032.16,0,.176-.016.176-.176V2.608c0-.176-.016-.192-.176-.192-.1,0-.576.032-2.032.032H36.512a3.716,3.716,0,0,1,.08-1.2.89.89,0,0,0,.1-.336c0-.08-.1-.144-.256-.16C35.84.688,35.408.656,34.784.64A13.4,13.4,0,0,1,34.9,2.448h-.752c-1.424,0-1.92-.032-2.016-.032-.176,0-.192.016-.192.192v1.12c0,.16.016.176.192.176.1,0,.592-.032,2.016-.032H34.9V5.52H33.744c-1.52,0-2.048-.032-2.144-.032-.176,0-.192.016-.192.176v1.1c0,.176.016.192.192.192.1,0,.624-.032,2.144-.032ZM36.96,9.936V13.12c0,.368-.144.5-.528.5-.528,0-1.008-.016-1.568-.064a3.565,3.565,0,0,1,.48,1.168c.112.48.128.48.608.48a3.692,3.692,0,0,0,2.08-.352,1.488,1.488,0,0,0,.56-1.36c0-.544-.016-1.232-.016-1.968V9.936c1.088.016,1.52.032,1.6.032.176,0,.192-.016.192-.176V8.672c0-.16-.016-.176-.192-.176-.08,0-.512.032-1.6.032a2.029,2.029,0,0,1,.08-.816.539.539,0,0,0,.08-.272c0-.08-.1-.144-.272-.176-.432-.064-1.008-.112-1.616-.144a11.882,11.882,0,0,1,.112,1.408H33.808c-1.52,0-2.032-.032-2.128-.032-.176,0-.192.016-.192.176v1.12c0,.16.016.176.192.176.1,0,.608-.032,2.128-.032Zm-4.32,1.008c-.192.112-.192.16-.08.288A13.4,13.4,0,0,1,33.968,13.2c.048.08.08.112.128.112s.1-.032.192-.1l.976-.672c.16-.112.176-.16.08-.3a12.8,12.8,0,0,0-1.472-1.84c-.128-.112-.176-.112-.336-.016Z" transform="translate(616 967)" fill="#333"/><path d="M12.576,1.744H10.944A9.018,9.018,0,0,1,8.1,3.184l.32,1.68a8.973,8.973,0,0,0,2.256-1.088v8.7h-2.4v1.552h6.592V12.48H12.576Zm10.48,0H20.528L16.56,9.856v1.408h4.656v2.768h1.84V11.264h1.52V9.76h-1.52ZM21.216,9.76H18.224l1.5-3.232c.5-1.072.96-2.144,1.36-3.2h.224c-.048,1.232-.1,2.448-.1,3.744Zm9.728-4.88c0-2.352.032-3.136.032-3.232,0-.16-.016-.176-.176-.176-.112,0-.416.032-1.376.032H28.048c-.96,0-1.264-.032-1.376-.032-.16,0-.176.016-.176.176,0,.1.032.944.032,3.84V8.976c0,4.016-.032,4.832-.032,4.928,0,.16.016.176.176.176h1.184c.144,0,.16-.016.16-.176V12.64h1.472v.7c0,.16.016.176.16.176H30.8c.16,0,.176-.016.176-.176,0-.1-.032-.816-.032-4.8Zm-2.928,6.3V7.728h1.472v3.456ZM29.488,2.96V6.272H28.016V2.96Zm8.72,3.968c1.52,0,2.048.032,2.144.032.176,0,.192-.016.192-.192v-1.1c0-.16-.016-.176-.192-.176-.1,0-.624.032-2.144.032h-1.7V3.872h1.072c1.456,0,1.936.032,2.032.032.16,0,.176-.016.176-.176V2.608c0-.176-.016-.192-.176-.192-.1,0-.576.032-2.032.032H36.512a3.716,3.716,0,0,1,.08-1.2.89.89,0,0,0,.1-.336c0-.08-.1-.144-.256-.16C35.84.688,35.408.656,34.784.64A13.4,13.4,0,0,1,34.9,2.448h-.752c-1.424,0-1.92-.032-2.016-.032-.176,0-.192.016-.192.192v1.12c0,.16.016.176.192.176.1,0,.592-.032,2.016-.032H34.9V5.52H33.744c-1.52,0-2.048-.032-2.144-.032-.176,0-.192.016-.192.176v1.1c0,.176.016.192.192.192.1,0,.624-.032,2.144-.032ZM36.96,9.936V13.12c0,.368-.144.5-.528.5-.528,0-1.008-.016-1.568-.064a3.565,3.565,0,0,1,.48,1.168c.112.48.128.48.608.48a3.692,3.692,0,0,0,2.08-.352,1.488,1.488,0,0,0,.56-1.36c0-.544-.016-1.232-.016-1.968V9.936c1.088.016,1.52.032,1.6.032.176,0,.192-.016.192-.176V8.672c0-.16-.016-.176-.192-.176-.08,0-.512.032-1.6.032a2.029,2.029,0,0,1,.08-.816.539.539,0,0,0,.08-.272c0-.08-.1-.144-.272-.176-.432-.064-1.008-.112-1.616-.144a11.882,11.882,0,0,1,.112,1.408H33.808c-1.52,0-2.032-.032-2.128-.032-.176,0-.192.016-.192.176v1.12c0,.16.016.176.192.176.1,0,.608-.032,2.128-.032Zm-4.32,1.008c-.192.112-.192.16-.08.288A13.4,13.4,0,0,1,33.968,13.2c.048.08.08.112.128.112s.1-.032.192-.1l.976-.672c.16-.112.176-.16.08-.3a12.8,12.8,0,0,0-1.472-1.84c-.128-.112-.176-.112-.336-.016Z" transform="translate(677 967)" fill="#333"/><path d="M12.576,1.744H10.944A9.018,9.018,0,0,1,8.1,3.184l.32,1.68a8.973,8.973,0,0,0,2.256-1.088v8.7h-2.4v1.552h6.592V12.48H12.576Zm11.264.08H17.376l-.24,6.848,1.664.24a1.774,1.774,0,0,1,1.728-1.376c1.12,0,1.776.9,1.776,2.48,0,1.7-.72,2.688-1.872,2.688-.9,0-1.52-.512-1.744-1.7l-1.952.592a3.423,3.423,0,0,0,3.712,2.656c2.3,0,3.9-1.7,3.9-4.272,0-2.416-1.424-4-3.44-4a2.475,2.475,0,0,0-2.1,1.056c.048-.352.08-.784.1-1.152l.1-2.464H23.84Zm7.1,3.056c0-2.352.032-3.136.032-3.232,0-.16-.016-.176-.176-.176-.112,0-.416.032-1.376.032H28.048c-.96,0-1.264-.032-1.376-.032-.16,0-.176.016-.176.176,0,.1.032.944.032,3.84V8.976c0,4.016-.032,4.832-.032,4.928,0,.16.016.176.176.176h1.184c.144,0,.16-.016.16-.176V12.64h1.472v.7c0,.16.016.176.16.176H30.8c.16,0,.176-.016.176-.176,0-.1-.032-.816-.032-4.8Zm-2.928,6.3V7.728h1.472v3.456ZM29.488,2.96V6.272H28.016V2.96Zm8.72,3.968c1.52,0,2.048.032,2.144.032.176,0,.192-.016.192-.192v-1.1c0-.16-.016-.176-.192-.176-.1,0-.624.032-2.144.032h-1.7V3.872h1.072c1.456,0,1.936.032,2.032.032.16,0,.176-.016.176-.176V2.608c0-.176-.016-.192-.176-.192-.1,0-.576.032-2.032.032H36.512a3.716,3.716,0,0,1,.08-1.2.89.89,0,0,0,.1-.336c0-.08-.1-.144-.256-.16C35.84.688,35.408.656,34.784.64A13.4,13.4,0,0,1,34.9,2.448h-.752c-1.424,0-1.92-.032-2.016-.032-.176,0-.192.016-.192.192v1.12c0,.16.016.176.192.176.1,0,.592-.032,2.016-.032H34.9V5.52H33.744c-1.52,0-2.048-.032-2.144-.032-.176,0-.192.016-.192.176v1.1c0,.176.016.192.192.192.1,0,.624-.032,2.144-.032ZM36.96,9.936V13.12c0,.368-.144.5-.528.5-.528,0-1.008-.016-1.568-.064a3.565,3.565,0,0,1,.48,1.168c.112.48.128.48.608.48a3.692,3.692,0,0,0,2.08-.352,1.488,1.488,0,0,0,.56-1.36c0-.544-.016-1.232-.016-1.968V9.936c1.088.016,1.52.032,1.6.032.176,0,.192-.016.192-.176V8.672c0-.16-.016-.176-.192-.176-.08,0-.512.032-1.6.032a2.029,2.029,0,0,1,.08-.816.539.539,0,0,0,.08-.272c0-.08-.1-.144-.272-.176-.432-.064-1.008-.112-1.616-.144a11.882,11.882,0,0,1,.112,1.408H33.808c-1.52,0-2.032-.032-2.128-.032-.176,0-.192.016-.192.176v1.12c0,.16.016.176.192.176.1,0,.608-.032,2.128-.032Zm-4.32,1.008c-.192.112-.192.16-.08.288A13.4,13.4,0,0,1,33.968,13.2c.048.08.08.112.128.112s.1-.032.192-.1l.976-.672c.16-.112.176-.16.08-.3a12.8,12.8,0,0,0-1.472-1.84c-.128-.112-.176-.112-.336-.016Z" transform="translate(739 967)" fill="#333"/><path d="M12.576,1.744H10.944A9.018,9.018,0,0,1,8.1,3.184l.32,1.68a8.973,8.973,0,0,0,2.256-1.088v8.7h-2.4v1.552h6.592V12.48H12.576ZM24.224,3.616a3.134,3.134,0,0,0-3.184-2c-2.592,0-4.224,1.952-4.224,6.784,0,4.128,1.568,5.856,3.92,5.856,2.192,0,3.728-1.648,3.728-4.288,0-2.464-1.3-3.952-3.184-3.952a2.8,2.8,0,0,0-2.5,1.44c.064-2.8.752-4.32,2.208-4.32.576,0,1.088.3,1.28,1.2ZM18.8,9.1a2.335,2.335,0,0,1,2-1.552c1.072,0,1.648.848,1.648,2.48,0,1.776-.608,2.688-1.728,2.688C19.568,12.72,18.8,11.68,18.8,9.1ZM30.944,4.88c0-2.352.032-3.136.032-3.232,0-.16-.016-.176-.176-.176-.112,0-.416.032-1.376.032H28.048c-.96,0-1.264-.032-1.376-.032-.16,0-.176.016-.176.176,0,.1.032.944.032,3.84V8.976c0,4.016-.032,4.832-.032,4.928,0,.16.016.176.176.176h1.184c.144,0,.16-.016.16-.176V12.64h1.472v.7c0,.16.016.176.16.176H30.8c.16,0,.176-.016.176-.176,0-.1-.032-.816-.032-4.8Zm-2.928,6.3V7.728h1.472v3.456ZM29.488,2.96V6.272H28.016V2.96Zm8.72,3.968c1.52,0,2.048.032,2.144.032.176,0,.192-.016.192-.192v-1.1c0-.16-.016-.176-.192-.176-.1,0-.624.032-2.144.032h-1.7V3.872h1.072c1.456,0,1.936.032,2.032.032.16,0,.176-.016.176-.176V2.608c0-.176-.016-.192-.176-.192-.1,0-.576.032-2.032.032H36.512a3.716,3.716,0,0,1,.08-1.2.89.89,0,0,0,.1-.336c0-.08-.1-.144-.256-.16C35.84.688,35.408.656,34.784.64A13.4,13.4,0,0,1,34.9,2.448h-.752c-1.424,0-1.92-.032-2.016-.032-.176,0-.192.016-.192.192v1.12c0,.16.016.176.192.176.1,0,.592-.032,2.016-.032H34.9V5.52H33.744c-1.52,0-2.048-.032-2.144-.032-.176,0-.192.016-.192.176v1.1c0,.176.016.192.192.192.1,0,.624-.032,2.144-.032ZM36.96,9.936V13.12c0,.368-.144.5-.528.5-.528,0-1.008-.016-1.568-.064a3.565,3.565,0,0,1,.48,1.168c.112.48.128.48.608.48a3.692,3.692,0,0,0,2.08-.352,1.488,1.488,0,0,0,.56-1.36c0-.544-.016-1.232-.016-1.968V9.936c1.088.016,1.52.032,1.6.032.176,0,.192-.016.192-.176V8.672c0-.16-.016-.176-.192-.176-.08,0-.512.032-1.6.032a2.029,2.029,0,0,1,.08-.816.539.539,0,0,0,.08-.272c0-.08-.1-.144-.272-.176-.432-.064-1.008-.112-1.616-.144a11.882,11.882,0,0,1,.112,1.408H33.808c-1.52,0-2.032-.032-2.128-.032-.176,0-.192.016-.192.176v1.12c0,.16.016.176.192.176.1,0,.608-.032,2.128-.032Zm-4.32,1.008c-.192.112-.192.16-.08.288A13.4,13.4,0,0,1,33.968,13.2c.048.08.08.112.128.112s.1-.032.192-.1l.976-.672c.16-.112.176-.16.08-.3a12.8,12.8,0,0,0-1.472-1.84c-.128-.112-.176-.112-.336-.016Z" transform="translate(801 967)" fill="#333"/><path d="M12.576,1.744H10.944A9.018,9.018,0,0,1,8.1,3.184l.32,1.68a8.973,8.973,0,0,0,2.256-1.088v8.7h-2.4v1.552h6.592V12.48H12.576Zm11.664.08H16.816V3.456H22.3a22.468,22.468,0,0,0-3.632,10.576h2.256A21.907,21.907,0,0,1,24.24,3.248Zm6.7,3.056c0-2.352.032-3.136.032-3.232,0-.16-.016-.176-.176-.176-.112,0-.416.032-1.376.032H28.048c-.96,0-1.264-.032-1.376-.032-.16,0-.176.016-.176.176,0,.1.032.944.032,3.84V8.976c0,4.016-.032,4.832-.032,4.928,0,.16.016.176.176.176h1.184c.144,0,.16-.016.16-.176V12.64h1.472v.7c0,.16.016.176.16.176H30.8c.16,0,.176-.016.176-.176,0-.1-.032-.816-.032-4.8Zm-2.928,6.3V7.728h1.472v3.456ZM29.488,2.96V6.272H28.016V2.96Zm8.72,3.968c1.52,0,2.048.032,2.144.032.176,0,.192-.016.192-.192v-1.1c0-.16-.016-.176-.192-.176-.1,0-.624.032-2.144.032h-1.7V3.872h1.072c1.456,0,1.936.032,2.032.032.16,0,.176-.016.176-.176V2.608c0-.176-.016-.192-.176-.192-.1,0-.576.032-2.032.032H36.512a3.716,3.716,0,0,1,.08-1.2.89.89,0,0,0,.1-.336c0-.08-.1-.144-.256-.16C35.84.688,35.408.656,34.784.64A13.4,13.4,0,0,1,34.9,2.448h-.752c-1.424,0-1.92-.032-2.016-.032-.176,0-.192.016-.192.192v1.12c0,.16.016.176.192.176.1,0,.592-.032,2.016-.032H34.9V5.52H33.744c-1.52,0-2.048-.032-2.144-.032-.176,0-.192.016-.192.176v1.1c0,.176.016.192.192.192.1,0,.624-.032,2.144-.032ZM36.96,9.936V13.12c0,.368-.144.5-.528.5-.528,0-1.008-.016-1.568-.064a3.565,3.565,0,0,1,.48,1.168c.112.48.128.48.608.48a3.692,3.692,0,0,0,2.08-.352,1.488,1.488,0,0,0,.56-1.36c0-.544-.016-1.232-.016-1.968V9.936c1.088.016,1.52.032,1.6.032.176,0,.192-.016.192-.176V8.672c0-.16-.016-.176-.192-.176-.08,0-.512.032-1.6.032a2.029,2.029,0,0,1,.08-.816.539.539,0,0,0,.08-.272c0-.08-.1-.144-.272-.176-.432-.064-1.008-.112-1.616-.144a11.882,11.882,0,0,1,.112,1.408H33.808c-1.52,0-2.032-.032-2.128-.032-.176,0-.192.016-.192.176v1.12c0,.16.016.176.192.176.1,0,.608-.032,2.128-.032Zm-4.32,1.008c-.192.112-.192.16-.08.288A13.4,13.4,0,0,1,33.968,13.2c.048.08.08.112.128.112s.1-.032.192-.1l.976-.672c.16-.112.176-.16.08-.3a12.8,12.8,0,0,0-1.472-1.84c-.128-.112-.176-.112-.336-.016Z" transform="translate(862 967)" fill="#333"/><path d="M12.576,1.744H10.944A9.018,9.018,0,0,1,8.1,3.184l.32,1.68a8.973,8.973,0,0,0,2.256-1.088v8.7h-2.4v1.552h6.592V12.48H12.576Zm9.536,5.744A2.892,2.892,0,0,0,24.256,4.7c0-1.808-1.52-3.088-3.68-3.088-2.192,0-3.648,1.392-3.648,3.152a3.243,3.243,0,0,0,2.08,3.12c-1.632.8-2.368,1.632-2.368,3.04,0,2.064,1.536,3.328,3.952,3.328,2.384,0,3.936-1.36,3.936-3.392C24.528,9.28,23.872,8.32,22.112,7.488ZM20.48,6.7c-1.264-.592-1.664-1.12-1.664-1.952a1.606,1.606,0,0,1,1.76-1.664,1.664,1.664,0,0,1,1.792,1.7,2.191,2.191,0,0,1-1.44,2.128Zm.208,2.016c1.472.7,1.936,1.248,1.936,2.208a1.813,1.813,0,0,1-2.048,1.856A1.886,1.886,0,0,1,18.544,10.8c0-1.024.544-1.68,1.68-2.3ZM30.944,4.88c0-2.352.032-3.136.032-3.232,0-.16-.016-.176-.176-.176-.112,0-.416.032-1.376.032H28.048c-.96,0-1.264-.032-1.376-.032-.16,0-.176.016-.176.176,0,.1.032.944.032,3.84V8.976c0,4.016-.032,4.832-.032,4.928,0,.16.016.176.176.176h1.184c.144,0,.16-.016.16-.176V12.64h1.472v.7c0,.16.016.176.16.176H30.8c.16,0,.176-.016.176-.176,0-.1-.032-.816-.032-4.8Zm-2.928,6.3V7.728h1.472v3.456ZM29.488,2.96V6.272H28.016V2.96Zm8.72,3.968c1.52,0,2.048.032,2.144.032.176,0,.192-.016.192-.192v-1.1c0-.16-.016-.176-.192-.176-.1,0-.624.032-2.144.032h-1.7V3.872h1.072c1.456,0,1.936.032,2.032.032.16,0,.176-.016.176-.176V2.608c0-.176-.016-.192-.176-.192-.1,0-.576.032-2.032.032H36.512a3.716,3.716,0,0,1,.08-1.2.89.89,0,0,0,.1-.336c0-.08-.1-.144-.256-.16C35.84.688,35.408.656,34.784.64A13.4,13.4,0,0,1,34.9,2.448h-.752c-1.424,0-1.92-.032-2.016-.032-.176,0-.192.016-.192.192v1.12c0,.16.016.176.192.176.1,0,.592-.032,2.016-.032H34.9V5.52H33.744c-1.52,0-2.048-.032-2.144-.032-.176,0-.192.016-.192.176v1.1c0,.176.016.192.192.192.1,0,.624-.032,2.144-.032ZM36.96,9.936V13.12c0,.368-.144.5-.528.5-.528,0-1.008-.016-1.568-.064a3.565,3.565,0,0,1,.48,1.168c.112.48.128.48.608.48a3.692,3.692,0,0,0,2.08-.352,1.488,1.488,0,0,0,.56-1.36c0-.544-.016-1.232-.016-1.968V9.936c1.088.016,1.52.032,1.6.032.176,0,.192-.016.192-.176V8.672c0-.16-.016-.176-.192-.176-.08,0-.512.032-1.6.032a2.029,2.029,0,0,1,.08-.816.539.539,0,0,0,.08-.272c0-.08-.1-.144-.272-.176-.432-.064-1.008-.112-1.616-.144a11.882,11.882,0,0,1,.112,1.408H33.808c-1.52,0-2.032-.032-2.128-.032-.176,0-.192.016-.192.176v1.12c0,.16.016.176.192.176.1,0,.608-.032,2.128-.032Zm-4.32,1.008c-.192.112-.192.16-.08.288A13.4,13.4,0,0,1,33.968,13.2c.048.08.08.112.128.112s.1-.032.192-.1l.976-.672c.16-.112.176-.16.08-.3a12.8,12.8,0,0,0-1.472-1.84c-.128-.112-.176-.112-.336-.016Z" transform="translate(924 967)" fill="#333"/><path d="M12.576,1.744H10.944A9.018,9.018,0,0,1,8.1,3.184l.32,1.68a8.973,8.973,0,0,0,2.256-1.088v8.7h-2.4v1.552h6.592V12.48H12.576Zm4.416,10.544a3.057,3.057,0,0,0,3.216,1.968c2.624,0,4.16-1.9,4.16-6.784,0-4.112-1.552-5.856-3.968-5.856-2.24,0-3.68,1.632-3.68,4.272,0,2.416,1.392,3.936,3.248,3.936a2.626,2.626,0,0,0,2.5-1.456c-.08,3.2-.864,4.352-2.224,4.352-.672,0-1.056-.352-1.28-1.168Zm5.376-5.536a2.116,2.116,0,0,1-1.936,1.536c-1.024,0-1.68-.9-1.68-2.448,0-1.664.544-2.688,1.728-2.688C21.792,3.152,22.352,4.368,22.368,6.752ZM30.944,4.88c0-2.352.032-3.136.032-3.232,0-.16-.016-.176-.176-.176-.112,0-.416.032-1.376.032H28.048c-.96,0-1.264-.032-1.376-.032-.16,0-.176.016-.176.176,0,.1.032.944.032,3.84V8.976c0,4.016-.032,4.832-.032,4.928,0,.16.016.176.176.176h1.184c.144,0,.16-.016.16-.176V12.64h1.472v.7c0,.16.016.176.16.176H30.8c.16,0,.176-.016.176-.176,0-.1-.032-.816-.032-4.8Zm-2.928,6.3V7.728h1.472v3.456ZM29.488,2.96V6.272H28.016V2.96Zm8.72,3.968c1.52,0,2.048.032,2.144.032.176,0,.192-.016.192-.192v-1.1c0-.16-.016-.176-.192-.176-.1,0-.624.032-2.144.032h-1.7V3.872h1.072c1.456,0,1.936.032,2.032.032.16,0,.176-.016.176-.176V2.608c0-.176-.016-.192-.176-.192-.1,0-.576.032-2.032.032H36.512a3.716,3.716,0,0,1,.08-1.2.89.89,0,0,0,.1-.336c0-.08-.1-.144-.256-.16C35.84.688,35.408.656,34.784.64A13.4,13.4,0,0,1,34.9,2.448h-.752c-1.424,0-1.92-.032-2.016-.032-.176,0-.192.016-.192.192v1.12c0,.16.016.176.192.176.1,0,.592-.032,2.016-.032H34.9V5.52H33.744c-1.52,0-2.048-.032-2.144-.032-.176,0-.192.016-.192.176v1.1c0,.176.016.192.192.192.1,0,.624-.032,2.144-.032ZM36.96,9.936V13.12c0,.368-.144.5-.528.5-.528,0-1.008-.016-1.568-.064a3.565,3.565,0,0,1,.48,1.168c.112.48.128.48.608.48a3.692,3.692,0,0,0,2.08-.352,1.488,1.488,0,0,0,.56-1.36c0-.544-.016-1.232-.016-1.968V9.936c1.088.016,1.52.032,1.6.032.176,0,.192-.016.192-.176V8.672c0-.16-.016-.176-.192-.176-.08,0-.512.032-1.6.032a2.029,2.029,0,0,1,.08-.816.539.539,0,0,0,.08-.272c0-.08-.1-.144-.272-.176-.432-.064-1.008-.112-1.616-.144a11.882,11.882,0,0,1,.112,1.408H33.808c-1.52,0-2.032-.032-2.128-.032-.176,0-.192.016-.192.176v1.12c0,.16.016.176.192.176.1,0,.608-.032,2.128-.032Zm-4.32,1.008c-.192.112-.192.16-.08.288A13.4,13.4,0,0,1,33.968,13.2c.048.08.08.112.128.112s.1-.032.192-.1l.976-.672c.16-.112.176-.16.08-.3a12.8,12.8,0,0,0-1.472-1.84c-.128-.112-.176-.112-.336-.016Z" transform="translate(985 967)" fill="#333"/><path d="M9.68,5.408c.1-1.456.72-2.208,1.728-2.208a1.524,1.524,0,0,1,1.6,1.7c0,1.008-.352,1.648-1.952,3.184a15.451,15.451,0,0,0-3.488,4.528v1.424h7.568v-1.6H9.648A11.939,11.939,0,0,1,12.624,9.04C14.5,7.3,15.088,6.272,15.088,4.912c0-2.112-1.456-3.3-3.648-3.3A3.576,3.576,0,0,0,7.68,4.992ZM20.592,1.616c-2.464,0-3.856,1.776-3.856,6.3s1.312,6.336,3.824,6.336c2.5,0,3.872-1.84,3.872-6.368C24.432,3.376,23.056,1.616,20.592,1.616Zm0,1.584c1.28,0,1.776,1.1,1.776,4.7,0,3.584-.512,4.768-1.808,4.768C19.3,12.672,18.8,11.5,18.8,7.9,18.8,4.288,19.344,3.2,20.592,3.2ZM30.944,4.88c0-2.352.032-3.136.032-3.232,0-.16-.016-.176-.176-.176-.112,0-.416.032-1.376.032H28.048c-.96,0-1.264-.032-1.376-.032-.16,0-.176.016-.176.176,0,.1.032.944.032,3.84V8.976c0,4.016-.032,4.832-.032,4.928,0,.16.016.176.176.176h1.184c.144,0,.16-.016.16-.176V12.64h1.472v.7c0,.16.016.176.16.176H30.8c.16,0,.176-.016.176-.176,0-.1-.032-.816-.032-4.8Zm-2.928,6.3V7.728h1.472v3.456ZM29.488,2.96V6.272H28.016V2.96Zm8.72,3.968c1.52,0,2.048.032,2.144.032.176,0,.192-.016.192-.192v-1.1c0-.16-.016-.176-.192-.176-.1,0-.624.032-2.144.032h-1.7V3.872h1.072c1.456,0,1.936.032,2.032.032.16,0,.176-.016.176-.176V2.608c0-.176-.016-.192-.176-.192-.1,0-.576.032-2.032.032H36.512a3.716,3.716,0,0,1,.08-1.2.89.89,0,0,0,.1-.336c0-.08-.1-.144-.256-.16C35.84.688,35.408.656,34.784.64A13.4,13.4,0,0,1,34.9,2.448h-.752c-1.424,0-1.92-.032-2.016-.032-.176,0-.192.016-.192.192v1.12c0,.16.016.176.192.176.1,0,.592-.032,2.016-.032H34.9V5.52H33.744c-1.52,0-2.048-.032-2.144-.032-.176,0-.192.016-.192.176v1.1c0,.176.016.192.192.192.1,0,.624-.032,2.144-.032ZM36.96,9.936V13.12c0,.368-.144.5-.528.5-.528,0-1.008-.016-1.568-.064a3.565,3.565,0,0,1,.48,1.168c.112.48.128.48.608.48a3.692,3.692,0,0,0,2.08-.352,1.488,1.488,0,0,0,.56-1.36c0-.544-.016-1.232-.016-1.968V9.936c1.088.016,1.52.032,1.6.032.176,0,.192-.016.192-.176V8.672c0-.16-.016-.176-.192-.176-.08,0-.512.032-1.6.032a2.029,2.029,0,0,1,.08-.816.539.539,0,0,0,.08-.272c0-.08-.1-.144-.272-.176-.432-.064-1.008-.112-1.616-.144a11.882,11.882,0,0,1,.112,1.408H33.808c-1.52,0-2.032-.032-2.128-.032-.176,0-.192.016-.192.176v1.12c0,.16.016.176.192.176.1,0,.608-.032,2.128-.032Zm-4.32,1.008c-.192.112-.192.16-.08.288A13.4,13.4,0,0,1,33.968,13.2c.048.08.08.112.128.112s.1-.032.192-.1l.976-.672c.16-.112.176-.16.08-.3a12.8,12.8,0,0,0-1.472-1.84c-.128-.112-.176-.112-.336-.016Z" transform="translate(1058 967)" fill="#333"/><path d="M9.68,5.408c.1-1.456.72-2.208,1.728-2.208a1.524,1.524,0,0,1,1.6,1.7c0,1.008-.352,1.648-1.952,3.184a15.451,15.451,0,0,0-3.488,4.528v1.424h7.568v-1.6H9.648A11.939,11.939,0,0,1,12.624,9.04C14.5,7.3,15.088,6.272,15.088,4.912c0-2.112-1.456-3.3-3.648-3.3A3.576,3.576,0,0,0,7.68,4.992ZM21.744,1.744H20.112a9.018,9.018,0,0,1-2.848,1.44l.32,1.68A8.973,8.973,0,0,0,19.84,3.776v8.7h-2.4v1.552h6.592V12.48H21.744Zm9.2,3.136c0-2.352.032-3.136.032-3.232,0-.16-.016-.176-.176-.176-.112,0-.416.032-1.376.032H28.048c-.96,0-1.264-.032-1.376-.032-.16,0-.176.016-.176.176,0,.1.032.944.032,3.84V8.976c0,4.016-.032,4.832-.032,4.928,0,.16.016.176.176.176h1.184c.144,0,.16-.016.16-.176V12.64h1.472v.7c0,.16.016.176.16.176H30.8c.16,0,.176-.016.176-.176,0-.1-.032-.816-.032-4.8Zm-2.928,6.3V7.728h1.472v3.456ZM29.488,2.96V6.272H28.016V2.96Zm8.72,3.968c1.52,0,2.048.032,2.144.032.176,0,.192-.016.192-.192v-1.1c0-.16-.016-.176-.192-.176-.1,0-.624.032-2.144.032h-1.7V3.872h1.072c1.456,0,1.936.032,2.032.032.16,0,.176-.016.176-.176V2.608c0-.176-.016-.192-.176-.192-.1,0-.576.032-2.032.032H36.512a3.716,3.716,0,0,1,.08-1.2.89.89,0,0,0,.1-.336c0-.08-.1-.144-.256-.16C35.84.688,35.408.656,34.784.64A13.4,13.4,0,0,1,34.9,2.448h-.752c-1.424,0-1.92-.032-2.016-.032-.176,0-.192.016-.192.192v1.12c0,.16.016.176.192.176.1,0,.592-.032,2.016-.032H34.9V5.52H33.744c-1.52,0-2.048-.032-2.144-.032-.176,0-.192.016-.192.176v1.1c0,.176.016.192.192.192.1,0,.624-.032,2.144-.032ZM36.96,9.936V13.12c0,.368-.144.5-.528.5-.528,0-1.008-.016-1.568-.064a3.565,3.565,0,0,1,.48,1.168c.112.48.128.48.608.48a3.692,3.692,0,0,0,2.08-.352,1.488,1.488,0,0,0,.56-1.36c0-.544-.016-1.232-.016-1.968V9.936c1.088.016,1.52.032,1.6.032.176,0,.192-.016.192-.176V8.672c0-.16-.016-.176-.192-.176-.08,0-.512.032-1.6.032a2.029,2.029,0,0,1,.08-.816.539.539,0,0,0,.08-.272c0-.08-.1-.144-.272-.176-.432-.064-1.008-.112-1.616-.144a11.882,11.882,0,0,1,.112,1.408H33.808c-1.52,0-2.032-.032-2.128-.032-.176,0-.192.016-.192.176v1.12c0,.16.016.176.192.176.1,0,.608-.032,2.128-.032Zm-4.32,1.008c-.192.112-.192.16-.08.288A13.4,13.4,0,0,1,33.968,13.2c.048.08.08.112.128.112s.1-.032.192-.1l.976-.672c.16-.112.176-.16.08-.3a12.8,12.8,0,0,0-1.472-1.84c-.128-.112-.176-.112-.336-.016Z" transform="translate(1114 967)" fill="#333"/><path d="M9.68,5.408c.1-1.456.72-2.208,1.728-2.208a1.524,1.524,0,0,1,1.6,1.7c0,1.008-.352,1.648-1.952,3.184a15.451,15.451,0,0,0-3.488,4.528v1.424h7.568v-1.6H9.648A11.939,11.939,0,0,1,12.624,9.04C14.5,7.3,15.088,6.272,15.088,4.912c0-2.112-1.456-3.3-3.648-3.3A3.576,3.576,0,0,0,7.68,4.992Zm9.168,0c.1-1.456.72-2.208,1.728-2.208a1.524,1.524,0,0,1,1.6,1.7c0,1.008-.352,1.648-1.952,3.184a15.451,15.451,0,0,0-3.488,4.528v1.424H24.3v-1.6H18.816A11.939,11.939,0,0,1,21.792,9.04c1.872-1.744,2.464-2.768,2.464-4.128,0-2.112-1.456-3.3-3.648-3.3a3.576,3.576,0,0,0-3.76,3.376Zm12.1-.528c0-2.352.032-3.136.032-3.232,0-.16-.016-.176-.176-.176-.112,0-.416.032-1.376.032H28.048c-.96,0-1.264-.032-1.376-.032-.16,0-.176.016-.176.176,0,.1.032.944.032,3.84V8.976c0,4.016-.032,4.832-.032,4.928,0,.16.016.176.176.176h1.184c.144,0,.16-.016.16-.176V12.64h1.472v.7c0,.16.016.176.16.176H30.8c.16,0,.176-.016.176-.176,0-.1-.032-.816-.032-4.8Zm-2.928,6.3V7.728h1.472v3.456ZM29.488,2.96V6.272H28.016V2.96Zm8.72,3.968c1.52,0,2.048.032,2.144.032.176,0,.192-.016.192-.192v-1.1c0-.16-.016-.176-.192-.176-.1,0-.624.032-2.144.032h-1.7V3.872h1.072c1.456,0,1.936.032,2.032.032.16,0,.176-.016.176-.176V2.608c0-.176-.016-.192-.176-.192-.1,0-.576.032-2.032.032H36.512a3.716,3.716,0,0,1,.08-1.2.89.89,0,0,0,.1-.336c0-.08-.1-.144-.256-.16C35.84.688,35.408.656,34.784.64A13.4,13.4,0,0,1,34.9,2.448h-.752c-1.424,0-1.92-.032-2.016-.032-.176,0-.192.016-.192.192v1.12c0,.16.016.176.192.176.1,0,.592-.032,2.016-.032H34.9V5.52H33.744c-1.52,0-2.048-.032-2.144-.032-.176,0-.192.016-.192.176v1.1c0,.176.016.192.192.192.1,0,.624-.032,2.144-.032ZM36.96,9.936V13.12c0,.368-.144.5-.528.5-.528,0-1.008-.016-1.568-.064a3.565,3.565,0,0,1,.48,1.168c.112.48.128.48.608.48a3.692,3.692,0,0,0,2.08-.352,1.488,1.488,0,0,0,.56-1.36c0-.544-.016-1.232-.016-1.968V9.936c1.088.016,1.52.032,1.6.032.176,0,.192-.016.192-.176V8.672c0-.16-.016-.176-.192-.176-.08,0-.512.032-1.6.032a2.029,2.029,0,0,1,.08-.816.539.539,0,0,0,.08-.272c0-.08-.1-.144-.272-.176-.432-.064-1.008-.112-1.616-.144a11.882,11.882,0,0,1,.112,1.408H33.808c-1.52,0-2.032-.032-2.128-.032-.176,0-.192.016-.192.176v1.12c0,.16.016.176.192.176.1,0,.608-.032,2.128-.032Zm-4.32,1.008c-.192.112-.192.16-.08.288A13.4,13.4,0,0,1,33.968,13.2c.048.08.08.112.128.112s.1-.032.192-.1l.976-.672c.16-.112.176-.16.08-.3a12.8,12.8,0,0,0-1.472-1.84c-.128-.112-.176-.112-.336-.016Z" transform="translate(1170 967)" fill="#333"/><path d="M3700,8894.719v269.91" transform="translate(-3361.5 -7892.719)" fill="none" stroke="#707070" stroke-width="1" stroke-dasharray="2 2"/><path d="M3700,8894.719V9165" transform="translate(-3300.5 -7892)" fill="#fff" stroke="#707070" stroke-width="1"/><path d="M3700,8894.719V9165" transform="translate(-3239.5 -7893)" fill="none" stroke="#707070" stroke-width="1" stroke-dasharray="2 2"/><path d="M3700,8894.719V9165" transform="translate(-3178.5 -7892)" fill="none" stroke="#707070" stroke-width="1" stroke-dasharray="2 2"/><path d="M3700,8894.719V9165" transform="translate(-3117.5 -7892)" fill="none" stroke="#707070" stroke-width="1" stroke-dasharray="2 2"/><path d="M3700,8894.719V9165" transform="translate(-3056.5 -7892)" fill="none" stroke="#707070" stroke-width="1" stroke-dasharray="2 2"/><path d="M3700,8894.719V9165" transform="translate(-2995.5 -7892)" fill="none" stroke="#707070" stroke-width="1" stroke-dasharray="2 2"/><path d="M3700,8894.719V9165" transform="translate(-2934.5 -7892)" fill="none" stroke="#707070" stroke-width="1" stroke-dasharray="2 2"/><path d="M3700,8894.719V9165" transform="translate(-2874.5 -7892)" fill="none" stroke="#707070" stroke-width="1" stroke-dasharray="2 2"/><path d="M3700,8894.719V9165" transform="translate(-2813.5 -7892)" fill="none" stroke="#707070" stroke-width="1" stroke-dasharray="2 2"/><path d="M3700,8894.719V9165" transform="translate(-2752.5 -7892)" fill="none" stroke="#707070" stroke-width="1" stroke-dasharray="2 2"/><path d="M3700,8894.719V9165" transform="translate(-2691.5 -7892)" fill="none" stroke="#707070" stroke-width="1" stroke-dasharray="2 2"/><path d="M3700,8894.719V9165" transform="translate(-2630.5 -7892)" fill="none" stroke="#707070" stroke-width="1" stroke-dasharray="2 2"/><path d="M3700,8894.719V9165" transform="translate(-2508.5 -7892)" fill="none" stroke="#707070" stroke-width="1" stroke-dasharray="2 2"/><path d="M3700,8894.719V9165" transform="translate(-2569.5 -7892)" fill="none" stroke="#707070" stroke-width="1"/><g transform="translate(413 1223)"><rect width="148" height="36" transform="translate(6 -6)" fill="#f5fcf4"/><path d="M-54.208-8.432a28.949,28.949,0,0,0,2-2.208,3.861,3.861,0,0,1,.9-.848.258.258,0,0,0,.064-.448,4.881,4.881,0,0,0-1.1-.72,5,5,0,0,1-1.1,1.808,26.925,26.925,0,0,1-3.1,3.088,29.494,29.494,0,0,1-4.976,3.376,2.862,2.862,0,0,1,.8.512.275.275,0,0,0,.368.064,30.5,30.5,0,0,0,5.024-3.616v4.736c0,.928-.032,1.888-.064,2.848,0,.144.032.192.16.192a8.977,8.977,0,0,0,.928,0c.128,0,.176-.048.16-.192-.032-1.024-.048-1.936-.048-2.9Zm7.264,3.488a8.294,8.294,0,0,0,.928.848.22.22,0,0,0,.368-.064,5.992,5.992,0,0,1,.688-.864c1.088-1.168,1.968-2.1,2.688-2.816a.4.4,0,0,1,.3-.144.536.536,0,0,1,.32.176c2.256,1.872,4.7,3.7,7.248,5.44.128.1.208.064.288-.048a4.986,4.986,0,0,0,.5-.8.2.2,0,0,0-.1-.3,60.592,60.592,0,0,1-7.344-5.248,1.405,1.405,0,0,0-.976-.432c-.336,0-.56.128-.944.512-.864.88-1.712,1.744-2.272,2.3A11.423,11.423,0,0,1-46.944-4.944Zm8.464-5.136a6.908,6.908,0,0,1,1.856,2.048A.128.128,0,0,0-36.416-8l.464-.384a.116.116,0,0,0,.032-.176A7.764,7.764,0,0,0-37.728-10.5a.13.13,0,0,0-.192,0Zm1.408-1.072a7.642,7.642,0,0,1,1.84,2c.064.1.128.1.192.032l.432-.384c.08-.064.1-.112.048-.192a9.2,9.2,0,0,0-1.824-1.872c-.064-.048-.112-.032-.176.016Zm7.36,1.072a16.612,16.612,0,0,1,3.04,2.368c.112.112.16.1.256-.016a6.456,6.456,0,0,0,.544-.688c.08-.128.064-.192-.048-.3a14.761,14.761,0,0,0-2.88-2.128.193.193,0,0,0-.288.032C-29.264-10.624-29.5-10.336-29.712-10.08Zm.384,8.4a6.006,6.006,0,0,0,.784,1.088.262.262,0,0,0,.432.016,5.964,5.964,0,0,1,.88-.624,33.228,33.228,0,0,0,4.8-3.12A29.537,29.537,0,0,0-18.544-8c.192-.224.208-.352.112-.56A4.789,4.789,0,0,1-18.7-9.616a24.97,24.97,0,0,1-4.32,4.3,27.159,27.159,0,0,1-4.624,2.976A8.926,8.926,0,0,1-29.328-1.68Zm20.144-8.528a6.681,6.681,0,0,1,.112-1.776c.08-.24.144-.416-.112-.48a6.6,6.6,0,0,0-1.328-.208,13.535,13.535,0,0,1,.176,2.56v7.12c0,.976-.016,2.224-.064,3.248,0,.176.048.224.224.224a6.941,6.941,0,0,0,.816,0c.176,0,.224-.048.208-.208C-9.168-.768-9.2-2.016-9.2-2.992V-6.7A17.751,17.751,0,0,1-4.544-4.56c.144.1.208.064.3-.064a5.119,5.119,0,0,0,.384-.784c.048-.112.016-.192-.112-.256A22.566,22.566,0,0,0-9.184-7.888ZM14.544-.432c0-.112-.016-.128-.128-.128-.064,0-.592.032-2.112.032H10.288V-2.1h1.264c1.44,0,1.936.032,2.016.032.112,0,.128-.016.128-.128v-.544c0-.112-.016-.128-.128-.128-.08,0-.576.032-2.016.032H10.288V-4.3h1.264c1.44,0,1.92.032,2,.032.112,0,.128-.016.128-.128v-.544c0-.1-.016-.112-.128-.112-.08,0-.56.016-2,.016H10.288V-6.512h1.76c1.472,0,1.968.032,2.048.032.112,0,.128-.016.128-.128v-.56c0-.112-.016-.128-.128-.128-.08,0-.576.032-2.048.032H10.336a9.206,9.206,0,0,0,.464-.9.756.756,0,0,1,.256-.32.233.233,0,0,0,.112-.208c0-.048-.064-.112-.176-.16a8.285,8.285,0,0,0-.864-.24,3.8,3.8,0,0,1-.24.832,7.16,7.16,0,0,1-.5.992H6.5l.24-.432a3.034,3.034,0,0,1,.512-.752c.08-.064.16-.128.16-.208,0-.064-.048-.128-.16-.176a5.935,5.935,0,0,0-.864-.3A4.186,4.186,0,0,1,5.952-8a11.3,11.3,0,0,1-2.5,3.184,1.649,1.649,0,0,1,.432.448c.064.1.112.144.16.144.064,0,.128-.048.24-.144A11.668,11.668,0,0,0,5.52-5.76C5.5-5.328,5.5-4.912,5.5-4.5V-.768c0,1.232-.032,1.7-.032,1.776,0,.112.016.128.128.128h.672c.112,0,.128-.016.128-.128V.24h5.9c1.52,0,2.048.032,2.112.032.112,0,.128-.016.128-.128Zm-5.136-.1H6.4V-2.1H9.408Zm0-4.512H6.4V-6.512H9.408Zm0,2.208H6.4V-4.3H9.408ZM2.128-1.52C2.128.176,2.1.9,2.1.992c0,.112.016.128.128.128h.752c.1,0,.112-.016.112-.128,0-.08-.032-.816-.032-2.512V-9.584c.368-.768.7-1.552,1.008-2.384a1.791,1.791,0,0,1,.3-.592c.08-.08.144-.144.144-.224s-.048-.144-.16-.192a6.181,6.181,0,0,0-.96-.336,5.046,5.046,0,0,1-.24,1.072A15.89,15.89,0,0,1-.032-6.576a2.021,2.021,0,0,1,.384.64c.048.1.08.16.128.16s.1-.064.192-.176A17.175,17.175,0,0,0,2.16-7.968c-.016.768-.032,1.68-.032,2.288ZM12.96-10.288H9.872V-11.44a4.442,4.442,0,0,1,.064-1.136.682.682,0,0,0,.1-.288c0-.064-.064-.112-.176-.128-.24-.032-.608-.064-.992-.08a7.1,7.1,0,0,1,.1,1.632v1.152H6.016v-.848a2.022,2.022,0,0,1,.064-.672.617.617,0,0,0,.1-.288c0-.048-.064-.112-.176-.128a8.861,8.861,0,0,0-.96-.1A6.776,6.776,0,0,1,5.1-11.232v.576c0,.688-.032.96-.032,1.056,0,.112.016.128.128.128.1,0,.64-.032,2.208-.032H11.6c1.552,0,2.1.032,2.192.032.112,0,.128-.016.128-.128,0-.08-.032-.368-.032-1.056v-.56a1.613,1.613,0,0,1,.1-.72.387.387,0,0,0,.064-.208c0-.08-.064-.128-.176-.144a8.313,8.313,0,0,0-1.008-.1,4.8,4.8,0,0,1,.1,1.184Zm17.9,2.176c0-.112-.016-.128-.128-.128-.08,0-.608.032-2.176.032H24.176c-1.568,0-2.1-.032-2.192-.032-.112,0-.128.016-.128.128v.7c0,.112.016.128.128.128.1,0,.624-.032,2.192-.032h2.9V-.688c0,.512-.176.608-.848.608-.592,0-1.008-.016-1.536-.064a2.285,2.285,0,0,1,.336.72c.08.336.08.336.4.336,1.488,0,1.936-.08,2.224-.3.32-.256.448-.592.432-1.28,0-.576-.032-1.344-.032-2.944v-3.7h.512c1.568,0,2.1.032,2.176.032.112,0,.128-.016.128-.128ZM19.04-1.072c0,1.392-.032,1.984-.032,2.064,0,.112.016.128.128.128H19.9c.112,0,.128-.016.128-.128C20.032.912,20,.32,20-1.072V-7.1c.32-.416.608-.848.9-1.3a1.2,1.2,0,0,1,.352-.384.242.242,0,0,0,.112-.176c0-.08-.032-.128-.144-.208a5.711,5.711,0,0,0-.832-.464,3.207,3.207,0,0,1-.336.768,14.223,14.223,0,0,1-3.5,3.888,1.828,1.828,0,0,1,.416.56c.064.128.112.192.16.192s.112-.048.224-.144a17.059,17.059,0,0,0,1.728-1.648c-.016.608-.032,1.44-.032,2.08Zm10.992-10.96c0-.112-.016-.128-.128-.128-.1,0-.528.032-1.984.032H24.912c-1.44,0-1.888-.032-1.968-.032-.112,0-.128.016-.128.128v.7c0,.112.016.128.128.128.08,0,.528-.032,1.968-.032H27.92c1.456,0,1.888.032,1.984.032.112,0,.128-.016.128-.128ZM21.28-12.56c0-.08-.048-.128-.144-.192a4.7,4.7,0,0,0-.88-.48,2.372,2.372,0,0,1-.352.7,12.565,12.565,0,0,1-3.232,2.96,1.948,1.948,0,0,1,.464.5c.1.16.16.224.224.224a.363.363,0,0,0,.224-.112,15.556,15.556,0,0,0,3.12-2.976,2.037,2.037,0,0,1,.384-.416C21.2-12.416,21.28-12.48,21.28-12.56ZM37.088-8.976c0-2.464.032-3.152.032-3.232,0-.112-.016-.128-.128-.128-.1,0-.368.032-1.28.032h-1.1c-.912,0-1.184-.032-1.28-.032-.112,0-.128.016-.128.128,0,.08.032.816.032,3.744v3.152c0,4.128-.032,4.848-.032,4.928,0,.112.016.128.128.128H34c.112,0,.128-.016.128-.128V-1.712h2.08v.8c0,.112.016.128.128.128h.656c.112,0,.128-.016.128-.128,0-.08-.032-.736-.032-4.736Zm-.88,6.416h-2.08V-6.7h2.08Zm0-4.976h-2.08v-3.92h2.08ZM46.816-8.1c0-.112-.016-.128-.128-.128-.1,0-.624.032-2.208.032H42.368V-10.32h1.456c1.472,0,1.952.032,2.048.032.112,0,.128-.016.128-.128v-.64c0-.128-.016-.144-.128-.144-.1,0-.576.032-2.048.032H42.368a5.835,5.835,0,0,1,.1-1.536,1.329,1.329,0,0,0,.08-.288c0-.08-.08-.128-.192-.144a9.2,9.2,0,0,0-1.04-.08,10.862,10.862,0,0,1,.112,2.048h-.992c-1.472,0-1.968-.032-2.048-.032-.128,0-.144.016-.144.144v.64c0,.112.016.128.144.128.08,0,.576-.032,2.048-.032h.992v2.128H39.936c-1.568,0-2.1-.032-2.192-.032-.112,0-.128.016-.128.128v.656c0,.112.016.128.128.128.1,0,.624-.032,2.192-.032H44.48c1.584,0,2.112.032,2.208.032.112,0,.128-.016.128-.128Zm-.192,2.848c0-.112-.016-.112-.128-.112-.08,0-.592.016-1.92.016v-.08a3.586,3.586,0,0,1,.08-1.136.558.558,0,0,0,.1-.272c0-.048-.08-.112-.208-.128a7.384,7.384,0,0,0-1.024-.112,8.183,8.183,0,0,1,.112,1.7v.032H40.016c-1.568,0-2.1-.016-2.176-.016-.112,0-.128,0-.128.112v.656c0,.112.016.128.128.128.08,0,.608-.032,2.176-.032h3.616V-.48c0,.448-.224.592-.56.592-.528,0-1.024-.016-1.5-.064a2.134,2.134,0,0,1,.32.72c.08.3.1.3.4.3,1.152,0,1.584-.08,1.856-.272a1.169,1.169,0,0,0,.448-1.072c0-.64-.016-1.328-.016-2.048V-4.5c1.344,0,1.84.032,1.92.032.112,0,.128-.016.128-.128Zm-7.44,1.92c-.16.1-.192.144-.1.24a9.443,9.443,0,0,1,1.536,2c.064.112.112.08.272-.032l.432-.288c.128-.1.144-.144.08-.24a9.305,9.305,0,0,0-1.584-1.936c-.1-.08-.128-.064-.256.016Zm22.784-6.928c0-1.552.032-2.192.032-2.288,0-.112-.016-.128-.128-.128-.08,0-.5.032-1.728.032H58.112c-1.248,0-1.648-.032-1.728-.032-.128,0-.144.016-.144.128,0,.1.032.4.032,1.376v1.92c0,.992-.032,1.3-.032,1.376,0,.112.016.128.144.128.08,0,.48-.032,1.728-.032h2.912v6.9c0,.64-.144.768-.848.768a10.235,10.235,0,0,1-1.232-.064,2.391,2.391,0,0,1,.288.7c.08.3.08.3.368.3,1.28,0,1.7-.064,2-.32.3-.24.416-.512.416-1.216,0-.608-.048-1.44-.048-2.288Zm-.944,1.712h-3.84v-1.3h3.84Zm0-2.064h-3.84v-1.248h3.84Zm-6.32-.464c0-.976.032-1.376.032-1.472,0-.112-.016-.128-.128-.128-.08,0-.48.032-1.6.032H51.136c-1.184,0-1.712-.032-1.808-.032-.112,0-.128.016-.128.128,0,.1.032,1.072.032,3.36v6.768C49.232-.128,49.2.816,49.2.912c0,.112.016.128.128.128h.752c.112,0,.128-.016.128-.128,0-.1-.032-1.04-.032-3.328v-5.36h2.832c1.12,0,1.52.032,1.6.032.112,0,.128-.016.128-.128,0-.08-.032-.48-.032-1.472Zm-.912,2.528H50.176v-1.3h3.616Zm0-2.064H50.176v-1.248h3.616ZM58.208-4.72c0-1.12.032-1.536.032-1.616,0-.112-.016-.128-.128-.128-.1,0-.48.032-1.664.032H54.592c-1.2,0-1.568-.032-1.664-.032-.112,0-.128.016-.128.128,0,.1.032.512.032,1.856v1.344C52.832-.784,52.8-.4,52.8-.32c0,.128.016.144.128.144h.656c.112,0,.128-.016.128-.144v-.832h3.616V-.48c0,.112.016.128.128.128h.656c.112,0,.128-.016.128-.128,0-.08-.032-.464-.032-2.768Zm-.88,2.8H53.712V-3.456h3.616Zm0-2.288H53.712V-5.664h3.616Z" transform="translate(80 18)" fill="#333"/></g><rect width="306" height="30" transform="translate(338 1083)" fill="#60ac56"/><path d="M19.7,9.344v3.232c0,1.616-.032,2.416-.032,2.512,0,.16.016.176.16.176h1.488c.144,0,.16-.016.16-.176,0-.08-.032-.9-.032-2.512V9.344H25.4c1.44,0,1.92.032,2.016.032.16,0,.176-.016.176-.176V7.856c0-.16-.016-.176-.176-.176-.1,0-.576.032-2.016.032H21.444V4.576H24c1.568,0,2.1.032,2.192.032.16,0,.176-.016.176-.176v-1.3c0-.16-.016-.176-.176-.176-.1,0-.624.032-2.192.032H17.972q.24-.456.432-.912a1.3,1.3,0,0,1,.368-.624.4.4,0,0,0,.176-.3c0-.144-.128-.208-.336-.272-.432-.128-.928-.24-1.52-.352a6.33,6.33,0,0,1-.368,1.184,11.009,11.009,0,0,1-2.784,3.92,3.159,3.159,0,0,1,.912.816c.176.208.272.3.368.3.08,0,.176-.08.336-.256a14.3,14.3,0,0,0,1.52-1.92H19.7V7.712H15.668c-1.424,0-1.92-.032-2.016-.032-.16,0-.176.016-.176.176V9.2c0,.16.016.176.176.176.1,0,.592-.032,2.016-.032ZM36.212,7.872c0-1.424.032-2.16.032-2.256,0-.144-.016-.16-.176-.16-.1,0-.48.032-1.664.032H32.388c-1.184,0-1.568-.032-1.68-.032-.16,0-.176.016-.176.16,0,.112.032.752.032,2.128v5.28c0,1.376-.032,1.984-.032,2.08,0,.16.016.176.176.176h1.28c.16,0,.176-.016.176-.176,0-.08-.032-.72-.032-2.032v-1.12h2.56V13.28c0,.32-.1.416-.528.416-.416,0-.64-.016-1.072-.048a2.968,2.968,0,0,1,.368,1.024c.08.5.08.48.592.48,1.168-.016,1.568-.128,1.808-.336.336-.288.384-.72.384-1.328,0-.48-.032-1.328-.032-2.144Zm-4.08,2.8V9.44h2.56v1.232Zm2.56-3.76V8.144h-2.56V6.912Zm6.752-2.528c1.424,0,1.92.032,2.016.032.16,0,.176-.016.176-.192V3.008c0-.16-.016-.176-.176-.176-.1,0-.592.032-2.016.032H39.332c.256-.336.48-.656.656-.928a1.771,1.771,0,0,1,.432-.56c.08-.064.144-.128.144-.208,0-.112-.08-.16-.224-.224a15.217,15.217,0,0,0-1.6-.432,3.541,3.541,0,0,1-.3.8,16.553,16.553,0,0,1-.976,1.552h-3.6l1.008-.4c.24-.1.24-.112.176-.256A8.167,8.167,0,0,0,34.116.672C34.02.528,34,.528,33.78.608l-1.088.416c-.176.08-.208.112-.112.256a10.672,10.672,0,0,1,.9,1.584H31.588c-1.408,0-1.9-.032-2-.032-.16,0-.176.016-.176.176V4.224c0,.176.016.192.176.192.1,0,.592-.032,2-.032Zm1.008,3.04a5.133,5.133,0,0,1,.1-1.536.836.836,0,0,0,.112-.336c0-.08-.1-.16-.256-.176-.544-.064-1.056-.1-1.648-.112a13.209,13.209,0,0,1,.128,2.16v5.52c0,.512-.192.624-.688.624a13.169,13.169,0,0,1-1.616-.08,3.211,3.211,0,0,1,.432,1.12c.112.512.112.5.608.5,1.44,0,1.872-.08,2.3-.352.416-.272.56-.672.56-1.456,0-.8-.032-1.648-.032-2.784Zm-4.72,2.592c0,1.072-.032,1.568-.032,1.68,0,.16.016.16.176.16H39.14c.16,0,.176,0,.176-.16,0-.1-.032-.608-.032-1.68V8.128a7.392,7.392,0,0,1,.064-1.584,1.384,1.384,0,0,0,.1-.368c0-.1-.064-.16-.224-.176-.544-.064-1.024-.112-1.6-.128a16.465,16.465,0,0,1,.112,2.272ZM53.588,4.192A3.634,3.634,0,0,1,57.172,7.9c0,3.024-2.128,4.144-4.832,4.784A3.393,3.393,0,0,1,53.46,13.7c.208.32.352.384.688.288,3.248-.976,4.928-2.848,4.928-5.824,0-3.184-2.256-5.552-6.1-5.552a7,7,0,0,0-5.2,2.048,5.9,5.9,0,0,0-1.808,4.16c0,2.608,1.424,4.112,2.832,4.112a3.039,3.039,0,0,0,2.72-1.84,20.035,20.035,0,0,0,2-6.9Zm-1.92.1a18.281,18.281,0,0,1-1.7,5.728c-.432.768-.784.976-1.2.976-.5,0-1.088-.816-1.088-2.288a4.607,4.607,0,0,1,1.248-2.96A4.819,4.819,0,0,1,51.668,4.288Zm19.68,3.744a13.267,13.267,0,0,0-3.1-.8c.48-1.152.928-2.4,1.344-3.488a2.175,2.175,0,0,1,.432-.832.412.412,0,0,0,.16-.272.384.384,0,0,0-.144-.272,5.347,5.347,0,0,0-1.088-.88.367.367,0,0,0-.224-.064.352.352,0,0,0-.208.064,1.845,1.845,0,0,1-.784.272,17.856,17.856,0,0,1-2.48.208,5.962,5.962,0,0,1-1.408-.1,9.7,9.7,0,0,0,.464,1.744.26.26,0,0,0,.256.176.842.842,0,0,0,.288-.064,3.359,3.359,0,0,1,.72-.176c.528-.064,1.328-.16,2.208-.256-.4,1.344-.8,2.464-1.328,3.792-2.672,0-4.72,1.552-4.72,3.536a1.934,1.934,0,0,0,1.9,2.192,2.626,2.626,0,0,0,2.048-.88,11.1,11.1,0,0,0,1.952-3.2,10.819,10.819,0,0,1,3.168.976,8.831,8.831,0,0,1-3.584,4.336,3.3,3.3,0,0,1,1.392.656.437.437,0,0,0,.24.112c.1,0,.176-.064.32-.176A9.821,9.821,0,0,0,72.4,10.432a13,13,0,0,1,2.1,1.5.3.3,0,0,0,.192.112c.048,0,.1-.032.144-.112a13.787,13.787,0,0,0,.688-1.376c.048-.16.064-.24-.1-.336a18.515,18.515,0,0,0-2.5-1.536c.16-.688.32-1.392.448-2.064A2.692,2.692,0,0,1,73.636,6a.3.3,0,0,0-.112-.432,6.9,6.9,0,0,0-1.856-.688,5.006,5.006,0,0,1,.016,1.088A15.827,15.827,0,0,1,71.348,8.032Zm-5.456.576a10.937,10.937,0,0,1-1.168,1.952,1.292,1.292,0,0,1-.928.608c-.384,0-.56-.224-.56-.736C63.236,9.52,64.26,8.672,65.892,8.608Z" transform="translate(447 1090)" fill="#fff"/><path d="M0,0H854V30H0Z" transform="translate(338 1033)" fill="#60ac56"/><path d="M37.508,1.216c.112-.08.16-.144.16-.24,0-.112-.08-.192-.288-.24A11.126,11.126,0,0,0,35.7.4a5.037,5.037,0,0,1-.608,1.152A13.819,13.819,0,0,1,28.9,6.384a3.342,3.342,0,0,1,.736,1.056c.128.288.192.4.3.4a1.357,1.357,0,0,0,.4-.144,19.236,19.236,0,0,0,1.952-1.1v1.04c0,.16.016.176.176.176.1,0,.592-.032,2.064-.032h1.024V9.568H33.94c-1.552,0-2.08-.032-2.176-.032-.16,0-.176.016-.176.176v1.216c0,.16.016.176.176.176.1,0,.624-.032,2.176-.032h1.616v1.952H31.94c-1.472,0-1.984-.032-2.08-.032-.16,0-.176.016-.176.176v1.248c0,.16.016.176.176.176.1,0,.608-.032,2.08-.032h9.136c1.456,0,1.968.032,2.064.032.16,0,.176-.016.176-.176V13.168c0-.16-.016-.176-.176-.176-.1,0-.608.032-2.064.032H37.268V11.072h1.824c1.552,0,2.08.032,2.176.032.176,0,.192-.016.192-.176V9.712c0-.16-.016-.176-.192-.176-.1,0-.624.032-2.176.032H37.268V7.776H38.4c1.472,0,1.984.032,2.08.032.144,0,.16-.016.16-.176V6.464A18.859,18.859,0,0,0,42.836,7.6a1.49,1.49,0,0,0,.384.144c.128,0,.176-.128.288-.416A4.178,4.178,0,0,1,44.2,6.112a14.116,14.116,0,0,1-6.848-4.768ZM34.532,6.272c-.928,0-1.456,0-1.744-.016a15.121,15.121,0,0,0,3.68-3.6,14,14,0,0,0,3.84,3.6c-.256,0-.8.016-1.9.016ZM48.98,15.008c.16,0,.176-.016.176-.176v-.864h6.7v.784c0,.16.016.176.176.176H57.46c.16,0,.176-.016.176-.176,0-.1-.032-1.04-.032-5.632V5.568c0-2.624.032-3.6.032-3.7,0-.176-.016-.192-.176-.192-.1,0-.656.032-2.208.032H49.764c-1.552,0-2.1-.032-2.208-.032-.16,0-.176.016-.176.192,0,.1.032,1.072.032,4.176V9.136c0,4.64-.032,5.584-.032,5.7,0,.16.016.176.176.176Zm.176-2.624V8.512h6.7v3.872Zm0-9.088h6.7V6.944h-6.7Z" transform="translate(721 1040)" fill="#fff"/><path d="M0,0H273V30H0Z" transform="translate(644 1133)" fill="#60ac56"/><path d="M19.7,9.344v3.232c0,1.616-.032,2.416-.032,2.512,0,.16.016.176.16.176h1.488c.144,0,.16-.016.16-.176,0-.08-.032-.9-.032-2.512V9.344H25.4c1.44,0,1.92.032,2.016.032.16,0,.176-.016.176-.176V7.856c0-.16-.016-.176-.176-.176-.1,0-.576.032-2.016.032H21.444V4.576H24c1.568,0,2.1.032,2.192.032.16,0,.176-.016.176-.176v-1.3c0-.16-.016-.176-.176-.176-.1,0-.624.032-2.192.032H17.972q.24-.456.432-.912a1.3,1.3,0,0,1,.368-.624.4.4,0,0,0,.176-.3c0-.144-.128-.208-.336-.272-.432-.128-.928-.24-1.52-.352a6.33,6.33,0,0,1-.368,1.184,11.009,11.009,0,0,1-2.784,3.92,3.159,3.159,0,0,1,.912.816c.176.208.272.3.368.3.08,0,.176-.08.336-.256a14.3,14.3,0,0,0,1.52-1.92H19.7V7.712H15.668c-1.424,0-1.92-.032-2.016-.032-.16,0-.176.016-.176.176V9.2c0,.16.016.176.176.176.1,0,.592-.032,2.016-.032ZM40.4,5.056c-.176.1-.208.16-.1.288.24.3.48.608.7.912-.992.1-2,.16-3.024.224a35.89,35.89,0,0,0,2.8-3.056c.288-.352.416-.5.56-.56a.285.285,0,0,0,.208-.256c0-.112-.064-.176-.24-.272-.368-.176-.848-.384-1.376-.592a3.822,3.822,0,0,1-.544.9c-.544.72-1.136,1.44-1.792,2.192A12.071,12.071,0,0,0,36.66,4c.512-.608.992-1.248,1.488-1.9a1.346,1.346,0,0,1,.464-.464.332.332,0,0,0,.192-.256c0-.112-.064-.192-.208-.272A10.112,10.112,0,0,0,37.2.512a4.827,4.827,0,0,1-.416.864c-.448.7-.848,1.248-1.216,1.728-.208-.144-.416-.288-.608-.448-.128-.1-.16-.112-.288.048l-.64.752c-.08.1-.112.144-.112.192a.193.193,0,0,0,.1.144,26.038,26.038,0,0,1,2.544,2.16l-.608.624c-.464.016-.912.032-1.36.032a11.3,11.3,0,0,1-1.264-.032c.048.5.112.992.192,1.456.032.16.1.288.24.288a.888.888,0,0,0,.3-.112,3.332,3.332,0,0,1,.864-.144c.384-.016.816-.048,1.28-.1a3.622,3.622,0,0,1-.512.912,8.46,8.46,0,0,1-3.04,2.4,3.713,3.713,0,0,1,.64.768c.144.256.208.368.32.368.08,0,.176-.064.368-.176a10.538,10.538,0,0,0,1.68-1.232,9.243,9.243,0,0,0,1.408,1.44,13.457,13.457,0,0,1-4.32,1.36,3.419,3.419,0,0,1,.56.928c.192.464.208.464.688.368a12.82,12.82,0,0,0,4.384-1.728,14.889,14.889,0,0,0,4.384,1.632c.5.1.5.1.656-.384a3.377,3.377,0,0,1,.544-1.072,15.752,15.752,0,0,1-4.32-1.152,10.8,10.8,0,0,0,1.536-1.744,1.58,1.58,0,0,1,.48-.528.307.307,0,0,0,.176-.288c0-.144-.064-.272-.416-.64-.4-.384-.512-.464-.64-.464a.521.521,0,0,0-.224.064.877.877,0,0,1-.336.048H37.444a.941.941,0,0,1,.256-.256q.192-.1.192-.24c0-.112-.1-.176-.272-.224-.272-.064-.544-.128-.88-.192,1.568-.128,3.408-.288,5.008-.48.176.336.336.672.5,1.008.08.176.112.176.3.064L43.508,8c.16-.1.192-.144.112-.3a14.55,14.55,0,0,0-2.1-3.072c-.1-.112-.128-.128-.3-.016Zm-.656,5.072a8.11,8.11,0,0,1-1.44,1.52,7.144,7.144,0,0,1-1.584-1.52Zm-8.9,2.976c0,1.28-.032,1.872-.032,1.968,0,.16.016.176.16.176h1.312c.16,0,.176-.016.176-.176,0-.08-.032-.688-.032-1.968V7.2c.368-.48.72-.992,1.04-1.5a1.193,1.193,0,0,1,.352-.384.187.187,0,0,0,.112-.176c0-.112-.064-.176-.208-.288a9.339,9.339,0,0,0-1.184-.736,3.487,3.487,0,0,1-.416.848A15.353,15.353,0,0,1,28.9,8.512a3.683,3.683,0,0,1,.544,1.152c.064.224.128.32.208.32s.192-.08.368-.208c.288-.24.576-.512.864-.8-.016.592-.032,1.28-.032,1.776ZM32.388.592a3.635,3.635,0,0,1-.464.736A10.919,10.919,0,0,1,29.06,3.856a2.943,2.943,0,0,1,.688.944c.112.272.192.384.3.384a.79.79,0,0,0,.368-.192,14.573,14.573,0,0,0,2.752-2.656A1.519,1.519,0,0,1,33.6,1.9c.16-.1.256-.16.256-.272s-.08-.192-.224-.288A6.162,6.162,0,0,0,32.388.592Zm21.2,3.6A3.634,3.634,0,0,1,57.172,7.9c0,3.024-2.128,4.144-4.832,4.784A3.393,3.393,0,0,1,53.46,13.7c.208.32.352.384.688.288,3.248-.976,4.928-2.848,4.928-5.824,0-3.184-2.256-5.552-6.1-5.552a7,7,0,0,0-5.2,2.048,5.9,5.9,0,0,0-1.808,4.16c0,2.608,1.424,4.112,2.832,4.112a3.039,3.039,0,0,0,2.72-1.84,20.035,20.035,0,0,0,2-6.9Zm-1.92.1a18.281,18.281,0,0,1-1.7,5.728c-.432.768-.784.976-1.2.976-.5,0-1.088-.816-1.088-2.288a4.607,4.607,0,0,1,1.248-2.96A4.819,4.819,0,0,1,51.668,4.288Zm19.68,3.744a13.267,13.267,0,0,0-3.1-.8c.48-1.152.928-2.4,1.344-3.488a2.175,2.175,0,0,1,.432-.832.412.412,0,0,0,.16-.272.384.384,0,0,0-.144-.272,5.347,5.347,0,0,0-1.088-.88.367.367,0,0,0-.224-.064.352.352,0,0,0-.208.064,1.845,1.845,0,0,1-.784.272,17.856,17.856,0,0,1-2.48.208,5.962,5.962,0,0,1-1.408-.1,9.7,9.7,0,0,0,.464,1.744.26.26,0,0,0,.256.176.842.842,0,0,0,.288-.064,3.359,3.359,0,0,1,.72-.176c.528-.064,1.328-.16,2.208-.256-.4,1.344-.8,2.464-1.328,3.792-2.672,0-4.72,1.552-4.72,3.536a1.934,1.934,0,0,0,1.9,2.192,2.626,2.626,0,0,0,2.048-.88,11.1,11.1,0,0,0,1.952-3.2,10.819,10.819,0,0,1,3.168.976,8.831,8.831,0,0,1-3.584,4.336,3.3,3.3,0,0,1,1.392.656.437.437,0,0,0,.24.112c.1,0,.176-.064.32-.176A9.821,9.821,0,0,0,72.4,10.432a13,13,0,0,1,2.1,1.5.3.3,0,0,0,.192.112c.048,0,.1-.032.144-.112a13.787,13.787,0,0,0,.688-1.376c.048-.16.064-.24-.1-.336a18.515,18.515,0,0,0-2.5-1.536c.16-.688.32-1.392.448-2.064A2.692,2.692,0,0,1,73.636,6a.3.3,0,0,0-.112-.432,6.9,6.9,0,0,0-1.856-.688,5.006,5.006,0,0,1,.016,1.088A15.827,15.827,0,0,1,71.348,8.032Zm-5.456.576a10.937,10.937,0,0,1-1.168,1.952,1.292,1.292,0,0,1-.928.608c-.384,0-.56-.224-.56-.736C63.236,9.52,64.26,8.672,65.892,8.608Z" transform="translate(737 1140)" fill="#fff"/><rect width="275" height="30" transform="translate(917 1183)" fill="#60ac56"/><path d="M29.236,7.664c-.176.128-.208.16-.08.272a7.061,7.061,0,0,1,1.152,1.488c.048.08.08.128.144.128.048,0,.1-.032.176-.1l.688-.56c.16-.128.176-.144.08-.288A9.363,9.363,0,0,0,30.164,7.2.216.216,0,0,0,30,7.12a.273.273,0,0,0-.176.08Zm.624-2.3.1-.192a1.319,1.319,0,0,1,.256-.4.264.264,0,0,0,.144-.24c0-.08-.048-.128-.176-.176a14.443,14.443,0,0,0-1.536-.336,5.767,5.767,0,0,1-.32,1.056,10.457,10.457,0,0,1-3.376,4.5,2.976,2.976,0,0,1,.672.736c.144.208.24.3.336.3.08,0,.176-.064.336-.224a12.935,12.935,0,0,0,1.04-1.056,12.854,12.854,0,0,0,1.888,2.528,13.591,13.591,0,0,1-4.064,2.08,2.759,2.759,0,0,1,.656.9c.144.288.192.4.3.4a1.42,1.42,0,0,0,.368-.112,13.938,13.938,0,0,0,3.9-2.208,13.733,13.733,0,0,0,4.336,2.224,1.228,1.228,0,0,0,.368.1c.144,0,.192-.128.288-.432a3.085,3.085,0,0,1,.736-1.2,14.282,14.282,0,0,1-4.528-1.808A13.212,13.212,0,0,0,34.212,7.2a1.609,1.609,0,0,1,.352-.656.463.463,0,0,0,.176-.288c0-.112-.1-.256-.384-.528-.416-.4-.576-.48-.672-.48a.455.455,0,0,0-.192.064.7.7,0,0,1-.3.048Zm2.816,1.36a10.335,10.335,0,0,1-2.336,4.112,9.675,9.675,0,0,1-2.064-2.7c.32-.464.608-.928.88-1.408Zm.7-2.9c1.44,0,1.936.032,2.032.032.16,0,.176-.016.176-.176V2.464c0-.144-.016-.16-.176-.16-.1,0-.592.032-2.032.032h-4.1V2a2.351,2.351,0,0,1,.08-.8c.016-.1.1-.208.1-.3,0-.064-.1-.144-.24-.16-.56-.048-1.152-.08-1.712-.1a6.953,6.953,0,0,1,.112,1.408v.288H23.684c-1.456,0-1.936-.032-2.032-.032-.16,0-.176.016-.176.16V3.68c0,.16.016.176.176.176.1,0,.576-.032,2.032-.032ZM23.188,13.136c0,1.28-.032,1.872-.032,1.968,0,.16.016.176.192.176h1.264c.16,0,.176-.016.176-.176,0-.08-.032-.688-.032-1.968V7.008c.272-.432.544-.864.784-1.312a2.707,2.707,0,0,1,.432-.64c.112-.1.192-.16.192-.272,0-.128-.08-.208-.256-.288a9.635,9.635,0,0,0-1.328-.544,6.665,6.665,0,0,1-.384.96,11.386,11.386,0,0,1-3.168,4,3.449,3.449,0,0,1,.56,1.168c.064.16.112.24.192.24.064,0,.176-.064.336-.208a12.479,12.479,0,0,0,1.12-1.136c-.016.608-.048,1.3-.048,1.808Zm22.4-8.944A3.634,3.634,0,0,1,49.172,7.9c0,3.024-2.128,4.144-4.832,4.784A3.393,3.393,0,0,1,45.46,13.7c.208.32.352.384.688.288,3.248-.976,4.928-2.848,4.928-5.824,0-3.184-2.256-5.552-6.1-5.552a7,7,0,0,0-5.2,2.048,5.9,5.9,0,0,0-1.808,4.16c0,2.608,1.424,4.112,2.832,4.112a3.039,3.039,0,0,0,2.72-1.84,20.035,20.035,0,0,0,2-6.9Zm-1.92.1a18.281,18.281,0,0,1-1.7,5.728c-.432.768-.784.976-1.2.976-.5,0-1.088-.816-1.088-2.288a4.607,4.607,0,0,1,1.248-2.96A4.819,4.819,0,0,1,43.668,4.288Zm19.68,3.744a13.267,13.267,0,0,0-3.1-.8c.48-1.152.928-2.4,1.344-3.488a2.175,2.175,0,0,1,.432-.832.412.412,0,0,0,.16-.272.384.384,0,0,0-.144-.272,5.347,5.347,0,0,0-1.088-.88.367.367,0,0,0-.224-.064.352.352,0,0,0-.208.064,1.845,1.845,0,0,1-.784.272,17.856,17.856,0,0,1-2.48.208,5.962,5.962,0,0,1-1.408-.1,9.7,9.7,0,0,0,.464,1.744.26.26,0,0,0,.256.176.842.842,0,0,0,.288-.064,3.359,3.359,0,0,1,.72-.176c.528-.064,1.328-.16,2.208-.256-.4,1.344-.8,2.464-1.328,3.792-2.672,0-4.72,1.552-4.72,3.536a1.934,1.934,0,0,0,1.9,2.192,2.626,2.626,0,0,0,2.048-.88,11.1,11.1,0,0,0,1.952-3.2,10.819,10.819,0,0,1,3.168.976,8.831,8.831,0,0,1-3.584,4.336,3.3,3.3,0,0,1,1.392.656.437.437,0,0,0,.24.112c.1,0,.176-.064.32-.176A9.821,9.821,0,0,0,64.4,10.432a13,13,0,0,1,2.1,1.5.3.3,0,0,0,.192.112c.048,0,.1-.032.144-.112a13.787,13.787,0,0,0,.688-1.376c.048-.16.064-.24-.1-.336a18.515,18.515,0,0,0-2.5-1.536c.16-.688.32-1.392.448-2.064A2.692,2.692,0,0,1,65.636,6a.3.3,0,0,0-.112-.432,6.9,6.9,0,0,0-1.856-.688,5.007,5.007,0,0,1,.016,1.088A15.828,15.828,0,0,1,63.348,8.032Zm-5.456.576a10.937,10.937,0,0,1-1.168,1.952,1.292,1.292,0,0,1-.928.608c-.384,0-.56-.224-.56-.736C55.236,9.52,56.26,8.672,57.892,8.608Z" transform="translate(1010 1190)" fill="#fff"/></g></svg>