<svg xmlns="http://www.w3.org/2000/svg" width="334" height="322" viewBox="0 0 334 322"><g transform="translate(-20 -953)"><rect width="334" height="322" transform="translate(20 953)" fill="#fff"/><rect width="215" height="288" transform="translate(78 987)" fill="#f5fcf4"/><path d="M11.028,7.488A2.892,2.892,0,0,0,13.172,4.7c0-1.808-1.52-3.088-3.68-3.088-2.192,0-3.648,1.392-3.648,3.152a3.243,3.243,0,0,0,2.08,3.12c-1.632.8-2.368,1.632-2.368,3.04,0,2.064,1.536,3.328,3.952,3.328,2.384,0,3.936-1.36,3.936-3.392C13.444,9.28,12.788,8.32,11.028,7.488ZM9.4,6.7c-1.264-.592-1.664-1.12-1.664-1.952a1.606,1.606,0,0,1,1.76-1.664,1.664,1.664,0,0,1,1.792,1.7,2.191,2.191,0,0,1-1.44,2.128ZM9.6,8.72c1.472.7,1.936,1.248,1.936,2.208a1.813,1.813,0,0,1-2.048,1.856A1.886,1.886,0,0,1,7.46,10.8c0-1.024.544-1.68,1.68-2.3ZM19.86,4.88c0-2.352.032-3.136.032-3.232,0-.16-.016-.176-.176-.176-.112,0-.416.032-1.376.032H16.964c-.96,0-1.264-.032-1.376-.032-.16,0-.176.016-.176.176,0,.1.032.944.032,3.84V8.976c0,4.016-.032,4.832-.032,4.928,0,.16.016.176.176.176h1.184c.144,0,.16-.016.16-.176V12.64H18.4v.7c0,.16.016.176.16.176h1.152c.16,0,.176-.016.176-.176,0-.1-.032-.816-.032-4.8Zm-2.928,6.3V7.728H18.4v3.456ZM18.4,2.96V6.272H16.932V2.96Zm8.72,3.968c1.52,0,2.048.032,2.144.032.176,0,.192-.016.192-.192v-1.1c0-.16-.016-.176-.192-.176-.1,0-.624.032-2.144.032h-1.7V3.872H26.5c1.456,0,1.936.032,2.032.032.16,0,.176-.016.176-.176V2.608c0-.176-.016-.192-.176-.192-.1,0-.576.032-2.032.032H25.428a3.716,3.716,0,0,1,.08-1.2.89.89,0,0,0,.1-.336c0-.08-.1-.144-.256-.16C24.756.688,24.324.656,23.7.64a13.4,13.4,0,0,1,.112,1.808H23.06c-1.424,0-1.92-.032-2.016-.032-.176,0-.192.016-.192.192v1.12c0,.16.016.176.192.176.1,0,.592-.032,2.016-.032h.752V5.52H22.66c-1.52,0-2.048-.032-2.144-.032-.176,0-.192.016-.192.176v1.1c0,.176.016.192.192.192.1,0,.624-.032,2.144-.032ZM25.876,9.936V13.12c0,.368-.144.5-.528.5-.528,0-1.008-.016-1.568-.064a3.565,3.565,0,0,1,.48,1.168c.112.48.128.48.608.48a3.692,3.692,0,0,0,2.08-.352,1.488,1.488,0,0,0,.56-1.36c0-.544-.016-1.232-.016-1.968V9.936c1.088.016,1.52.032,1.6.032.176,0,.192-.016.192-.176V8.672c0-.16-.016-.176-.192-.176-.08,0-.512.032-1.6.032a2.029,2.029,0,0,1,.08-.816.539.539,0,0,0,.08-.272c0-.08-.1-.144-.272-.176-.432-.064-1.008-.112-1.616-.144a11.882,11.882,0,0,1,.112,1.408H22.724c-1.52,0-2.032-.032-2.128-.032-.176,0-.192.016-.192.176v1.12c0,.16.016.176.192.176.1,0,.608-.032,2.128-.032Zm-4.32,1.008c-.192.112-.192.16-.08.288A13.4,13.4,0,0,1,22.884,13.2c.048.08.08.112.128.112s.1-.032.192-.1l.976-.672c.16-.112.176-.16.08-.3a12.8,12.8,0,0,0-1.472-1.84c-.128-.112-.176-.112-.336-.016Z" transform="translate(20 953)" fill="#333"/><path d="M5.908,12.288a3.057,3.057,0,0,0,3.216,1.968c2.624,0,4.16-1.9,4.16-6.784,0-4.112-1.552-5.856-3.968-5.856-2.24,0-3.68,1.632-3.68,4.272,0,2.416,1.392,3.936,3.248,3.936a2.626,2.626,0,0,0,2.5-1.456c-.08,3.2-.864,4.352-2.224,4.352-.672,0-1.056-.352-1.28-1.168Zm5.376-5.536A2.116,2.116,0,0,1,9.348,8.288c-1.024,0-1.68-.9-1.68-2.448,0-1.664.544-2.688,1.728-2.688C10.708,3.152,11.268,4.368,11.284,6.752ZM19.86,4.88c0-2.352.032-3.136.032-3.232,0-.16-.016-.176-.176-.176-.112,0-.416.032-1.376.032H16.964c-.96,0-1.264-.032-1.376-.032-.16,0-.176.016-.176.176,0,.1.032.944.032,3.84V8.976c0,4.016-.032,4.832-.032,4.928,0,.16.016.176.176.176h1.184c.144,0,.16-.016.16-.176V12.64H18.4v.7c0,.16.016.176.16.176h1.152c.16,0,.176-.016.176-.176,0-.1-.032-.816-.032-4.8Zm-2.928,6.3V7.728H18.4v3.456ZM18.4,2.96V6.272H16.932V2.96Zm8.72,3.968c1.52,0,2.048.032,2.144.032.176,0,.192-.016.192-.192v-1.1c0-.16-.016-.176-.192-.176-.1,0-.624.032-2.144.032h-1.7V3.872H26.5c1.456,0,1.936.032,2.032.032.16,0,.176-.016.176-.176V2.608c0-.176-.016-.192-.176-.192-.1,0-.576.032-2.032.032H25.428a3.716,3.716,0,0,1,.08-1.2.89.89,0,0,0,.1-.336c0-.08-.1-.144-.256-.16C24.756.688,24.324.656,23.7.64a13.4,13.4,0,0,1,.112,1.808H23.06c-1.424,0-1.92-.032-2.016-.032-.176,0-.192.016-.192.192v1.12c0,.16.016.176.192.176.1,0,.592-.032,2.016-.032h.752V5.52H22.66c-1.52,0-2.048-.032-2.144-.032-.176,0-.192.016-.192.176v1.1c0,.176.016.192.192.192.1,0,.624-.032,2.144-.032ZM25.876,9.936V13.12c0,.368-.144.5-.528.5-.528,0-1.008-.016-1.568-.064a3.565,3.565,0,0,1,.48,1.168c.112.48.128.48.608.48a3.692,3.692,0,0,0,2.08-.352,1.488,1.488,0,0,0,.56-1.36c0-.544-.016-1.232-.016-1.968V9.936c1.088.016,1.52.032,1.6.032.176,0,.192-.016.192-.176V8.672c0-.16-.016-.176-.192-.176-.08,0-.512.032-1.6.032a2.029,2.029,0,0,1,.08-.816.539.539,0,0,0,.08-.272c0-.08-.1-.144-.272-.176-.432-.064-1.008-.112-1.616-.144a11.882,11.882,0,0,1,.112,1.408H22.724c-1.52,0-2.032-.032-2.128-.032-.176,0-.192.016-.192.176v1.12c0,.16.016.176.192.176.1,0,.608-.032,2.128-.032Zm-4.32,1.008c-.192.112-.192.16-.08.288A13.4,13.4,0,0,1,22.884,13.2c.048.08.08.112.128.112s.1-.032.192-.1l.976-.672c.16-.112.176-.16.08-.3a12.8,12.8,0,0,0-1.472-1.84c-.128-.112-.176-.112-.336-.016Z" transform="translate(60 953)" fill="#333"/><path d="M6.076,1.744H4.444A9.018,9.018,0,0,1,1.6,3.184l.32,1.68A8.973,8.973,0,0,0,4.172,3.776v8.7h-2.4v1.552H8.364V12.48H6.076Zm6.176,3.1a1.692,1.692,0,0,1,1.7-1.68,1.549,1.549,0,0,1,1.68,1.712c0,1.232-.64,1.92-2.24,1.92H12.54V8.432h.928c1.712,0,2.368.816,2.368,2.208A1.822,1.822,0,0,1,13.964,12.7c-1.056,0-1.632-.5-1.9-1.728l-1.968.576c.544,1.888,1.872,2.7,3.888,2.7a3.58,3.58,0,0,0,3.9-3.632,2.971,2.971,0,0,0-2.576-3.072V7.44a2.654,2.654,0,0,0,2.336-2.752c0-1.776-1.44-3.072-3.664-3.072a3.519,3.519,0,0,0-3.7,2.64Zm12.192.032c0-2.352.032-3.136.032-3.232,0-.16-.016-.176-.176-.176-.112,0-.416.032-1.376.032H21.548c-.96,0-1.264-.032-1.376-.032-.16,0-.176.016-.176.176,0,.1.032.944.032,3.84V8.976c0,4.016-.032,4.832-.032,4.928,0,.16.016.176.176.176h1.184c.144,0,.16-.016.16-.176V12.64h1.472v.7c0,.16.016.176.16.176H24.3c.16,0,.176-.016.176-.176,0-.1-.032-.816-.032-4.8Zm-2.928,6.3V7.728h1.472v3.456ZM22.988,2.96V6.272H21.516V2.96Zm8.72,3.968c1.52,0,2.048.032,2.144.032.176,0,.192-.016.192-.192v-1.1c0-.16-.016-.176-.192-.176-.1,0-.624.032-2.144.032h-1.7V3.872h1.072c1.456,0,1.936.032,2.032.032.16,0,.176-.016.176-.176V2.608c0-.176-.016-.192-.176-.192-.1,0-.576.032-2.032.032H30.012a3.716,3.716,0,0,1,.08-1.2.89.89,0,0,0,.1-.336c0-.08-.1-.144-.256-.16C29.34.688,28.908.656,28.284.64A13.4,13.4,0,0,1,28.4,2.448h-.752c-1.424,0-1.92-.032-2.016-.032-.176,0-.192.016-.192.192v1.12c0,.16.016.176.192.176.1,0,.592-.032,2.016-.032H28.4V5.52H27.244c-1.52,0-2.048-.032-2.144-.032-.176,0-.192.016-.192.176v1.1c0,.176.016.192.192.192.1,0,.624-.032,2.144-.032ZM30.46,9.936V13.12c0,.368-.144.5-.528.5-.528,0-1.008-.016-1.568-.064a3.565,3.565,0,0,1,.48,1.168c.112.48.128.48.608.48a3.692,3.692,0,0,0,2.08-.352,1.488,1.488,0,0,0,.56-1.36c0-.544-.016-1.232-.016-1.968V9.936c1.088.016,1.52.032,1.6.032.176,0,.192-.016.192-.176V8.672c0-.16-.016-.176-.192-.176-.08,0-.512.032-1.6.032a2.029,2.029,0,0,1,.08-.816.539.539,0,0,0,.08-.272c0-.08-.1-.144-.272-.176-.432-.064-1.008-.112-1.616-.144a11.883,11.883,0,0,1,.112,1.408H27.308c-1.52,0-2.032-.032-2.128-.032-.176,0-.192.016-.192.176v1.12c0,.16.016.176.192.176.1,0,.608-.032,2.128-.032Zm-4.32,1.008c-.192.112-.192.16-.08.288A13.4,13.4,0,0,1,27.468,13.2c.048.08.08.112.128.112s.1-.032.192-.1l.976-.672c.16-.112.176-.16.08-.3a12.8,12.8,0,0,0-1.472-1.84c-.128-.112-.176-.112-.336-.016Z" transform="translate(125 953)" fill="#333"/><path d="M6.076,1.744H4.444A9.018,9.018,0,0,1,1.6,3.184l.32,1.68A8.973,8.973,0,0,0,4.172,3.776v8.7h-2.4v1.552H8.364V12.48H6.076Zm11.664.08H10.316V3.456H15.8a22.468,22.468,0,0,0-3.632,10.576h2.256A21.907,21.907,0,0,1,17.74,3.248Zm6.7,3.056c0-2.352.032-3.136.032-3.232,0-.16-.016-.176-.176-.176-.112,0-.416.032-1.376.032H21.548c-.96,0-1.264-.032-1.376-.032-.16,0-.176.016-.176.176,0,.1.032.944.032,3.84V8.976c0,4.016-.032,4.832-.032,4.928,0,.16.016.176.176.176h1.184c.144,0,.16-.016.16-.176V12.64h1.472v.7c0,.16.016.176.16.176H24.3c.16,0,.176-.016.176-.176,0-.1-.032-.816-.032-4.8Zm-2.928,6.3V7.728h1.472v3.456ZM22.988,2.96V6.272H21.516V2.96Zm8.72,3.968c1.52,0,2.048.032,2.144.032.176,0,.192-.016.192-.192v-1.1c0-.16-.016-.176-.192-.176-.1,0-.624.032-2.144.032h-1.7V3.872h1.072c1.456,0,1.936.032,2.032.032.16,0,.176-.016.176-.176V2.608c0-.176-.016-.192-.176-.192-.1,0-.576.032-2.032.032H30.012a3.716,3.716,0,0,1,.08-1.2.89.89,0,0,0,.1-.336c0-.08-.1-.144-.256-.16C29.34.688,28.908.656,28.284.64A13.4,13.4,0,0,1,28.4,2.448h-.752c-1.424,0-1.92-.032-2.016-.032-.176,0-.192.016-.192.192v1.12c0,.16.016.176.192.176.1,0,.592-.032,2.016-.032H28.4V5.52H27.244c-1.52,0-2.048-.032-2.144-.032-.176,0-.192.016-.192.176v1.1c0,.176.016.192.192.192.1,0,.624-.032,2.144-.032ZM30.46,9.936V13.12c0,.368-.144.5-.528.5-.528,0-1.008-.016-1.568-.064a3.565,3.565,0,0,1,.48,1.168c.112.48.128.48.608.48a3.692,3.692,0,0,0,2.08-.352,1.488,1.488,0,0,0,.56-1.36c0-.544-.016-1.232-.016-1.968V9.936c1.088.016,1.52.032,1.6.032.176,0,.192-.016.192-.176V8.672c0-.16-.016-.176-.192-.176-.08,0-.512.032-1.6.032a2.029,2.029,0,0,1,.08-.816.539.539,0,0,0,.08-.272c0-.08-.1-.144-.272-.176-.432-.064-1.008-.112-1.616-.144a11.883,11.883,0,0,1,.112,1.408H27.308c-1.52,0-2.032-.032-2.128-.032-.176,0-.192.016-.192.176v1.12c0,.16.016.176.192.176.1,0,.608-.032,2.128-.032Zm-4.32,1.008c-.192.112-.192.16-.08.288A13.4,13.4,0,0,1,27.468,13.2c.048.08.08.112.128.112s.1-.032.192-.1l.976-.672c.16-.112.176-.16.08-.3a12.8,12.8,0,0,0-1.472-1.84c-.128-.112-.176-.112-.336-.016Zm15.568-3.5V9.5H37.66c-1.408,0-1.888-.032-1.984-.032-.144,0-.16.016-.16.176v1.216c0,.16.016.176.16.176.1,0,.576-.032,1.984-.032h4.048v1.28c0,1.808-.032,2.7-.032,2.8,0,.16.016.176.176.176H43.26c.176,0,.192-.016.192-.176,0-.08-.032-.992-.032-2.8v-1.28h4.3c1.408,0,1.888.032,1.984.032.144,0,.16-.016.16-.176V9.648c0-.16-.016-.176-.16-.176-.1,0-.576.032-1.984.032h-4.3V7.44h3.12c1.536,0,2.048.032,2.144.032.176,0,.192-.016.192-.192V6.1c0-.16-.016-.176-.192-.176-.1,0-.608.032-2.144.032H43.42V3.008a6.769,6.769,0,0,1,.112-1.76.979.979,0,0,0,.1-.336c0-.1-.1-.16-.24-.176-.544-.064-1.2-.1-1.808-.112a14.477,14.477,0,0,1,.128,2.416V5.952H38.844c-1.536,0-2.048-.032-2.144-.032-.16,0-.176.016-.176.176V7.28c0,.176.016.192.176.192.1,0,.608-.032,2.144-.032Zm2.944-2.448a5.171,5.171,0,0,1,.96.448c.208.128.3.192.4.192.112,0,.176-.1.336-.3C46.988,4.4,47.4,3.744,47.772,3.1a1.079,1.079,0,0,1,.272-.368c.144-.1.192-.16.192-.272,0-.1-.048-.144-.208-.224a10.588,10.588,0,0,0-1.408-.672,3.048,3.048,0,0,1-.288.784A18.323,18.323,0,0,1,44.652,4.992Zm-7.44-2.7c-.176.112-.176.144-.08.272a14.357,14.357,0,0,1,1.7,2.8c.032.08.064.128.112.128a.5.5,0,0,0,.192-.1l.976-.592c.208-.128.208-.16.144-.3a19.258,19.258,0,0,0-1.776-2.768c-.048-.08-.1-.112-.144-.112a.444.444,0,0,0-.208.1Z" transform="translate(202 953)" fill="#333"/><path d="M3.18,5.408C3.276,3.952,3.9,3.2,4.908,3.2a1.524,1.524,0,0,1,1.6,1.7c0,1.008-.352,1.648-1.952,3.184a15.451,15.451,0,0,0-3.488,4.528v1.424H8.636v-1.6H3.148A11.939,11.939,0,0,1,6.124,9.04C8,7.3,8.588,6.272,8.588,4.912c0-2.112-1.456-3.3-3.648-3.3A3.576,3.576,0,0,0,1.18,4.992ZM15.244,1.744H13.612a9.018,9.018,0,0,1-2.848,1.44l.32,1.68A8.973,8.973,0,0,0,13.34,3.776v8.7h-2.4v1.552h6.592V12.48H15.244Zm9.2,3.136c0-2.352.032-3.136.032-3.232,0-.16-.016-.176-.176-.176-.112,0-.416.032-1.376.032H21.548c-.96,0-1.264-.032-1.376-.032-.16,0-.176.016-.176.176,0,.1.032.944.032,3.84V8.976c0,4.016-.032,4.832-.032,4.928,0,.16.016.176.176.176h1.184c.144,0,.16-.016.16-.176V12.64h1.472v.7c0,.16.016.176.16.176H24.3c.16,0,.176-.016.176-.176,0-.1-.032-.816-.032-4.8Zm-2.928,6.3V7.728h1.472v3.456ZM22.988,2.96V6.272H21.516V2.96Zm8.72,3.968c1.52,0,2.048.032,2.144.032.176,0,.192-.016.192-.192v-1.1c0-.16-.016-.176-.192-.176-.1,0-.624.032-2.144.032h-1.7V3.872h1.072c1.456,0,1.936.032,2.032.032.16,0,.176-.016.176-.176V2.608c0-.176-.016-.192-.176-.192-.1,0-.576.032-2.032.032H30.012a3.716,3.716,0,0,1,.08-1.2.89.89,0,0,0,.1-.336c0-.08-.1-.144-.256-.16C29.34.688,28.908.656,28.284.64A13.4,13.4,0,0,1,28.4,2.448h-.752c-1.424,0-1.92-.032-2.016-.032-.176,0-.192.016-.192.192v1.12c0,.16.016.176.192.176.1,0,.592-.032,2.016-.032H28.4V5.52H27.244c-1.52,0-2.048-.032-2.144-.032-.176,0-.192.016-.192.176v1.1c0,.176.016.192.192.192.1,0,.624-.032,2.144-.032ZM30.46,9.936V13.12c0,.368-.144.5-.528.5-.528,0-1.008-.016-1.568-.064a3.565,3.565,0,0,1,.48,1.168c.112.48.128.48.608.48a3.692,3.692,0,0,0,2.08-.352,1.488,1.488,0,0,0,.56-1.36c0-.544-.016-1.232-.016-1.968V9.936c1.088.016,1.52.032,1.6.032.176,0,.192-.016.192-.176V8.672c0-.16-.016-.176-.192-.176-.08,0-.512.032-1.6.032a2.029,2.029,0,0,1,.08-.816.539.539,0,0,0,.08-.272c0-.08-.1-.144-.272-.176-.432-.064-1.008-.112-1.616-.144a11.883,11.883,0,0,1,.112,1.408H27.308c-1.52,0-2.032-.032-2.128-.032-.176,0-.192.016-.192.176v1.12c0,.16.016.176.192.176.1,0,.608-.032,2.128-.032Zm-4.32,1.008c-.192.112-.192.16-.08.288A13.4,13.4,0,0,1,27.468,13.2c.048.08.08.112.128.112s.1-.032.192-.1l.976-.672c.16-.112.176-.16.08-.3a12.8,12.8,0,0,0-1.472-1.84c-.128-.112-.176-.112-.336-.016Z" transform="translate(275 953)" fill="#333"/><path d="M3700,8894.719v287" transform="translate(-3662.5 -7907.219)" fill="none" stroke="#707070" stroke-width="1" stroke-dasharray="2 2"/><path d="M3700,8894.718v287" transform="translate(-3622.5 -7907.218)" fill="#fff" stroke="#707070" stroke-width="1"/><path d="M3700,8894.718v287" transform="translate(-3407.5 -7907.218)" fill="#fff" stroke="#707070" stroke-width="1"/><path d="M3700,8894.719v287" transform="translate(-3557.5 -7907.219)" fill="none" stroke="#707070" stroke-width="1" stroke-dasharray="2 2"/><path d="M3700,8894.718v287" transform="translate(-3472.5 -7907.218)" fill="none" stroke="#707070" stroke-width="1" stroke-dasharray="2 2"/><g transform="translate(91 1228)"><rect width="189" height="36" fill="#f5fcf4"/><path d="M-54.208-8.432a28.949,28.949,0,0,0,2-2.208,3.861,3.861,0,0,1,.9-.848.258.258,0,0,0,.064-.448,4.881,4.881,0,0,0-1.1-.72,5,5,0,0,1-1.1,1.808,26.925,26.925,0,0,1-3.1,3.088,29.494,29.494,0,0,1-4.976,3.376,2.862,2.862,0,0,1,.8.512.275.275,0,0,0,.368.064,30.5,30.5,0,0,0,5.024-3.616v4.736c0,.928-.032,1.888-.064,2.848,0,.144.032.192.16.192a8.977,8.977,0,0,0,.928,0c.128,0,.176-.048.16-.192-.032-1.024-.048-1.936-.048-2.9Zm7.264,3.488a8.294,8.294,0,0,0,.928.848.22.22,0,0,0,.368-.064,5.992,5.992,0,0,1,.688-.864c1.088-1.168,1.968-2.1,2.688-2.816a.4.4,0,0,1,.3-.144.536.536,0,0,1,.32.176c2.256,1.872,4.7,3.7,7.248,5.44.128.1.208.064.288-.048a4.986,4.986,0,0,0,.5-.8.2.2,0,0,0-.1-.3,60.592,60.592,0,0,1-7.344-5.248,1.405,1.405,0,0,0-.976-.432c-.336,0-.56.128-.944.512-.864.88-1.712,1.744-2.272,2.3A11.423,11.423,0,0,1-46.944-4.944Zm8.464-5.136a6.908,6.908,0,0,1,1.856,2.048A.128.128,0,0,0-36.416-8l.464-.384a.116.116,0,0,0,.032-.176A7.764,7.764,0,0,0-37.728-10.5a.13.13,0,0,0-.192,0Zm1.408-1.072a7.642,7.642,0,0,1,1.84,2c.064.1.128.1.192.032l.432-.384c.08-.064.1-.112.048-.192a9.2,9.2,0,0,0-1.824-1.872c-.064-.048-.112-.032-.176.016Zm7.36,1.072a16.612,16.612,0,0,1,3.04,2.368c.112.112.16.1.256-.016a6.456,6.456,0,0,0,.544-.688c.08-.128.064-.192-.048-.3a14.761,14.761,0,0,0-2.88-2.128.193.193,0,0,0-.288.032C-29.264-10.624-29.5-10.336-29.712-10.08Zm.384,8.4a6.006,6.006,0,0,0,.784,1.088.262.262,0,0,0,.432.016,5.964,5.964,0,0,1,.88-.624,33.228,33.228,0,0,0,4.8-3.12A29.537,29.537,0,0,0-18.544-8c.192-.224.208-.352.112-.56A4.789,4.789,0,0,1-18.7-9.616a24.97,24.97,0,0,1-4.32,4.3,27.159,27.159,0,0,1-4.624,2.976A8.926,8.926,0,0,1-29.328-1.68Zm20.144-8.528a6.681,6.681,0,0,1,.112-1.776c.08-.24.144-.416-.112-.48a6.6,6.6,0,0,0-1.328-.208,13.535,13.535,0,0,1,.176,2.56v7.12c0,.976-.016,2.224-.064,3.248,0,.176.048.224.224.224a6.941,6.941,0,0,0,.816,0c.176,0,.224-.048.208-.208C-9.168-.768-9.2-2.016-9.2-2.992V-6.7A17.751,17.751,0,0,1-4.544-4.56c.144.1.208.064.3-.064a5.119,5.119,0,0,0,.384-.784c.048-.112.016-.192-.112-.256A22.566,22.566,0,0,0-9.184-7.888ZM14.544-.432c0-.112-.016-.128-.128-.128-.064,0-.592.032-2.112.032H10.288V-2.1h1.264c1.44,0,1.936.032,2.016.032.112,0,.128-.016.128-.128v-.544c0-.112-.016-.128-.128-.128-.08,0-.576.032-2.016.032H10.288V-4.3h1.264c1.44,0,1.92.032,2,.032.112,0,.128-.016.128-.128v-.544c0-.1-.016-.112-.128-.112-.08,0-.56.016-2,.016H10.288V-6.512h1.76c1.472,0,1.968.032,2.048.032.112,0,.128-.016.128-.128v-.56c0-.112-.016-.128-.128-.128-.08,0-.576.032-2.048.032H10.336a9.206,9.206,0,0,0,.464-.9.756.756,0,0,1,.256-.32.233.233,0,0,0,.112-.208c0-.048-.064-.112-.176-.16a8.285,8.285,0,0,0-.864-.24,3.8,3.8,0,0,1-.24.832,7.16,7.16,0,0,1-.5.992H6.5l.24-.432a3.034,3.034,0,0,1,.512-.752c.08-.064.16-.128.16-.208,0-.064-.048-.128-.16-.176a5.935,5.935,0,0,0-.864-.3A4.186,4.186,0,0,1,5.952-8a11.3,11.3,0,0,1-2.5,3.184,1.649,1.649,0,0,1,.432.448c.064.1.112.144.16.144.064,0,.128-.048.24-.144A11.668,11.668,0,0,0,5.52-5.76C5.5-5.328,5.5-4.912,5.5-4.5V-.768c0,1.232-.032,1.7-.032,1.776,0,.112.016.128.128.128h.672c.112,0,.128-.016.128-.128V.24h5.9c1.52,0,2.048.032,2.112.032.112,0,.128-.016.128-.128Zm-5.136-.1H6.4V-2.1H9.408Zm0-4.512H6.4V-6.512H9.408Zm0,2.208H6.4V-4.3H9.408ZM2.128-1.52C2.128.176,2.1.9,2.1.992c0,.112.016.128.128.128h.752c.1,0,.112-.016.112-.128,0-.08-.032-.816-.032-2.512V-9.584c.368-.768.7-1.552,1.008-2.384a1.791,1.791,0,0,1,.3-.592c.08-.08.144-.144.144-.224s-.048-.144-.16-.192a6.181,6.181,0,0,0-.96-.336,5.046,5.046,0,0,1-.24,1.072A15.89,15.89,0,0,1-.032-6.576a2.021,2.021,0,0,1,.384.64c.048.1.08.16.128.16s.1-.064.192-.176A17.175,17.175,0,0,0,2.16-7.968c-.016.768-.032,1.68-.032,2.288ZM12.96-10.288H9.872V-11.44a4.442,4.442,0,0,1,.064-1.136.682.682,0,0,0,.1-.288c0-.064-.064-.112-.176-.128-.24-.032-.608-.064-.992-.08a7.1,7.1,0,0,1,.1,1.632v1.152H6.016v-.848a2.022,2.022,0,0,1,.064-.672.617.617,0,0,0,.1-.288c0-.048-.064-.112-.176-.128a8.861,8.861,0,0,0-.96-.1A6.776,6.776,0,0,1,5.1-11.232v.576c0,.688-.032.96-.032,1.056,0,.112.016.128.128.128.1,0,.64-.032,2.208-.032H11.6c1.552,0,2.1.032,2.192.032.112,0,.128-.016.128-.128,0-.08-.032-.368-.032-1.056v-.56a1.613,1.613,0,0,1,.1-.72.387.387,0,0,0,.064-.208c0-.08-.064-.128-.176-.144a8.313,8.313,0,0,0-1.008-.1,4.8,4.8,0,0,1,.1,1.184Zm17.9,2.176c0-.112-.016-.128-.128-.128-.08,0-.608.032-2.176.032H24.176c-1.568,0-2.1-.032-2.192-.032-.112,0-.128.016-.128.128v.7c0,.112.016.128.128.128.1,0,.624-.032,2.192-.032h2.9V-.688c0,.512-.176.608-.848.608-.592,0-1.008-.016-1.536-.064a2.285,2.285,0,0,1,.336.72c.08.336.08.336.4.336,1.488,0,1.936-.08,2.224-.3.32-.256.448-.592.432-1.28,0-.576-.032-1.344-.032-2.944v-3.7h.512c1.568,0,2.1.032,2.176.032.112,0,.128-.016.128-.128ZM19.04-1.072c0,1.392-.032,1.984-.032,2.064,0,.112.016.128.128.128H19.9c.112,0,.128-.016.128-.128C20.032.912,20,.32,20-1.072V-7.1c.32-.416.608-.848.9-1.3a1.2,1.2,0,0,1,.352-.384.242.242,0,0,0,.112-.176c0-.08-.032-.128-.144-.208a5.711,5.711,0,0,0-.832-.464,3.207,3.207,0,0,1-.336.768,14.223,14.223,0,0,1-3.5,3.888,1.828,1.828,0,0,1,.416.56c.064.128.112.192.16.192s.112-.048.224-.144a17.059,17.059,0,0,0,1.728-1.648c-.016.608-.032,1.44-.032,2.08Zm10.992-10.96c0-.112-.016-.128-.128-.128-.1,0-.528.032-1.984.032H24.912c-1.44,0-1.888-.032-1.968-.032-.112,0-.128.016-.128.128v.7c0,.112.016.128.128.128.08,0,.528-.032,1.968-.032H27.92c1.456,0,1.888.032,1.984.032.112,0,.128-.016.128-.128ZM21.28-12.56c0-.08-.048-.128-.144-.192a4.7,4.7,0,0,0-.88-.48,2.372,2.372,0,0,1-.352.7,12.565,12.565,0,0,1-3.232,2.96,1.948,1.948,0,0,1,.464.5c.1.16.16.224.224.224a.363.363,0,0,0,.224-.112,15.556,15.556,0,0,0,3.12-2.976,2.037,2.037,0,0,1,.384-.416C21.2-12.416,21.28-12.48,21.28-12.56ZM37.088-8.976c0-2.464.032-3.152.032-3.232,0-.112-.016-.128-.128-.128-.1,0-.368.032-1.28.032h-1.1c-.912,0-1.184-.032-1.28-.032-.112,0-.128.016-.128.128,0,.08.032.816.032,3.744v3.152c0,4.128-.032,4.848-.032,4.928,0,.112.016.128.128.128H34c.112,0,.128-.016.128-.128V-1.712h2.08v.8c0,.112.016.128.128.128h.656c.112,0,.128-.016.128-.128,0-.08-.032-.736-.032-4.736Zm-.88,6.416h-2.08V-6.7h2.08Zm0-4.976h-2.08v-3.92h2.08ZM46.816-8.1c0-.112-.016-.128-.128-.128-.1,0-.624.032-2.208.032H42.368V-10.32h1.456c1.472,0,1.952.032,2.048.032.112,0,.128-.016.128-.128v-.64c0-.128-.016-.144-.128-.144-.1,0-.576.032-2.048.032H42.368a5.835,5.835,0,0,1,.1-1.536,1.329,1.329,0,0,0,.08-.288c0-.08-.08-.128-.192-.144a9.2,9.2,0,0,0-1.04-.08,10.862,10.862,0,0,1,.112,2.048h-.992c-1.472,0-1.968-.032-2.048-.032-.128,0-.144.016-.144.144v.64c0,.112.016.128.144.128.08,0,.576-.032,2.048-.032h.992v2.128H39.936c-1.568,0-2.1-.032-2.192-.032-.112,0-.128.016-.128.128v.656c0,.112.016.128.128.128.1,0,.624-.032,2.192-.032H44.48c1.584,0,2.112.032,2.208.032.112,0,.128-.016.128-.128Zm-.192,2.848c0-.112-.016-.112-.128-.112-.08,0-.592.016-1.92.016v-.08a3.586,3.586,0,0,1,.08-1.136.558.558,0,0,0,.1-.272c0-.048-.08-.112-.208-.128a7.384,7.384,0,0,0-1.024-.112,8.183,8.183,0,0,1,.112,1.7v.032H40.016c-1.568,0-2.1-.016-2.176-.016-.112,0-.128,0-.128.112v.656c0,.112.016.128.128.128.08,0,.608-.032,2.176-.032h3.616V-.48c0,.448-.224.592-.56.592-.528,0-1.024-.016-1.5-.064a2.134,2.134,0,0,1,.32.72c.08.3.1.3.4.3,1.152,0,1.584-.08,1.856-.272a1.169,1.169,0,0,0,.448-1.072c0-.64-.016-1.328-.016-2.048V-4.5c1.344,0,1.84.032,1.92.032.112,0,.128-.016.128-.128Zm-7.44,1.92c-.16.1-.192.144-.1.24a9.443,9.443,0,0,1,1.536,2c.064.112.112.08.272-.032l.432-.288c.128-.1.144-.144.08-.24a9.305,9.305,0,0,0-1.584-1.936c-.1-.08-.128-.064-.256.016Zm22.784-6.928c0-1.552.032-2.192.032-2.288,0-.112-.016-.128-.128-.128-.08,0-.5.032-1.728.032H58.112c-1.248,0-1.648-.032-1.728-.032-.128,0-.144.016-.144.128,0,.1.032.4.032,1.376v1.92c0,.992-.032,1.3-.032,1.376,0,.112.016.128.144.128.08,0,.48-.032,1.728-.032h2.912v6.9c0,.64-.144.768-.848.768a10.235,10.235,0,0,1-1.232-.064,2.391,2.391,0,0,1,.288.7c.08.3.08.3.368.3,1.28,0,1.7-.064,2-.32.3-.24.416-.512.416-1.216,0-.608-.048-1.44-.048-2.288Zm-.944,1.712h-3.84v-1.3h3.84Zm0-2.064h-3.84v-1.248h3.84Zm-6.32-.464c0-.976.032-1.376.032-1.472,0-.112-.016-.128-.128-.128-.08,0-.48.032-1.6.032H51.136c-1.184,0-1.712-.032-1.808-.032-.112,0-.128.016-.128.128,0,.1.032,1.072.032,3.36v6.768C49.232-.128,49.2.816,49.2.912c0,.112.016.128.128.128h.752c.112,0,.128-.016.128-.128,0-.1-.032-1.04-.032-3.328v-5.36h2.832c1.12,0,1.52.032,1.6.032.112,0,.128-.016.128-.128,0-.08-.032-.48-.032-1.472Zm-.912,2.528H50.176v-1.3h3.616Zm0-2.064H50.176v-1.248h3.616ZM58.208-4.72c0-1.12.032-1.536.032-1.616,0-.112-.016-.128-.128-.128-.1,0-.48.032-1.664.032H54.592c-1.2,0-1.568-.032-1.664-.032-.112,0-.128.016-.128.128,0,.1.032.512.032,1.856v1.344C52.832-.784,52.8-.4,52.8-.32c0,.128.016.144.128.144h.656c.112,0,.128-.016.128-.144v-.832h3.616V-.48c0,.112.016.128.128.128h.656c.112,0,.128-.016.128-.128,0-.08-.032-.464-.032-2.768Zm-.88,2.8H53.712V-3.456h3.616Zm0-2.288H53.712V-5.664h3.616Z" transform="translate(95 24)" fill="#333"/></g><path d="M3.18,5.408C3.276,3.952,3.9,3.2,4.908,3.2a1.524,1.524,0,0,1,1.6,1.7c0,1.008-.352,1.648-1.952,3.184a15.451,15.451,0,0,0-3.488,4.528v1.424H8.636v-1.6H3.148A11.939,11.939,0,0,1,6.124,9.04C8,7.3,8.588,6.272,8.588,4.912c0-2.112-1.456-3.3-3.648-3.3A3.576,3.576,0,0,0,1.18,4.992Zm9.168,0c.1-1.456.72-2.208,1.728-2.208a1.524,1.524,0,0,1,1.6,1.7c0,1.008-.352,1.648-1.952,3.184a15.451,15.451,0,0,0-3.488,4.528v1.424H17.8v-1.6H12.316A11.939,11.939,0,0,1,15.292,9.04c1.872-1.744,2.464-2.768,2.464-4.128,0-2.112-1.456-3.3-3.648-3.3a3.576,3.576,0,0,0-3.76,3.376Zm12.1-.528c0-2.352.032-3.136.032-3.232,0-.16-.016-.176-.176-.176-.112,0-.416.032-1.376.032H21.548c-.96,0-1.264-.032-1.376-.032-.16,0-.176.016-.176.176,0,.1.032.944.032,3.84V8.976c0,4.016-.032,4.832-.032,4.928,0,.16.016.176.176.176h1.184c.144,0,.16-.016.16-.176V12.64h1.472v.7c0,.16.016.176.16.176H24.3c.16,0,.176-.016.176-.176,0-.1-.032-.816-.032-4.8Zm-2.928,6.3V7.728h1.472v3.456ZM22.988,2.96V6.272H21.516V2.96Zm8.72,3.968c1.52,0,2.048.032,2.144.032.176,0,.192-.016.192-.192v-1.1c0-.16-.016-.176-.192-.176-.1,0-.624.032-2.144.032h-1.7V3.872h1.072c1.456,0,1.936.032,2.032.032.16,0,.176-.016.176-.176V2.608c0-.176-.016-.192-.176-.192-.1,0-.576.032-2.032.032H30.012a3.716,3.716,0,0,1,.08-1.2.89.89,0,0,0,.1-.336c0-.08-.1-.144-.256-.16C29.34.688,28.908.656,28.284.64A13.4,13.4,0,0,1,28.4,2.448h-.752c-1.424,0-1.92-.032-2.016-.032-.176,0-.192.016-.192.192v1.12c0,.16.016.176.192.176.1,0,.592-.032,2.016-.032H28.4V5.52H27.244c-1.52,0-2.048-.032-2.144-.032-.176,0-.192.016-.192.176v1.1c0,.176.016.192.192.192.1,0,.624-.032,2.144-.032ZM30.46,9.936V13.12c0,.368-.144.5-.528.5-.528,0-1.008-.016-1.568-.064a3.565,3.565,0,0,1,.48,1.168c.112.48.128.48.608.48a3.692,3.692,0,0,0,2.08-.352,1.488,1.488,0,0,0,.56-1.36c0-.544-.016-1.232-.016-1.968V9.936c1.088.016,1.52.032,1.6.032.176,0,.192-.016.192-.176V8.672c0-.16-.016-.176-.192-.176-.08,0-.512.032-1.6.032a2.029,2.029,0,0,1,.08-.816.539.539,0,0,0,.08-.272c0-.08-.1-.144-.272-.176-.432-.064-1.008-.112-1.616-.144a11.883,11.883,0,0,1,.112,1.408H27.308c-1.52,0-2.032-.032-2.128-.032-.176,0-.192.016-.192.176v1.12c0,.16.016.176.192.176.1,0,.608-.032,2.128-.032Zm-4.32,1.008c-.192.112-.192.16-.08.288A13.4,13.4,0,0,1,27.468,13.2c.048.08.08.112.128.112s.1-.032.192-.1l.976-.672c.16-.112.176-.16.08-.3a12.8,12.8,0,0,0-1.472-1.84c-.128-.112-.176-.112-.336-.016Z" transform="translate(315 953)" fill="#333"/><path d="M3700,8894.718v287" transform="translate(-3367.5 -7907.218)" fill="none" stroke="#707070" stroke-width="1" stroke-dasharray="2 2"/><path d="M0,0H294.5V40H0Z" transform="translate(38 1008)" fill="#60ac56"/><path d="M-6.992-12.784c.112-.08.16-.144.16-.24,0-.112-.08-.192-.288-.24A11.126,11.126,0,0,0-8.8-13.6a5.037,5.037,0,0,1-.608,1.152A13.819,13.819,0,0,1-15.6-7.616a3.342,3.342,0,0,1,.736,1.056c.128.288.192.4.3.4a1.357,1.357,0,0,0,.4-.144,19.236,19.236,0,0,0,1.952-1.1v1.04c0,.16.016.176.176.176.1,0,.592-.032,2.064-.032h1.024v1.792H-10.56c-1.552,0-2.08-.032-2.176-.032-.16,0-.176.016-.176.176v1.216c0,.16.016.176.176.176.1,0,.624-.032,2.176-.032h1.616V-.976H-12.56c-1.472,0-1.984-.032-2.08-.032-.16,0-.176.016-.176.176V.416c0,.16.016.176.176.176.1,0,.608-.032,2.08-.032h9.136c1.456,0,1.968.032,2.064.032.16,0,.176-.016.176-.176V-.832c0-.16-.016-.176-.176-.176-.1,0-.608.032-2.064.032H-7.232V-2.928h1.824c1.552,0,2.08.032,2.176.032.176,0,.192-.016.192-.176V-4.288c0-.16-.016-.176-.192-.176-.1,0-.624.032-2.176.032H-7.232V-6.224H-6.1c1.472,0,1.984.032,2.08.032.144,0,.16-.016.16-.176V-7.536A18.859,18.859,0,0,0-1.664-6.4a1.49,1.49,0,0,0,.384.144c.128,0,.176-.128.288-.416A4.178,4.178,0,0,1-.3-7.888a14.116,14.116,0,0,1-6.848-4.768ZM-9.968-7.728c-.928,0-1.456,0-1.744-.016a15.121,15.121,0,0,0,3.68-3.6,14,14,0,0,0,3.84,3.6c-.256,0-.8.016-1.9.016ZM4.48,1.008c.16,0,.176-.016.176-.176V-.032h6.7V.752c0,.16.016.176.176.176H12.96c.16,0,.176-.016.176-.176,0-.1-.032-1.04-.032-5.632V-8.432c0-2.624.032-3.6.032-3.7,0-.176-.016-.192-.176-.192-.1,0-.656.032-2.208.032H5.264c-1.552,0-2.1-.032-2.208-.032-.16,0-.176.016-.176.192,0,.1.032,1.072.032,4.176v3.088c0,4.64-.032,5.584-.032,5.7,0,.16.016.176.176.176Zm.176-2.624V-5.488h6.7v3.872Zm0-9.088h6.7v3.648h-6.7Z" transform="translate(185 1034)" fill="#fff"/><rect width="105" height="40" transform="translate(38 1063)" fill="#60ac56"/><rect width="105" height="40" transform="translate(228 1173)" fill="#60ac56"/><rect width="85" height="40" transform="translate(143 1118)" fill="#60ac56"/><path d="M-24.8-4.656v3.232c0,1.616-.032,2.416-.032,2.512,0,.16.016.176.16.176h1.488c.144,0,.16-.016.16-.176,0-.08-.032-.9-.032-2.512V-4.656H-19.1c1.44,0,1.92.032,2.016.032.16,0,.176-.016.176-.176V-6.144c0-.16-.016-.176-.176-.176-.1,0-.576.032-2.016.032h-3.952V-9.424h2.56c1.568,0,2.1.032,2.192.032.16,0,.176-.016.176-.176v-1.3c0-.16-.016-.176-.176-.176-.1,0-.624.032-2.192.032h-6.032q.24-.456.432-.912a1.3,1.3,0,0,1,.368-.624.4.4,0,0,0,.176-.3c0-.144-.128-.208-.336-.272-.432-.128-.928-.24-1.52-.352a6.33,6.33,0,0,1-.368,1.184,11.009,11.009,0,0,1-2.784,3.92,3.159,3.159,0,0,1,.912.816c.176.208.272.3.368.3.08,0,.176-.08.336-.256a14.3,14.3,0,0,0,1.52-1.92H-24.8v3.136h-4.032c-1.424,0-1.92-.032-2.016-.032-.16,0-.176.016-.176.176V-4.8c0,.16.016.176.176.176.1,0,.592-.032,2.016-.032ZM-8.288-6.128c0-1.424.032-2.16.032-2.256,0-.144-.016-.16-.176-.16-.1,0-.48.032-1.664.032h-2.016c-1.184,0-1.568-.032-1.68-.032-.16,0-.176.016-.176.16,0,.112.032.752.032,2.128v5.28c0,1.376-.032,1.984-.032,2.08,0,.16.016.176.176.176h1.28c.16,0,.176-.016.176-.176,0-.08-.032-.72-.032-2.032v-1.12h2.56V-.72c0,.32-.1.416-.528.416-.416,0-.64-.016-1.072-.048A2.968,2.968,0,0,1-11.04.672c.08.5.08.48.592.48C-9.28,1.136-8.88,1.024-8.64.816-8.3.528-8.256.1-8.256-.512c0-.48-.032-1.328-.032-2.144Zm-4.08,2.8V-4.56h2.56v1.232Zm2.56-3.76v1.232h-2.56V-7.088Zm6.752-2.528c1.424,0,1.92.032,2.016.032.16,0,.176-.016.176-.192v-1.216c0-.16-.016-.176-.176-.176-.1,0-.592.032-2.016.032H-5.168c.256-.336.48-.656.656-.928a1.771,1.771,0,0,1,.432-.56c.08-.064.144-.128.144-.208,0-.112-.08-.16-.224-.224a15.217,15.217,0,0,0-1.6-.432,3.541,3.541,0,0,1-.3.8,16.552,16.552,0,0,1-.976,1.552h-3.6l1.008-.4c.24-.1.24-.112.176-.256a8.167,8.167,0,0,0-.928-1.536c-.1-.144-.112-.144-.336-.064l-1.088.416c-.176.08-.208.112-.112.256a10.671,10.671,0,0,1,.9,1.584h-1.888c-1.408,0-1.9-.032-2-.032-.16,0-.176.016-.176.176v1.216c0,.176.016.192.176.192.1,0,.592-.032,2-.032Zm1.008,3.04a5.132,5.132,0,0,1,.1-1.536.836.836,0,0,0,.112-.336c0-.08-.1-.16-.256-.176-.544-.064-1.056-.1-1.648-.112a13.209,13.209,0,0,1,.128,2.16v5.52c0,.512-.192.624-.688.624A13.169,13.169,0,0,1-5.92-.512,3.211,3.211,0,0,1-5.488.608c.112.512.112.5.608.5,1.44,0,1.872-.08,2.3-.352C-2.16.48-2.016.08-2.016-.7c0-.8-.032-1.648-.032-2.784Zm-4.72,2.592c0,1.072-.032,1.568-.032,1.68,0,.16.016.16.176.16H-5.36c.16,0,.176,0,.176-.16,0-.1-.032-.608-.032-1.68V-5.872a7.392,7.392,0,0,1,.064-1.584,1.384,1.384,0,0,0,.1-.368c0-.1-.064-.16-.224-.176-.544-.064-1.024-.112-1.6-.128a16.465,16.465,0,0,1,.112,2.272ZM9.088-9.808A3.634,3.634,0,0,1,12.672-6.1c0,3.024-2.128,4.144-4.832,4.784A3.393,3.393,0,0,1,8.96-.3c.208.32.352.384.688.288C12.9-.992,14.576-2.864,14.576-5.84c0-3.184-2.256-5.552-6.1-5.552a7,7,0,0,0-5.2,2.048,5.9,5.9,0,0,0-1.808,4.16C1.472-2.576,2.9-1.072,4.3-1.072a3.039,3.039,0,0,0,2.72-1.84,20.034,20.034,0,0,0,2-6.9Zm-1.92.1a18.281,18.281,0,0,1-1.7,5.728c-.432.768-.784.976-1.2.976-.5,0-1.088-.816-1.088-2.288a4.607,4.607,0,0,1,1.248-2.96A4.819,4.819,0,0,1,7.168-9.712Zm19.68,3.744a13.267,13.267,0,0,0-3.1-.8c.48-1.152.928-2.4,1.344-3.488a2.175,2.175,0,0,1,.432-.832.412.412,0,0,0,.16-.272.384.384,0,0,0-.144-.272,5.347,5.347,0,0,0-1.088-.88.367.367,0,0,0-.224-.064.352.352,0,0,0-.208.064,1.845,1.845,0,0,1-.784.272,17.856,17.856,0,0,1-2.48.208,5.962,5.962,0,0,1-1.408-.1,9.7,9.7,0,0,0,.464,1.744.26.26,0,0,0,.256.176.842.842,0,0,0,.288-.064,3.359,3.359,0,0,1,.72-.176c.528-.064,1.328-.16,2.208-.256-.4,1.344-.8,2.464-1.328,3.792-2.672,0-4.72,1.552-4.72,3.536a1.934,1.934,0,0,0,1.9,2.192,2.626,2.626,0,0,0,2.048-.88,11.1,11.1,0,0,0,1.952-3.2,10.819,10.819,0,0,1,3.168.976A8.831,8.831,0,0,1,22.72.048,3.3,3.3,0,0,1,24.112.7a.437.437,0,0,0,.24.112c.1,0,.176-.064.32-.176A9.821,9.821,0,0,0,27.9-3.568a13,13,0,0,1,2.1,1.5.3.3,0,0,0,.192.112c.048,0,.1-.032.144-.112a13.786,13.786,0,0,0,.688-1.376c.048-.16.064-.24-.1-.336a18.515,18.515,0,0,0-2.5-1.536c.16-.688.32-1.392.448-2.064A2.692,2.692,0,0,1,29.136-8a.3.3,0,0,0-.112-.432,6.9,6.9,0,0,0-1.856-.688,5.007,5.007,0,0,1,.016,1.088A15.828,15.828,0,0,1,26.848-5.968Zm-5.456.576A10.937,10.937,0,0,1,20.224-3.44a1.292,1.292,0,0,1-.928.608c-.384,0-.56-.224-.56-.736C18.736-4.48,19.76-5.328,21.392-5.392Z" transform="translate(91 1089)" fill="#fff"/><path d="M-15.264-6.336c-.176.128-.208.16-.08.272a7.061,7.061,0,0,1,1.152,1.488c.048.08.08.128.144.128.048,0,.1-.032.176-.1l.688-.56c.16-.128.176-.144.08-.288A9.363,9.363,0,0,0-14.336-6.8a.216.216,0,0,0-.16-.08.273.273,0,0,0-.176.08Zm.624-2.3.1-.192a1.319,1.319,0,0,1,.256-.4.264.264,0,0,0,.144-.24c0-.08-.048-.128-.176-.176a14.443,14.443,0,0,0-1.536-.336,5.767,5.767,0,0,1-.32,1.056,10.457,10.457,0,0,1-3.376,4.5,2.976,2.976,0,0,1,.672.736c.144.208.24.3.336.3.08,0,.176-.064.336-.224a12.935,12.935,0,0,0,1.04-1.056A12.854,12.854,0,0,0-15.28-2.144a13.591,13.591,0,0,1-4.064,2.08,2.759,2.759,0,0,1,.656.9c.144.288.192.4.3.4a1.42,1.42,0,0,0,.368-.112,13.938,13.938,0,0,0,3.9-2.208A13.733,13.733,0,0,0-9.776,1.136a1.228,1.228,0,0,0,.368.1c.144,0,.192-.128.288-.432A3.085,3.085,0,0,1-8.384-.4a14.282,14.282,0,0,1-4.528-1.808A13.212,13.212,0,0,0-10.288-6.8a1.609,1.609,0,0,1,.352-.656.463.463,0,0,0,.176-.288c0-.112-.1-.256-.384-.528-.416-.4-.576-.48-.672-.48a.455.455,0,0,0-.192.064.7.7,0,0,1-.3.048Zm2.816,1.36A10.335,10.335,0,0,1-14.16-3.168a9.675,9.675,0,0,1-2.064-2.7c.32-.464.608-.928.88-1.408Zm.7-2.9c1.44,0,1.936.032,2.032.032.16,0,.176-.016.176-.176v-1.216c0-.144-.016-.16-.176-.16-.1,0-.592.032-2.032.032h-4.1V-12a2.351,2.351,0,0,1,.08-.8c.016-.1.1-.208.1-.3,0-.064-.1-.144-.24-.16-.56-.048-1.152-.08-1.712-.1a6.953,6.953,0,0,1,.112,1.408v.288h-3.936c-1.456,0-1.936-.032-2.032-.032-.16,0-.176.016-.176.16v1.216c0,.16.016.176.176.176.1,0,.576-.032,2.032-.032ZM-21.312-.864c0,1.28-.032,1.872-.032,1.968,0,.16.016.176.192.176h1.264c.16,0,.176-.016.176-.176,0-.08-.032-.688-.032-1.968V-6.992c.272-.432.544-.864.784-1.312a2.707,2.707,0,0,1,.432-.64c.112-.1.192-.16.192-.272,0-.128-.08-.208-.256-.288a9.635,9.635,0,0,0-1.328-.544,6.665,6.665,0,0,1-.384.96,11.386,11.386,0,0,1-3.168,4,3.449,3.449,0,0,1,.56,1.168c.064.16.112.24.192.24.064,0,.176-.064.336-.208a12.479,12.479,0,0,0,1.12-1.136c-.016.608-.048,1.3-.048,1.808Zm22.4-8.944A3.634,3.634,0,0,1,4.672-6.1c0,3.024-2.128,4.144-4.832,4.784A3.393,3.393,0,0,1,.96-.3c.208.32.352.384.688.288C4.9-.992,6.576-2.864,6.576-5.84c0-3.184-2.256-5.552-6.1-5.552a7,7,0,0,0-5.2,2.048,5.9,5.9,0,0,0-1.808,4.16c0,2.608,1.424,4.112,2.832,4.112a3.039,3.039,0,0,0,2.72-1.84,20.034,20.034,0,0,0,2-6.9Zm-1.92.1a18.281,18.281,0,0,1-1.7,5.728c-.432.768-.784.976-1.2.976-.5,0-1.088-.816-1.088-2.288a4.607,4.607,0,0,1,1.248-2.96A4.819,4.819,0,0,1-.832-9.712Zm19.68,3.744a13.267,13.267,0,0,0-3.1-.8c.48-1.152.928-2.4,1.344-3.488a2.175,2.175,0,0,1,.432-.832.412.412,0,0,0,.16-.272.384.384,0,0,0-.144-.272,5.347,5.347,0,0,0-1.088-.88.367.367,0,0,0-.224-.064.352.352,0,0,0-.208.064,1.845,1.845,0,0,1-.784.272,17.856,17.856,0,0,1-2.48.208,5.962,5.962,0,0,1-1.408-.1,9.7,9.7,0,0,0,.464,1.744.26.26,0,0,0,.256.176.842.842,0,0,0,.288-.064,3.359,3.359,0,0,1,.72-.176c.528-.064,1.328-.16,2.208-.256-.4,1.344-.8,2.464-1.328,3.792-2.672,0-4.72,1.552-4.72,3.536a1.934,1.934,0,0,0,1.9,2.192,2.626,2.626,0,0,0,2.048-.88,11.1,11.1,0,0,0,1.952-3.2,10.819,10.819,0,0,1,3.168.976A8.831,8.831,0,0,1,14.72.048,3.3,3.3,0,0,1,16.112.7a.437.437,0,0,0,.24.112c.1,0,.176-.064.32-.176A9.821,9.821,0,0,0,19.9-3.568a13,13,0,0,1,2.1,1.5.3.3,0,0,0,.192.112c.048,0,.1-.032.144-.112a13.786,13.786,0,0,0,.688-1.376c.048-.16.064-.24-.1-.336a18.515,18.515,0,0,0-2.5-1.536c.16-.688.32-1.392.448-2.064A2.692,2.692,0,0,1,21.136-8a.3.3,0,0,0-.112-.432,6.9,6.9,0,0,0-1.856-.688,5.007,5.007,0,0,1,.016,1.088A15.828,15.828,0,0,1,18.848-5.968Zm-5.456.576A10.937,10.937,0,0,1,12.224-3.44a1.292,1.292,0,0,1-.928.608c-.384,0-.56-.224-.56-.736C10.736-4.48,11.76-5.328,13.392-5.392Z" transform="translate(281 1199)" fill="#fff"/><path d="M-23.25-4.365v3.03c0,1.515-.03,2.265-.03,2.355,0,.15.015.165.15.165h1.4c.135,0,.15-.015.15-.165,0-.075-.03-.84-.03-2.355v-3.03h3.7c1.35,0,1.8.03,1.89.03.15,0,.165-.015.165-.165V-5.76c0-.15-.015-.165-.165-.165-.09,0-.54.03-1.89.03h-3.7v-2.94h2.4c1.47,0,1.965.03,2.055.03.15,0,.165-.015.165-.165v-1.215c0-.15-.015-.165-.165-.165-.09,0-.585.03-2.055.03H-24.87q.225-.427.4-.855a1.221,1.221,0,0,1,.345-.585.379.379,0,0,0,.165-.285c0-.135-.12-.195-.315-.255-.4-.12-.87-.225-1.425-.33a5.934,5.934,0,0,1-.345,1.11,10.321,10.321,0,0,1-2.61,3.675,2.962,2.962,0,0,1,.855.765c.165.2.255.285.345.285s.165-.075.315-.24a13.4,13.4,0,0,0,1.425-1.8h2.46v2.94h-3.78c-1.335,0-1.8-.03-1.89-.03-.15,0-.165.015-.165.165V-4.5c0,.15.015.165.165.165.09,0,.555-.03,1.89-.03Zm19.41-4.02c-.165.09-.195.15-.09.27.225.285.45.57.66.855-.93.09-1.875.15-2.835.21A33.646,33.646,0,0,0-3.48-9.915c.27-.33.39-.465.525-.525a.267.267,0,0,0,.195-.24c0-.1-.06-.165-.225-.255-.345-.165-.8-.36-1.29-.555a3.583,3.583,0,0,1-.51.84C-5.3-9.975-5.85-9.3-6.465-8.6a11.317,11.317,0,0,0-.885-.78c.48-.57.93-1.17,1.4-1.785A1.262,1.262,0,0,1-5.52-11.6a.311.311,0,0,0,.18-.24c0-.105-.06-.18-.195-.255a9.48,9.48,0,0,0-1.3-.555,4.525,4.525,0,0,1-.39.81c-.42.66-.795,1.17-1.14,1.62-.2-.135-.39-.27-.57-.42-.12-.09-.15-.105-.27.045l-.6.7c-.075.09-.1.135-.1.18a.181.181,0,0,0,.09.135A24.411,24.411,0,0,1-7.44-7.545l-.57.585c-.435.015-.855.03-1.275.03a10.6,10.6,0,0,1-1.185-.03c.045.465.105.93.18,1.365.03.15.09.27.225.27A.833.833,0,0,0-9.78-5.43a3.124,3.124,0,0,1,.81-.135c.36-.015.765-.045,1.2-.09a3.4,3.4,0,0,1-.48.855A7.931,7.931,0,0,1-11.1-2.55a3.481,3.481,0,0,1,.6.72c.135.24.195.345.3.345.075,0,.165-.06.345-.165A9.879,9.879,0,0,0-8.28-2.805a8.665,8.665,0,0,0,1.32,1.35A12.616,12.616,0,0,1-11.01-.18a3.205,3.205,0,0,1,.525.87c.18.435.2.435.645.345A12.019,12.019,0,0,0-5.73-.585,13.958,13.958,0,0,0-1.62.945c.465.09.465.09.615-.36A3.166,3.166,0,0,1-.495-.42,14.767,14.767,0,0,1-4.545-1.5a10.121,10.121,0,0,0,1.44-1.635,1.481,1.481,0,0,1,.45-.495A.288.288,0,0,0-2.49-3.9c0-.135-.06-.255-.39-.6-.375-.36-.48-.435-.6-.435a.488.488,0,0,0-.21.06.823.823,0,0,1-.315.045h-2.61a.882.882,0,0,1,.24-.24q.18-.09.18-.225c0-.105-.09-.165-.255-.21-.255-.06-.51-.12-.825-.18,1.47-.12,3.2-.27,4.7-.45.165.315.315.63.465.945.075.165.1.165.285.06l.9-.495c.15-.09.18-.135.1-.285A13.641,13.641,0,0,0-2.79-8.79c-.09-.1-.12-.12-.285-.015ZM-4.455-3.63A7.6,7.6,0,0,1-5.805-2.2,6.7,6.7,0,0,1-7.29-3.63ZM-12.8-.84c0,1.2-.03,1.755-.03,1.845,0,.15.015.165.15.165h1.23c.15,0,.165-.015.165-.165,0-.075-.03-.645-.03-1.845V-6.375c.345-.45.675-.93.975-1.41a1.118,1.118,0,0,1,.33-.36A.175.175,0,0,0-9.9-8.31c0-.1-.06-.165-.2-.27a8.756,8.756,0,0,0-1.11-.69,3.269,3.269,0,0,1-.39.795,14.394,14.394,0,0,1-3.03,3.33,3.453,3.453,0,0,1,.51,1.08c.06.21.12.3.195.3s.18-.075.345-.2c.27-.225.54-.48.81-.75-.015.555-.03,1.2-.03,1.665Zm1.44-11.73a3.408,3.408,0,0,1-.435.69,10.237,10.237,0,0,1-2.685,2.37,2.759,2.759,0,0,1,.645.885c.1.255.18.36.285.36a.74.74,0,0,0,.345-.18,13.662,13.662,0,0,0,2.58-2.49,1.424,1.424,0,0,1,.4-.405c.15-.09.24-.15.24-.255s-.075-.18-.21-.27A5.776,5.776,0,0,0-11.355-12.57ZM8.52-9.195a3.407,3.407,0,0,1,3.36,3.48c0,2.835-2,3.885-4.53,4.485A3.181,3.181,0,0,1,8.4-.285c.2.3.33.36.645.27,3.045-.915,4.62-2.67,4.62-5.46,0-2.985-2.115-5.2-5.715-5.2A6.564,6.564,0,0,0,3.075-8.76a5.527,5.527,0,0,0-1.7,3.9C1.38-2.415,2.715-1,4.035-1A2.849,2.849,0,0,0,6.585-2.73,18.782,18.782,0,0,0,8.46-9.195Zm-1.8.09a17.138,17.138,0,0,1-1.59,5.37c-.405.72-.735.915-1.125.915-.465,0-1.02-.765-1.02-2.145A4.319,4.319,0,0,1,4.155-7.74,4.518,4.518,0,0,1,6.72-9.1Zm18.45,3.51a12.438,12.438,0,0,0-2.91-.75c.45-1.08.87-2.25,1.26-3.27a2.039,2.039,0,0,1,.4-.78.386.386,0,0,0,.15-.255.36.36,0,0,0-.135-.255,5.013,5.013,0,0,0-1.02-.825.344.344,0,0,0-.21-.06.33.33,0,0,0-.195.06,1.73,1.73,0,0,1-.735.255,16.74,16.74,0,0,1-2.325.195,5.59,5.59,0,0,1-1.32-.09,9.092,9.092,0,0,0,.435,1.635.243.243,0,0,0,.24.165.789.789,0,0,0,.27-.06,3.149,3.149,0,0,1,.675-.165c.495-.06,1.245-.15,2.07-.24-.375,1.26-.75,2.31-1.245,3.555-2.5,0-4.425,1.455-4.425,3.315A1.814,1.814,0,0,0,17.94-1.11a2.462,2.462,0,0,0,1.92-.825,10.41,10.41,0,0,0,1.83-3,10.142,10.142,0,0,1,2.97.915A8.279,8.279,0,0,1,21.3.045,3.091,3.091,0,0,1,22.6.66a.41.41,0,0,0,.225.105c.09,0,.165-.06.3-.165a9.207,9.207,0,0,0,3.03-3.945,12.19,12.19,0,0,1,1.965,1.41.286.286,0,0,0,.18.1c.045,0,.09-.03.135-.1a12.925,12.925,0,0,0,.645-1.29c.045-.15.06-.225-.09-.315a17.357,17.357,0,0,0-2.34-1.44c.15-.645.3-1.3.42-1.935a2.523,2.523,0,0,1,.24-.585.282.282,0,0,0-.1-.405,6.469,6.469,0,0,0-1.74-.645,4.694,4.694,0,0,1,.015,1.02A14.839,14.839,0,0,1,25.17-5.595Zm-5.115.54a10.254,10.254,0,0,1-1.1,1.83,1.211,1.211,0,0,1-.87.57c-.36,0-.525-.21-.525-.69C17.565-4.2,18.525-4.995,20.055-5.055Z" transform="translate(186 1144)" fill="#fff"/></g></svg>